<svg width="16" height="17" viewBox="0 0 16 17" fill="none" xmlns="http://www.w3.org/2000/svg">
<path d="M10.1667 3.58398H10.7L11.0975 3.62079C11.8577 3.69118 12.3406 3.94245 12.6491 4.26991C12.8866 4.52208 13.0629 4.86441 13.1591 5.31065H2.84092C2.93704 4.86441 3.11338 4.52208 3.35092 4.26991C3.65938 3.94245 4.1423 3.69118 4.90247 3.62079L5.29997 3.58398H5.83332H10.1667Z" fill="#ACB5BD" stroke="#ACB5BD" stroke-width="1.5"/>
<path d="M10.8067 9.36055C10.9267 9.48721 11 9.66055 11 9.83388C11 10.0072 10.9267 10.1805 10.8067 10.3072V9.36055ZM10.8067 9.36055L10.7067 9.28055L10.8067 9.36055ZM6.6099 13.2251L6.6489 13.1939L6.68446 13.1564C6.73868 13.0991 6.78856 13.037 6.83333 12.9708C6.87811 13.037 6.92799 13.0991 6.9822 13.1564L6.99614 13.1711L7.01086 13.185C7.26737 13.428 7.62211 13.5839 8 13.5839C8.37789 13.5839 8.73264 13.428 8.98914 13.185L9.00386 13.1711L9.0178 13.1564C9.07201 13.0991 9.12189 13.037 9.16667 12.9708C9.21144 13.037 9.26132 13.0991 9.31554 13.1564L9.32948 13.1711L9.34419 13.185C9.6007 13.428 9.95544 13.5839 10.3333 13.5839C10.7112 13.5839 11.066 13.428 11.3225 13.185L11.3372 13.1711L11.3511 13.1564C11.5941 12.8998 11.75 12.5451 11.75 12.1672C11.75 11.7893 11.5941 11.4346 11.3511 11.1781L11.3442 11.1707L11.337 11.1636C11.2749 11.1014 11.2085 11.0472 11.139 11.0004L11.1498 10.9932L11.1752 10.9729L11.2752 10.8929L11.3156 10.8606L11.3511 10.823C11.5941 10.5665 11.75 10.2118 11.75 9.83388C11.75 9.45599 11.5941 9.10125 11.3511 8.84474L11.3156 8.8072L11.2752 8.77489L11.1752 8.6949L11.1498 8.67456L11.1227 8.65651C11.0485 8.60705 10.9659 8.56244 10.875 8.5274C10.7912 8.48984 10.7003 8.46039 10.603 8.443C10.3353 8.39158 10.0541 8.41582 9.79307 8.52748C9.60595 8.60238 9.46759 8.70469 9.35828 8.80308L9.33608 8.82306L9.31554 8.84474C9.26132 8.90197 9.21144 8.96408 9.16667 9.03025C9.12189 8.96408 9.07201 8.90196 9.0178 8.84474L9.01083 8.83738L9.00366 8.83022C8.60739 8.43394 7.99459 8.30336 7.46339 8.52602C7.29334 8.5934 7.13352 8.69303 6.99634 8.83022L6.98917 8.83738L6.9822 8.84474C6.92799 8.90197 6.87811 8.96408 6.83333 9.03025C6.78856 8.96408 6.73868 8.90197 6.68446 8.84474L6.67749 8.83738L6.67033 8.83021C6.53315 8.69303 6.37333 8.59341 6.20328 8.52602C5.67208 8.30336 5.05928 8.43394 4.663 8.83022L4.65584 8.83738L4.64887 8.84474C4.40586 9.10125 4.25 9.45599 4.25 9.83388C4.25 10.2118 4.40586 10.5665 4.64887 10.823L4.66281 10.8377L4.67752 10.8517C4.73486 10.906 4.7971 10.956 4.86341 11.0008C4.79867 11.0448 4.74205 11.091 4.69161 11.1364L4.66941 11.1564L4.64887 11.1781C4.40586 11.4346 4.25 11.7893 4.25 12.1672C4.25 12.5451 4.40586 12.8998 4.64887 13.1564L4.66941 13.178L4.69161 13.198C4.80245 13.2978 4.94316 13.4016 5.13429 13.4767C5.28897 13.54 5.47022 13.5839 5.66667 13.5839C5.768 13.5839 5.86084 13.5698 5.89641 13.5644C5.90036 13.5639 5.9036 13.5634 5.90607 13.563L5.9147 13.5618L5.9233 13.5603C6.02555 13.5433 6.12083 13.5129 6.20832 13.4737C6.29452 13.4405 6.37321 13.3987 6.44435 13.3523C6.50768 13.3122 6.55577 13.2715 6.57574 13.2545L6.60485 13.2294C6.60768 13.227 6.60925 13.2256 6.6099 13.2251ZM6.83333 11.3636C6.78856 11.2974 6.73868 11.2353 6.68446 11.1781L6.6489 11.1405L6.60852 11.1082L6.55853 11.0682L6.50852 11.0282L6.48311 11.0079L6.47118 10.9999C6.53702 10.9553 6.59884 10.9057 6.65581 10.8517L6.67052 10.8377L6.68446 10.823C6.73868 10.7658 6.78856 10.7037 6.83333 10.6375C6.87811 10.7037 6.92799 10.7658 6.9822 10.823L6.99614 10.8377L7.01086 10.8517C7.06775 10.9056 7.12947 10.9552 7.19521 10.9998C7.12544 11.0467 7.05871 11.1012 6.99634 11.1636L6.98917 11.1707L6.9822 11.1781C6.92799 11.2353 6.87811 11.2974 6.83333 11.3636ZM9.00366 11.1636C8.94156 11.1014 8.87513 11.0472 8.80569 11.0004L8.81644 10.9932L8.84186 10.9729L8.89186 10.9329L8.94185 10.8929L8.98223 10.8606L9.0178 10.823C9.07201 10.7658 9.12189 10.7037 9.16667 10.6375C9.21144 10.7037 9.26132 10.7658 9.31554 10.823L9.32948 10.8377L9.34419 10.8517C9.40108 10.9056 9.46281 10.9552 9.52854 10.9998C9.45877 11.0467 9.39204 11.1012 9.32967 11.1636L9.3225 11.1707L9.31554 11.1781C9.26132 11.2353 9.21144 11.2974 9.16667 11.3636C9.12189 11.2974 9.07201 11.2353 9.0178 11.1781L9.01083 11.1707L9.00366 11.1636ZM2.75 7.81055H13.25V11.8339C13.25 12.7189 13.0286 13.3419 12.6587 13.7402C12.2982 14.1285 11.6904 14.4172 10.6667 14.4172H5.33333C4.30962 14.4172 3.70181 14.1285 3.34126 13.7402C2.97137 13.3419 2.75 12.7189 2.75 11.8339V7.81055Z" fill="#ACB5BD" stroke="#ACB5BD" stroke-width="1.5"/>
</svg>
