<svg width="1em" height="1em" viewBox="0 0 30 30" fill="none" xmlns="http://www.w3.org/2000/svg">
<path fill-rule="evenodd" clip-rule="evenodd" d="M13.0242 23.9157C13.0242 23.9637 13.0237 24.0117 13.0233 24.0596C13.02 24.436 13.0167 24.8077 13.2207 25.1452C13.5363 25.6672 14.1772 25.9222 14.7645 25.7559C15.3559 25.5883 15.7472 25.0458 15.7603 24.4389C15.7618 24.3682 15.7571 24.2854 15.752 24.1973C15.7313 23.8374 15.7054 23.3874 16.0821 23.2982C16.916 23.0997 17.7184 22.7867 18.4666 22.3683L17.4323 21.2001C15.4831 21.7951 13.3455 21.28 11.9135 19.8491C10.4229 18.3596 9.92392 16.0981 10.6417 14.0877C10.7463 13.7948 11.1324 13.7077 11.3526 13.9277L13.4701 16.0438C14.0266 16.6005 14.8929 16.7134 15.5929 16.3269L16.3186 15.6017C16.7051 14.9025 16.592 14.0375 16.0355 13.4813L13.9179 11.3651C13.698 11.1452 13.7845 10.7585 14.078 10.6536C16.0889 9.93648 18.3519 10.4351 19.8424 11.9244C21.2745 13.3557 21.79 15.4918 21.1948 17.4398L22.2775 18.3973C22.7214 17.524 23.0237 16.5857 23.1731 15.6176C23.2359 15.2094 23.746 15.2435 24.1203 15.2685C24.2027 15.274 24.2785 15.2791 24.3415 15.2789C24.8086 15.2777 25.2387 15.1142 25.5266 14.7311C26.2155 13.8146 25.5094 12.5579 24.4068 12.5414C24.2474 12.539 24.0889 12.5455 23.9305 12.5519H23.9304C23.8034 12.5571 23.6764 12.5623 23.5491 12.5629C23.3207 12.5639 23.1344 12.4863 23.0836 12.243C22.8238 10.9998 22.3117 9.82323 21.5791 8.78586C21.338 8.44287 21.7131 8.11087 22.0237 7.83596L22.0237 7.83595C22.1361 7.73644 22.2401 7.64441 22.3033 7.56205C22.6739 7.07938 22.7253 6.44006 22.3729 5.92997C22.0239 5.42472 21.368 5.20899 20.7904 5.42573C20.4761 5.54367 20.2475 5.77029 20.021 6.00941C19.9982 6.03349 19.9743 6.05971 19.9494 6.08704C19.7436 6.31301 19.4688 6.6146 19.1618 6.40578C18.0959 5.68167 16.8908 5.18775 15.6234 4.95556C15.2371 4.88406 15.2564 4.4582 15.2717 4.12112C15.2747 4.05707 15.2774 3.99623 15.2772 3.94163C15.2756 3.48054 15.1065 3.05452 14.7298 2.77105C13.8288 2.09302 12.5617 2.77186 12.5407 3.86946C12.5395 3.93208 12.5429 4.00441 12.5465 4.08146V4.08147C12.563 4.43327 12.584 4.88325 12.1945 4.95536C10.8908 5.19475 9.65357 5.71108 8.56644 6.46949C8.25188 6.6884 7.98092 6.40836 7.73792 6.15722C7.64387 6.06002 7.55401 5.96715 7.46743 5.9092C6.88375 5.51867 6.07507 5.64831 5.63837 6.19691C5.25369 6.68018 5.24562 7.38503 5.61922 7.87677C5.67476 7.94986 5.75451 8.02547 5.83791 8.10454L5.83791 8.10455C6.08326 8.33715 6.3602 8.59972 6.14563 8.9163C5.38055 10.0407 4.87235 11.3198 4.65711 12.6627C4.59815 13.0265 4.2065 13.0396 3.85041 13.0516C3.68531 13.0571 3.52786 13.0624 3.41475 13.1023C2.85305 13.3002 2.47562 13.8579 2.50123 14.4533C2.52663 15.0462 2.94922 15.569 3.52302 15.7186C3.63377 15.7475 3.77814 15.7473 3.9287 15.747C4.27696 15.7464 4.65835 15.7458 4.73352 16.1057C5.01097 17.4413 5.5796 18.6993 6.39886 19.7901C6.62464 20.0914 6.35289 20.3771 6.10508 20.6376C5.99351 20.7549 5.88679 20.8671 5.83253 20.9733C5.5543 21.5181 5.6799 22.2014 6.13273 22.6119C6.64826 23.0794 7.45231 23.0752 7.96844 22.6119C8.02063 22.5651 8.07528 22.5063 8.13264 22.4446C8.35444 22.206 8.61667 21.924 8.93338 22.1229C10.0612 22.8336 11.3293 23.2922 12.6508 23.4673C12.8705 23.497 13.0334 23.6951 13.0242 23.9157ZM25.2686 25.9168C25.6259 25.9168 25.9156 25.6271 25.9156 25.2698C25.9156 24.9125 25.6259 24.6228 25.2686 24.6228C24.9112 24.6228 24.6216 24.9125 24.6216 25.2698C24.6216 25.6271 24.9112 25.9168 25.2686 25.9168ZM20.4088 17.8971L26.6663 23.4298C27.7045 24.2788 27.7857 25.8894 26.8361 26.8378C25.8774 27.7956 24.2681 27.6974 23.4139 26.6553L17.888 20.4149C17.8303 20.3505 17.7548 20.3047 17.671 20.2835C17.5872 20.2623 17.499 20.2665 17.4176 20.2957C15.7087 20.9177 13.7873 20.503 12.522 19.2389C11.4326 18.1499 10.9726 16.5695 11.2657 15.0612L12.8599 16.6541C13.7065 17.5003 15.0285 17.6606 16.075 17.0445C16.2607 16.9348 16.9257 16.2711 17.0347 16.0852C17.6519 15.0392 17.4914 13.7176 16.6442 12.8712L15.051 11.2791C16.5607 10.9861 18.1422 11.446 19.2319 12.5349C20.4969 13.7993 20.912 15.719 20.2892 17.4261C20.2595 17.5076 20.2551 17.596 20.2764 17.68C20.2977 17.764 20.3439 17.8397 20.4088 17.8971ZM23.8417 25.2706C23.8417 26.0581 24.48 26.6964 25.2673 26.6964C25.5493 26.6964 25.8249 26.6128 26.0593 26.4562C26.2938 26.2995 26.4765 26.0769 26.5844 25.8164C26.6923 25.5559 26.7206 25.2693 26.6656 24.9927C26.6106 24.7162 26.4748 24.4622 26.2755 24.2628C26.0761 24.0634 25.8221 23.9276 25.5456 23.8726C25.269 23.8176 24.9824 23.8458 24.7219 23.9536C24.4614 24.0615 24.2387 24.2442 24.0821 24.4786C23.9254 24.713 23.8417 24.9886 23.8417 25.2706Z" fill="currentColor"/>
</svg>
