<svg width="1em" height="1em" viewBox="0 0 18 18" fill="none" xmlns="http://www.w3.org/2000/svg">
<path d="M0 4C0 1.79086 1.79086 0 4 0H14C16.2091 0 18 1.79086 18 4V14C18 16.2091 16.2091 18 14 18H4C1.79086 18 0 16.2091 0 14V4Z" fill="#272B31"/>
<path fill-rule="evenodd" clip-rule="evenodd" d="M14.4 9.00156C14.4 9.49862 13.997 9.90156 13.5 9.90156H4.49998C4.00292 9.90156 3.59998 9.49862 3.59998 9.00156C3.59998 8.50451 4.00292 8.10156 4.49998 8.10156H13.5C13.997 8.10156 14.4 8.50451 14.4 9.00156Z" fill="white"/>
</svg>
