<svg width="1em" height="1em" viewBox="0 0 32 32" fill="none" xmlns="http://www.w3.org/2000/svg">
<path d="M17.2117 21.2675L17.2411 21.2411L17.2675 21.2117C17.3971 21.0677 17.5244 20.8935 17.6162 20.659C17.696 20.4645 17.75 20.2399 17.75 20C17.75 19.7562 17.6943 19.5283 17.6123 19.3315C17.5286 19.1306 17.4121 18.949 17.2675 18.7883L17.2411 18.7589L17.2117 18.7325C17.051 18.5879 16.8694 18.4714 16.6685 18.3877C16.651 18.3804 16.6334 18.3734 16.6157 18.3667C17.1356 18.1304 17.5 17.6052 17.5 17V12C17.5 11.1758 16.8242 10.5 16 10.5C15.1758 10.5 14.5 11.1758 14.5 12V17C14.5 17.6052 14.8644 18.1304 15.3843 18.3667C15.3666 18.3734 15.349 18.3804 15.3315 18.3877C15.1306 18.4714 14.949 18.5879 14.7883 18.7325L14.7589 18.7589L14.7325 18.7883C14.5879 18.949 14.4714 19.1306 14.3877 19.3315C14.3057 19.5283 14.25 19.7562 14.25 20C14.25 20.2399 14.304 20.4645 14.3838 20.659C14.4756 20.8935 14.6029 21.0677 14.7325 21.2117L14.7589 21.2411L14.7883 21.2675C14.949 21.4121 15.1306 21.5286 15.3315 21.6123C15.5283 21.6943 15.7562 21.75 16 21.75C16.2438 21.75 16.4717 21.6943 16.6685 21.6123C16.8694 21.5286 17.051 21.4121 17.2117 21.2675ZM6.75 16C6.75 10.9042 10.9042 6.75 16 6.75C21.0958 6.75 25.25 10.9042 25.25 16C25.25 21.0958 21.0958 25.25 16 25.25C10.9042 25.25 6.75 21.0958 6.75 16Z" fill="currentColor" stroke="currentColor" stroke-width="1.5"/>
</svg>
