<svg width="1em" height="1em" viewBox="0 0 54 54" fill="none" xmlns="http://www.w3.org/2000/svg">
<path d="M32.7375 50.445C31.995 50.445 31.2975 49.95 31.095 49.185C30.87 48.285 31.3875 47.3625 32.2875 47.115C41.4225 44.7075 47.79 36.4275 47.79 26.9775C47.79 15.5025 38.4525 6.165 26.9775 6.165C17.235 6.165 10.845 11.8575 7.8525 15.3H14.4675C15.39 15.3 16.155 16.065 16.155 16.9875C16.155 17.91 15.435 18.6975 14.49 18.6975H4.5225C4.365 18.6975 4.2075 18.675 4.05 18.63C3.8475 18.5625 3.6675 18.4725 3.51 18.36C3.3075 18.225 3.15 18.045 3.0375 17.8425C2.925 17.6175 2.835 17.3925 2.8125 17.145C2.8125 17.0775 2.8125 17.0325 2.8125 16.965V6.75C2.8125 5.8275 3.5775 5.0625 4.5 5.0625C5.4225 5.0625 6.1875 5.8275 6.1875 6.75V12.1275C9.855 8.19 16.7625 2.8125 27 2.8125C40.3425 2.8125 51.1875 13.6575 51.1875 27C51.1875 37.98 43.785 47.61 33.165 50.4C33.03 50.4225 32.8725 50.445 32.7375 50.445Z" fill="currentColor"/>
<path d="M25.4025 51.1425C25.3575 51.1425 25.29 51.1425 25.245 51.12C22.8375 50.9625 20.475 50.4225 18.225 49.545C17.5725 49.2975 17.145 48.645 17.145 47.9475C17.145 47.745 17.19 47.5425 17.2575 47.3625C17.595 46.5075 18.585 46.0575 19.44 46.395C21.375 47.16 23.4225 47.61 25.4925 47.7675H25.515C26.415 47.8125 27.09 48.5775 27.09 49.4775C27.09 49.5 27.09 49.545 27.09 49.5675C27.0225 50.445 26.28 51.1425 25.4025 51.1425ZM13.005 46.305C12.6225 46.305 12.2625 46.1925 11.9475 45.945C10.0575 44.4375 8.415 42.66 7.0425 40.6575C6.84 40.365 6.7275 40.05 6.7275 39.7125C6.7275 39.15 6.9975 38.6325 7.47 38.3175C8.2125 37.8 9.315 38.0025 9.81 38.745C11.0025 40.4775 12.42 42.0075 14.0625 43.29C14.445 43.605 14.6925 44.0775 14.6925 44.595C14.6925 44.9775 14.58 45.36 14.3325 45.675C14.0175 46.08 13.5225 46.305 13.005 46.305ZM5.49 35.325C4.7475 35.325 4.095 34.8525 3.8925 34.155C3.1725 31.8375 2.8125 29.43 2.8125 27C2.8125 26.0775 3.5775 25.3125 4.5 25.3125C5.4225 25.3125 6.1875 26.0775 6.1875 27C6.1875 29.0925 6.5025 31.1625 7.11 33.1425C7.155 33.3 7.1775 33.48 7.1775 33.66C7.1775 34.4025 6.705 35.0325 6.0075 35.2575C5.8275 35.3025 5.67 35.325 5.49 35.325Z" fill="currentColor"/>
<path d="M27 36C31.9706 36 36 31.9706 36 27C36 22.0294 31.9706 18 27 18C22.0294 18 18 22.0294 18 27C18 31.9706 22.0294 36 27 36Z" fill="currentColor"/>
</svg>
