<svg width="18" height="18" viewBox="0 0 18 18" fill="none" xmlns="http://www.w3.org/2000/svg">
<path d="M3.50903 10.3126V7.69544C3.50903 7.6247 3.47904 7.56183 3.43407 7.50682C3.38909 7.45966 3.32162 7.42822 3.25415 7.42822H2.25713C2.21965 7.42822 2.17467 7.43608 2.13719 7.45966C2.09971 7.48324 2.06972 7.50682 2.04724 7.54611L1.54498 8.33204C1.51499 8.37134 1.5 8.42635 1.5 8.47351V9.25944C1.5 9.31445 1.51499 9.36161 1.54498 9.4009L2.00226 10.124V12.4031C2.00226 12.4739 2.03224 12.5368 2.07722 12.5918C2.1222 12.6389 2.18967 12.6704 2.25713 12.6704H3.25415C3.32162 12.6704 3.38159 12.6389 3.43407 12.5918C3.47904 12.5446 3.50903 12.4739 3.50903 12.4031V10.3047V10.3126Z" fill="currentColor"/>
<path d="M3.00695 9.52669V12.1438H2.50445V10.0454C2.50445 9.99039 2.48945 9.94323 2.45945 9.90394L2.00195 9.18874V8.56L2.38445 7.95483H2.99945V9.52669H3.00695Z" fill="currentColor"/>
<path d="M8.75672 5.32972H11.5079C11.5754 5.32972 11.6353 5.29828 11.6878 5.25112C11.7403 5.20397 11.7628 5.13323 11.7628 5.0625V4.01722C11.7628 3.94648 11.7328 3.88361 11.6878 3.82859C11.6428 3.77358 11.5754 3.75 11.5079 3.75H6.50781C6.44034 3.75 6.38037 3.78144 6.32789 3.82859C6.27542 3.87575 6.25293 3.94648 6.25293 4.01722V5.0625C6.25293 5.13323 6.28292 5.19611 6.32789 5.25112C6.37287 5.30614 6.44034 5.32972 6.50781 5.32972H8.75672Z" fill="currentColor"/>
<path d="M11.2527 4.28442H6.75488V4.811H11.2527V4.28442Z" fill="currentColor"/>
<path d="M16.425 8.55194L15.9227 8.02537C15.8777 7.97821 15.8103 7.94678 15.7428 7.94678H14.9932C14.9257 7.94678 14.8657 7.97821 14.8132 8.02537C14.7683 8.07253 14.7383 8.14326 14.7383 8.21399V13.4561C14.7383 13.5269 14.7683 13.5897 14.8132 13.6448C14.8582 13.6919 14.9257 13.7234 14.9932 13.7234H15.7428C15.8103 13.7234 15.8702 13.6919 15.9227 13.6448L16.425 13.1182C16.4699 13.071 16.4999 13.0003 16.4999 12.9296V8.74057C16.4999 8.66983 16.4699 8.60696 16.425 8.55194Z" fill="currentColor"/>
<path d="M15.998 12.8196L15.6455 13.189H15.248V8.47339H15.6455L15.998 8.84278V12.8196Z" fill="currentColor"/>
<path d="M14.1762 7.50665C14.1312 7.4595 14.0637 7.42806 13.9963 7.42806H12.377L11.455 5.97409C11.455 5.97409 11.4025 5.91122 11.365 5.88764C11.3275 5.86406 11.2901 5.8562 11.2451 5.8562H6.74726C6.70978 5.8562 6.6648 5.86406 6.62732 5.88764C6.58984 5.91122 6.55985 5.93479 6.53737 5.97409L5.61531 7.42806H4.25097C4.1835 7.42806 4.12353 7.4595 4.07106 7.50665C4.02608 7.55381 3.99609 7.62454 3.99609 7.69527V12.4108C3.99609 12.4816 4.02608 12.5445 4.07106 12.5995C4.11604 12.6466 4.1835 12.6781 4.25097 12.6781H5.61531L6.53737 14.132C6.53737 14.132 6.58984 14.1949 6.62732 14.2185C6.6648 14.2421 6.70229 14.2499 6.74726 14.2499H13.9963C14.0637 14.2499 14.1237 14.2185 14.1762 14.1713C14.2212 14.1242 14.2511 14.0534 14.2511 13.9827V7.69527C14.2511 7.62454 14.2212 7.56167 14.1762 7.50665ZM11.1701 9.98233L8.17158 12.8667C8.13409 12.906 8.08162 12.9296 8.02914 12.9374C7.97667 12.9374 7.92419 12.9374 7.87922 12.906C7.83424 12.8745 7.79676 12.8352 7.77427 12.7881C7.75178 12.7409 7.74428 12.6781 7.75927 12.623L8.19406 10.5875H7.00964C6.95716 10.5875 6.91218 10.5718 6.86721 10.5403C6.82223 10.5089 6.79224 10.4696 6.77725 10.4224C6.76226 10.3753 6.75476 10.3203 6.76975 10.2653C6.78475 10.2102 6.80723 10.1709 6.84472 10.1317L9.84327 7.2473C9.88075 7.208 9.93322 7.18442 9.9857 7.17656C10.0382 7.17656 10.0906 7.17656 10.1356 7.208C10.1806 7.23944 10.2181 7.27873 10.2406 7.32589C10.2631 7.37304 10.2706 7.43592 10.2556 7.49093L9.82078 9.52649H11.0052C11.0052 9.52649 11.0727 9.52649 11.1027 9.55007C11.1326 9.56578 11.1626 9.58936 11.1851 9.61294C11.2301 9.66795 11.2526 9.73083 11.2526 9.80156C11.2526 9.8723 11.2226 9.93517 11.1701 9.98233Z" fill="currentColor"/>
</svg>
