<svg width="18" height="18" viewBox="0 0 18 18" fill="none" xmlns="http://www.w3.org/2000/svg">
<path d="M3.75 6C2.505 6 1.5 7.005 1.5 8.25V14.25C1.5 15.495 2.505 16.5 3.75 16.5H4.875C5.7 16.5 6.375 15.825 6.375 15V7.5C6.375 6.675 5.7 6 4.875 6H3.75ZM4.5 12.75C4.5 13.0575 4.245 13.3125 3.9375 13.3125C3.63 13.3125 3.375 13.0575 3.375 12.75V9.75C3.375 9.4425 3.63 9.1875 3.9375 9.1875C4.245 9.1875 4.5 9.4425 4.5 9.75V12.75Z" fill="currentColor"/>
<path d="M14.25 1.5H9.75C8.505 1.5 7.5 2.505 7.5 3.75V14.25C7.5 15.495 8.505 16.5 9.75 16.5H10.125C10.335 16.5 10.5 16.335 10.5 16.125V13.5C10.5 13.0875 10.8375 12.75 11.25 12.75H12.75C13.1625 12.75 13.5 13.0875 13.5 13.5V16.125C13.5 16.335 13.665 16.5 13.875 16.5H14.25C15.495 16.5 16.5 15.495 16.5 14.25V3.75C16.5 2.505 15.495 1.5 14.25 1.5ZM11.0625 9.75C11.0625 10.0575 10.8075 10.3125 10.5 10.3125C10.1925 10.3125 9.9375 10.0575 9.9375 9.75V6C9.9375 5.6925 10.1925 5.4375 10.5 5.4375C10.8075 5.4375 11.0625 5.6925 11.0625 6V9.75ZM14.0625 9.75C14.0625 10.0575 13.8075 10.3125 13.5 10.3125C13.1925 10.3125 12.9375 10.0575 12.9375 9.75V6C12.9375 5.6925 13.1925 5.4375 13.5 5.4375C13.8075 5.4375 14.0625 5.6925 14.0625 6V9.75Z" fill="currentColor"/>
</svg>
