<svg width="18" height="18" viewBox="0 0 18 18" fill="none" xmlns="http://www.w3.org/2000/svg">
<path d="M5.78613 14.8928C5.78613 15.7789 6.5072 16.4999 7.39328 16.4999H14.8933C15.7793 16.4999 16.5004 15.7789 16.5004 14.8928V13.2856H5.78613V14.8928ZM14.3576 14.6249C14.3576 14.5539 14.3858 14.4858 14.436 14.4355C14.4862 14.3853 14.5544 14.3571 14.6254 14.3571C14.6965 14.3571 14.7646 14.3853 14.8148 14.4355C14.8651 14.4858 14.8933 14.5539 14.8933 14.6249V15.1606C14.8933 15.2317 14.8651 15.2998 14.8148 15.35C14.7646 15.4003 14.6965 15.4285 14.6254 15.4285C14.5544 15.4285 14.4862 15.4003 14.436 15.35C14.3858 15.2998 14.3576 15.2317 14.3576 15.1606V14.6249ZM13.2861 14.6249C13.2861 14.5539 13.3144 14.4858 13.3646 14.4355C13.4148 14.3853 13.4829 14.3571 13.554 14.3571C13.625 14.3571 13.6932 14.3853 13.7434 14.4355C13.7936 14.4858 13.8218 14.5539 13.8218 14.6249V15.1606C13.8218 15.2317 13.7936 15.2998 13.7434 15.35C13.6932 15.4003 13.625 15.4285 13.554 15.4285C13.4829 15.4285 13.4148 15.4003 13.3646 15.35C13.3144 15.2998 13.2861 15.2317 13.2861 15.1606V14.6249ZM12.2147 14.6249C12.2147 14.5539 12.2429 14.4858 12.2932 14.4355C12.3434 14.3853 12.4115 14.3571 12.4826 14.3571C12.5536 14.3571 12.6217 14.3853 12.672 14.4355C12.7222 14.4858 12.7504 14.5539 12.7504 14.6249V15.1606C12.7504 15.2317 12.7222 15.2998 12.672 15.35C12.6217 15.4003 12.5536 15.4285 12.4826 15.4285C12.4115 15.4285 12.3434 15.4003 12.2932 15.35C12.2429 15.2998 12.2147 15.2317 12.2147 15.1606V14.6249ZM11.1433 14.6249C11.1433 14.5539 11.1715 14.4858 11.2217 14.4355C11.272 14.3853 11.3401 14.3571 11.4111 14.3571C11.4822 14.3571 11.5503 14.3853 11.6005 14.4355C11.6508 14.4858 11.679 14.5539 11.679 14.6249V15.1606C11.679 15.2317 11.6508 15.2998 11.6005 15.35C11.5503 15.4003 11.4822 15.4285 11.4111 15.4285C11.3401 15.4285 11.272 15.4003 11.2217 15.35C11.1715 15.2998 11.1433 15.2317 11.1433 15.1606V14.6249ZM5.78613 10.058V12.7499H16.5004V9.53565H7.65631C7.07813 9.8432 6.44001 10.0214 5.78613 10.058ZM14.3576 10.8749C14.3576 10.8039 14.3858 10.7358 14.436 10.6855C14.4862 10.6353 14.5544 10.6071 14.6254 10.6071C14.6965 10.6071 14.7646 10.6353 14.8148 10.6855C14.8651 10.7358 14.8933 10.8039 14.8933 10.8749V11.4106C14.8933 11.4817 14.8651 11.5498 14.8148 11.6C14.7646 11.6503 14.6965 11.6785 14.6254 11.6785C14.5544 11.6785 14.4862 11.6503 14.436 11.6C14.3858 11.5498 14.3576 11.4817 14.3576 11.4106V10.8749ZM13.2861 10.8749C13.2861 10.8039 13.3144 10.7358 13.3646 10.6855C13.4148 10.6353 13.4829 10.6071 13.554 10.6071C13.625 10.6071 13.6932 10.6353 13.7434 10.6855C13.7936 10.7358 13.8218 10.8039 13.8218 10.8749V11.4106C13.8218 11.4817 13.7936 11.5498 13.7434 11.6C13.6932 11.6503 13.625 11.6785 13.554 11.6785C13.4829 11.6785 13.4148 11.6503 13.3646 11.6C13.3144 11.5498 13.2861 11.4817 13.2861 11.4106V10.8749ZM12.2147 10.8749C12.2147 10.8039 12.2429 10.7358 12.2932 10.6855C12.3434 10.6353 12.4115 10.6071 12.4826 10.6071C12.5536 10.6071 12.6217 10.6353 12.672 10.6855C12.7222 10.7358 12.7504 10.8039 12.7504 10.8749V11.4106C12.7504 11.4817 12.7222 11.5498 12.672 11.6C12.6217 11.6503 12.5536 11.6785 12.4826 11.6785C12.4115 11.6785 12.3434 11.6503 12.2932 11.6C12.2429 11.5498 12.2147 11.4817 12.2147 11.4106V10.8749ZM11.1433 10.8749C11.1433 10.8039 11.1715 10.7358 11.2217 10.6855C11.272 10.6353 11.3401 10.6071 11.4111 10.6071C11.4822 10.6071 11.5503 10.6353 11.6005 10.6855C11.6508 10.7358 11.679 10.8039 11.679 10.8749V11.4106C11.679 11.4817 11.6508 11.5498 11.6005 11.6C11.5503 11.6503 11.4822 11.6785 11.4111 11.6785C11.3401 11.6785 11.272 11.6503 11.2217 11.6C11.1715 11.5498 11.1433 11.4817 11.1433 11.4106V10.8749ZM8.44649 8.99993H16.5004V5.78564H10.0585C10.0226 6.40295 9.86106 7.00644 9.58379 7.55913C9.30652 8.11183 8.91987 8.60211 8.44649 8.99993ZM14.3576 7.12493C14.3576 7.05389 14.3858 6.98576 14.436 6.93553C14.4862 6.88529 14.5544 6.85707 14.6254 6.85707C14.6965 6.85707 14.7646 6.88529 14.8148 6.93553C14.8651 6.98576 14.8933 7.05389 14.8933 7.12493V7.66064C14.8933 7.73169 14.8651 7.79982 14.8148 7.85005C14.7646 7.90028 14.6965 7.9285 14.6254 7.9285C14.5544 7.9285 14.4862 7.90028 14.436 7.85005C14.3858 7.79982 14.3576 7.73169 14.3576 7.66064V7.12493ZM13.2861 7.12493C13.2861 7.05389 13.3144 6.98576 13.3646 6.93553C13.4148 6.88529 13.4829 6.85707 13.554 6.85707C13.625 6.85707 13.6932 6.88529 13.7434 6.93553C13.7936 6.98576 13.8218 7.05389 13.8218 7.12493V7.66064C13.8218 7.73169 13.7936 7.79982 13.7434 7.85005C13.6932 7.90028 13.625 7.9285 13.554 7.9285C13.4829 7.9285 13.4148 7.90028 13.3646 7.85005C13.3144 7.79982 13.2861 7.73169 13.2861 7.66064V7.12493ZM12.2147 7.12493C12.2147 7.05389 12.2429 6.98576 12.2932 6.93553C12.3434 6.88529 12.4115 6.85707 12.4826 6.85707C12.5536 6.85707 12.6217 6.88529 12.672 6.93553C12.7222 6.98576 12.7504 7.05389 12.7504 7.12493V7.66064C12.7504 7.73169 12.7222 7.79982 12.672 7.85005C12.6217 7.90028 12.5536 7.9285 12.4826 7.9285C12.4115 7.9285 12.3434 7.90028 12.2932 7.85005C12.2429 7.79982 12.2147 7.73169 12.2147 7.66064V7.12493ZM11.1433 7.12493C11.1433 7.05389 11.1715 6.98576 11.2217 6.93553C11.272 6.88529 11.3401 6.85707 11.4111 6.85707C11.4822 6.85707 11.5503 6.88529 11.6005 6.93553C11.6508 6.98576 11.679 7.05389 11.679 7.12493V7.66064C11.679 7.73169 11.6508 7.79982 11.6005 7.85005C11.5503 7.90028 11.4822 7.9285 11.4111 7.9285C11.3401 7.9285 11.272 7.90028 11.2217 7.85005C11.1715 7.79982 11.1433 7.73169 11.1433 7.66064V7.12493ZM14.8933 2.03564H8.44649C8.91977 2.43352 9.30686 2.92381 9.58404 3.47651C9.86121 4.0292 10.0226 4.63266 10.0585 5.24993H16.5004V3.64279C16.5004 2.75672 15.7793 2.03564 14.8933 2.03564ZM11.679 3.91064C11.679 3.98168 11.6508 4.04982 11.6005 4.10005C11.5503 4.15028 11.4822 4.1785 11.4111 4.1785C11.3401 4.1785 11.272 4.15028 11.2217 4.10005C11.1715 4.04982 11.1433 3.98168 11.1433 3.91064V3.37493C11.1433 3.30389 11.1715 3.23576 11.2217 3.18553C11.272 3.13529 11.3401 3.10707 11.4111 3.10707C11.4822 3.10707 11.5503 3.13529 11.6005 3.18553C11.6508 3.23576 11.679 3.30389 11.679 3.37493V3.91064ZM12.7504 3.91064C12.7504 3.98168 12.7222 4.04982 12.672 4.10005C12.6217 4.15028 12.5536 4.1785 12.4826 4.1785C12.4115 4.1785 12.3434 4.15028 12.2932 4.10005C12.2429 4.04982 12.2147 3.98168 12.2147 3.91064V3.37493C12.2147 3.30389 12.2429 3.23576 12.2932 3.18553C12.3434 3.13529 12.4115 3.10707 12.4826 3.10707C12.5536 3.10707 12.6217 3.13529 12.672 3.18553C12.7222 3.23576 12.7504 3.30389 12.7504 3.37493V3.91064ZM13.8218 3.91064C13.8218 3.98168 13.7936 4.04982 13.7434 4.10005C13.6932 4.15028 13.625 4.1785 13.554 4.1785C13.4829 4.1785 13.4148 4.15028 13.3646 4.10005C13.3144 4.04982 13.2861 3.98168 13.2861 3.91064V3.37493C13.2861 3.30389 13.3144 3.23576 13.3646 3.18553C13.4148 3.13529 13.4829 3.10707 13.554 3.10707C13.625 3.10707 13.6932 3.13529 13.7434 3.18553C13.7936 3.23576 13.8218 3.30389 13.8218 3.37493V3.91064ZM14.8933 3.91064C14.8933 3.98168 14.8651 4.04982 14.8148 4.10005C14.7646 4.15028 14.6965 4.1785 14.6254 4.1785C14.5544 4.1785 14.4862 4.15028 14.436 4.10005C14.3858 4.04982 14.3576 3.98168 14.3576 3.91064V3.37493C14.3576 3.30389 14.3858 3.23576 14.436 3.18553C14.4862 3.13529 14.5544 3.10707 14.6254 3.10707C14.6965 3.10707 14.7646 3.13529 14.8148 3.18553C14.8651 3.23576 14.8933 3.30389 14.8933 3.37493V3.91064Z" fill="currentColor"/>
<path d="M9.53571 5.51786C9.53571 4.45226 9.11241 3.4303 8.35891 2.6768C7.60542 1.92331 6.58346 1.5 5.51786 1.5C4.45226 1.5 3.4303 1.92331 2.6768 2.6768C1.92331 3.4303 1.5 4.45226 1.5 5.51786C1.5 6.58346 1.92331 7.60542 2.6768 8.35891C3.4303 9.11241 4.45226 9.53571 5.51786 9.53571C6.58346 9.53571 7.60542 9.11241 8.35891 8.35891C9.11241 7.60542 9.53571 6.58346 9.53571 5.51786ZM5.17179 7.31464C5.14698 7.33972 5.11744 7.35962 5.08489 7.37321C5.05234 7.38679 5.01742 7.39378 4.98214 7.39378C4.94687 7.39378 4.91195 7.38679 4.8794 7.37321C4.84684 7.35962 4.81731 7.33972 4.7925 7.31464L3.18536 5.7075C3.13506 5.6572 3.1068 5.58899 3.1068 5.51786C3.1068 5.44673 3.13506 5.37851 3.18536 5.32821C3.23565 5.27792 3.30387 5.24966 3.375 5.24966C3.44613 5.24966 3.51435 5.27792 3.56464 5.32821L4.98214 6.74625L8.00679 3.72107C8.03169 3.69617 8.06126 3.67641 8.09379 3.66293C8.12633 3.64946 8.16121 3.64252 8.19643 3.64252C8.23165 3.64252 8.26652 3.64946 8.29906 3.66293C8.3316 3.67641 8.36117 3.69617 8.38607 3.72107C8.41098 3.74598 8.43073 3.77554 8.44421 3.80808C8.45769 3.84062 8.46462 3.87549 8.46462 3.91071C8.46462 3.94593 8.45769 3.98081 8.44421 4.01335C8.43073 4.04589 8.41098 4.07545 8.38607 4.10036L5.17179 7.31464Z" fill="currentColor"/>
</svg>
