<svg width="18" height="18" viewBox="0 0 18 18" fill="none" xmlns="http://www.w3.org/2000/svg">
<g clip-path="url(#clip0_4275_29373)">
<mask id="path-1-inside-1_4275_29373" fill="white">
<path d="M7.71436 19.8577C7.71436 21.0391 8.67578 22.0006 9.85721 22.0006H19.8572C21.0386 22.0006 22.0001 21.0391 22.0001 19.8577V17.7148H7.71436V19.8577ZM19.1429 19.5006C19.1429 19.4058 19.1806 19.315 19.2475 19.248C19.3145 19.181 19.4053 19.1434 19.5001 19.1434C19.5948 19.1434 19.6856 19.181 19.7526 19.248C19.8196 19.315 19.8572 19.4058 19.8572 19.5006V20.2148C19.8572 20.3096 19.8196 20.4004 19.7526 20.4674C19.6856 20.5344 19.5948 20.572 19.5001 20.572C19.4053 20.572 19.3145 20.5344 19.2475 20.4674C19.1806 20.4004 19.1429 20.3096 19.1429 20.2148V19.5006ZM17.7144 19.5006C17.7144 19.4058 17.752 19.315 17.819 19.248C17.8859 19.181 17.9768 19.1434 18.0715 19.1434C18.1662 19.1434 18.2571 19.181 18.324 19.248C18.391 19.315 18.4286 19.4058 18.4286 19.5006V20.2148C18.4286 20.3096 18.391 20.4004 18.324 20.4674C18.2571 20.5344 18.1662 20.572 18.0715 20.572C17.9768 20.572 17.8859 20.5344 17.819 20.4674C17.752 20.4004 17.7144 20.3096 17.7144 20.2148V19.5006ZM16.2858 19.5006C16.2858 19.4058 16.3234 19.315 16.3904 19.248C16.4574 19.181 16.5482 19.1434 16.6429 19.1434C16.7376 19.1434 16.8285 19.181 16.8955 19.248C16.9624 19.315 17.0001 19.4058 17.0001 19.5006V20.2148C17.0001 20.3096 16.9624 20.4004 16.8955 20.4674C16.8285 20.5344 16.7376 20.572 16.6429 20.572C16.5482 20.572 16.4574 20.5344 16.3904 20.4674C16.3234 20.4004 16.2858 20.3096 16.2858 20.2148V19.5006ZM14.8572 19.5006C14.8572 19.4058 14.8948 19.315 14.9618 19.248C15.0288 19.181 15.1196 19.1434 15.2144 19.1434C15.3091 19.1434 15.3999 19.181 15.4669 19.248C15.5339 19.315 15.5715 19.4058 15.5715 19.5006V20.2148C15.5715 20.3096 15.5339 20.4004 15.4669 20.4674C15.3999 20.5344 15.3091 20.572 15.2144 20.572C15.1196 20.572 15.0288 20.5344 14.9618 20.4674C14.8948 20.4004 14.8572 20.3096 14.8572 20.2148V19.5006ZM7.71436 13.4113V17.0006H22.0001V12.7148H10.2079C9.43701 13.1249 8.58619 13.3625 7.71436 13.4113ZM19.1429 14.5006C19.1429 14.4058 19.1806 14.315 19.2475 14.248C19.3145 14.181 19.4053 14.1434 19.5001 14.1434C19.5948 14.1434 19.6856 14.181 19.7526 14.248C19.8196 14.315 19.8572 14.4058 19.8572 14.5006V15.2148C19.8572 15.3096 19.8196 15.4004 19.7526 15.4674C19.6856 15.5344 19.5948 15.572 19.5001 15.572C19.4053 15.572 19.3145 15.5344 19.2475 15.4674C19.1806 15.4004 19.1429 15.3096 19.1429 15.2148V14.5006ZM17.7144 14.5006C17.7144 14.4058 17.752 14.315 17.819 14.248C17.8859 14.181 17.9768 14.1434 18.0715 14.1434C18.1662 14.1434 18.2571 14.181 18.324 14.248C18.391 14.315 18.4286 14.4058 18.4286 14.5006V15.2148C18.4286 15.3096 18.391 15.4004 18.324 15.4674C18.2571 15.5344 18.1662 15.572 18.0715 15.572C17.9768 15.572 17.8859 15.5344 17.819 15.4674C17.752 15.4004 17.7144 15.3096 17.7144 15.2148V14.5006ZM16.2858 14.5006C16.2858 14.4058 16.3234 14.315 16.3904 14.248C16.4574 14.181 16.5482 14.1434 16.6429 14.1434C16.7376 14.1434 16.8285 14.181 16.8955 14.248C16.9624 14.315 17.0001 14.4058 17.0001 14.5006V15.2148C17.0001 15.3096 16.9624 15.4004 16.8955 15.4674C16.8285 15.5344 16.7376 15.572 16.6429 15.572C16.5482 15.572 16.4574 15.5344 16.3904 15.4674C16.3234 15.4004 16.2858 15.3096 16.2858 15.2148V14.5006ZM14.8572 14.5006C14.8572 14.4058 14.8948 14.315 14.9618 14.248C15.0288 14.181 15.1196 14.1434 15.2144 14.1434C15.3091 14.1434 15.3999 14.181 15.4669 14.248C15.5339 14.315 15.5715 14.4058 15.5715 14.5006V15.2148C15.5715 15.3096 15.5339 15.4004 15.4669 15.4674C15.3999 15.5344 15.3091 15.572 15.2144 15.572C15.1196 15.572 15.0288 15.5344 14.9618 15.4674C14.8948 15.4004 14.8572 15.3096 14.8572 15.2148V14.5006ZM11.2615 12.0006H22.0001V7.71484H13.4108C13.363 8.53792 13.1476 9.34257 12.7779 10.0795C12.4082 10.8164 11.8927 11.4701 11.2615 12.0006ZM19.1429 9.50056C19.1429 9.40584 19.1806 9.315 19.2475 9.24802C19.3145 9.18104 19.4053 9.14342 19.5001 9.14342C19.5948 9.14342 19.6856 9.18104 19.7526 9.24802C19.8196 9.315 19.8572 9.40584 19.8572 9.50056V10.2148C19.8572 10.3096 19.8196 10.4004 19.7526 10.4674C19.6856 10.5344 19.5948 10.572 19.5001 10.572C19.4053 10.572 19.3145 10.5344 19.2475 10.4674C19.1806 10.4004 19.1429 10.3096 19.1429 10.2148V9.50056ZM17.7144 9.50056C17.7144 9.40584 17.752 9.315 17.819 9.24802C17.8859 9.18104 17.9768 9.14342 18.0715 9.14342C18.1662 9.14342 18.2571 9.18104 18.324 9.24802C18.391 9.315 18.4286 9.40584 18.4286 9.50056V10.2148C18.4286 10.3096 18.391 10.4004 18.324 10.4674C18.2571 10.5344 18.1662 10.572 18.0715 10.572C17.9768 10.572 17.8859 10.5344 17.819 10.4674C17.752 10.4004 17.7144 10.3096 17.7144 10.2148V9.50056ZM16.2858 9.50056C16.2858 9.40584 16.3234 9.315 16.3904 9.24802C16.4574 9.18104 16.5482 9.14342 16.6429 9.14342C16.7376 9.14342 16.8285 9.18104 16.8955 9.24802C16.9624 9.315 17.0001 9.40584 17.0001 9.50056V10.2148C17.0001 10.3096 16.9624 10.4004 16.8955 10.4674C16.8285 10.5344 16.7376 10.572 16.6429 10.572C16.5482 10.572 16.4574 10.5344 16.3904 10.4674C16.3234 10.4004 16.2858 10.3096 16.2858 10.2148V9.50056ZM14.8572 9.50056C14.8572 9.40584 14.8948 9.315 14.9618 9.24802C15.0288 9.18104 15.1196 9.14342 15.2144 9.14342C15.3091 9.14342 15.3999 9.18104 15.4669 9.24802C15.5339 9.315 15.5715 9.40584 15.5715 9.50056V10.2148C15.5715 10.3096 15.5339 10.4004 15.4669 10.4674C15.3999 10.5344 15.3091 10.572 15.2144 10.572C15.1196 10.572 15.0288 10.5344 14.9618 10.4674C14.8948 10.4004 14.8572 10.3096 14.8572 10.2148V9.50056ZM19.8572 2.71484H11.2615C11.8925 3.24534 12.4087 3.89907 12.7782 4.63599C13.1478 5.37292 13.363 6.17754 13.4108 7.00056H22.0001V4.8577C22.0001 3.67627 21.0386 2.71484 19.8572 2.71484ZM15.5715 5.21484C15.5715 5.30956 15.5339 5.4004 15.4669 5.46738C15.3999 5.53436 15.3091 5.57199 15.2144 5.57199C15.1196 5.57199 15.0288 5.53436 14.9618 5.46738C14.8948 5.4004 14.8572 5.30956 14.8572 5.21484V4.50056C14.8572 4.40584 14.8948 4.315 14.9618 4.24802C15.0288 4.18104 15.1196 4.14342 15.2144 4.14342C15.3091 4.14342 15.3999 4.18104 15.4669 4.24802C15.5339 4.315 15.5715 4.40584 15.5715 4.50056V5.21484ZM17.0001 5.21484C17.0001 5.30956 16.9624 5.4004 16.8955 5.46738C16.8285 5.53436 16.7376 5.57199 16.6429 5.57199C16.5482 5.57199 16.4574 5.53436 16.3904 5.46738C16.3234 5.4004 16.2858 5.30956 16.2858 5.21484V4.50056C16.2858 4.40584 16.3234 4.315 16.3904 4.24802C16.4574 4.18104 16.5482 4.14342 16.6429 4.14342C16.7376 4.14342 16.8285 4.18104 16.8955 4.24802C16.9624 4.315 17.0001 4.40584 17.0001 4.50056V5.21484ZM18.4286 5.21484C18.4286 5.30956 18.391 5.4004 18.324 5.46738C18.2571 5.53436 18.1662 5.57199 18.0715 5.57199C17.9768 5.57199 17.8859 5.53436 17.819 5.46738C17.752 5.4004 17.7144 5.30956 17.7144 5.21484V4.50056C17.7144 4.40584 17.752 4.315 17.819 4.24802C17.8859 4.18104 17.9768 4.14342 18.0715 4.14342C18.1662 4.14342 18.2571 4.18104 18.324 4.24802C18.391 4.315 18.4286 4.40584 18.4286 4.50056V5.21484ZM19.8572 5.21484C19.8572 5.30956 19.8196 5.4004 19.7526 5.46738C19.6856 5.53436 19.5948 5.57199 19.5001 5.57199C19.4053 5.57199 19.3145 5.53436 19.2475 5.46738C19.1806 5.4004 19.1429 5.30956 19.1429 5.21484V4.50056C19.1429 4.40584 19.1806 4.315 19.2475 4.24802C19.3145 4.18104 19.4053 4.14342 19.5001 4.14342C19.5948 4.14342 19.6856 4.18104 19.7526 4.24802C19.8196 4.315 19.8572 4.40584 19.8572 4.50056V5.21484Z"/>
</mask>
<path d="M7.71436 19.8577C7.71436 21.0391 8.67578 22.0006 9.85721 22.0006H19.8572C21.0386 22.0006 22.0001 21.0391 22.0001 19.8577V17.7148H7.71436V19.8577ZM19.1429 19.5006C19.1429 19.4058 19.1806 19.315 19.2475 19.248C19.3145 19.181 19.4053 19.1434 19.5001 19.1434C19.5948 19.1434 19.6856 19.181 19.7526 19.248C19.8196 19.315 19.8572 19.4058 19.8572 19.5006V20.2148C19.8572 20.3096 19.8196 20.4004 19.7526 20.4674C19.6856 20.5344 19.5948 20.572 19.5001 20.572C19.4053 20.572 19.3145 20.5344 19.2475 20.4674C19.1806 20.4004 19.1429 20.3096 19.1429 20.2148V19.5006ZM17.7144 19.5006C17.7144 19.4058 17.752 19.315 17.819 19.248C17.8859 19.181 17.9768 19.1434 18.0715 19.1434C18.1662 19.1434 18.2571 19.181 18.324 19.248C18.391 19.315 18.4286 19.4058 18.4286 19.5006V20.2148C18.4286 20.3096 18.391 20.4004 18.324 20.4674C18.2571 20.5344 18.1662 20.572 18.0715 20.572C17.9768 20.572 17.8859 20.5344 17.819 20.4674C17.752 20.4004 17.7144 20.3096 17.7144 20.2148V19.5006ZM16.2858 19.5006C16.2858 19.4058 16.3234 19.315 16.3904 19.248C16.4574 19.181 16.5482 19.1434 16.6429 19.1434C16.7376 19.1434 16.8285 19.181 16.8955 19.248C16.9624 19.315 17.0001 19.4058 17.0001 19.5006V20.2148C17.0001 20.3096 16.9624 20.4004 16.8955 20.4674C16.8285 20.5344 16.7376 20.572 16.6429 20.572C16.5482 20.572 16.4574 20.5344 16.3904 20.4674C16.3234 20.4004 16.2858 20.3096 16.2858 20.2148V19.5006ZM14.8572 19.5006C14.8572 19.4058 14.8948 19.315 14.9618 19.248C15.0288 19.181 15.1196 19.1434 15.2144 19.1434C15.3091 19.1434 15.3999 19.181 15.4669 19.248C15.5339 19.315 15.5715 19.4058 15.5715 19.5006V20.2148C15.5715 20.3096 15.5339 20.4004 15.4669 20.4674C15.3999 20.5344 15.3091 20.572 15.2144 20.572C15.1196 20.572 15.0288 20.5344 14.9618 20.4674C14.8948 20.4004 14.8572 20.3096 14.8572 20.2148V19.5006ZM7.71436 13.4113V17.0006H22.0001V12.7148H10.2079C9.43701 13.1249 8.58619 13.3625 7.71436 13.4113ZM19.1429 14.5006C19.1429 14.4058 19.1806 14.315 19.2475 14.248C19.3145 14.181 19.4053 14.1434 19.5001 14.1434C19.5948 14.1434 19.6856 14.181 19.7526 14.248C19.8196 14.315 19.8572 14.4058 19.8572 14.5006V15.2148C19.8572 15.3096 19.8196 15.4004 19.7526 15.4674C19.6856 15.5344 19.5948 15.572 19.5001 15.572C19.4053 15.572 19.3145 15.5344 19.2475 15.4674C19.1806 15.4004 19.1429 15.3096 19.1429 15.2148V14.5006ZM17.7144 14.5006C17.7144 14.4058 17.752 14.315 17.819 14.248C17.8859 14.181 17.9768 14.1434 18.0715 14.1434C18.1662 14.1434 18.2571 14.181 18.324 14.248C18.391 14.315 18.4286 14.4058 18.4286 14.5006V15.2148C18.4286 15.3096 18.391 15.4004 18.324 15.4674C18.2571 15.5344 18.1662 15.572 18.0715 15.572C17.9768 15.572 17.8859 15.5344 17.819 15.4674C17.752 15.4004 17.7144 15.3096 17.7144 15.2148V14.5006ZM16.2858 14.5006C16.2858 14.4058 16.3234 14.315 16.3904 14.248C16.4574 14.181 16.5482 14.1434 16.6429 14.1434C16.7376 14.1434 16.8285 14.181 16.8955 14.248C16.9624 14.315 17.0001 14.4058 17.0001 14.5006V15.2148C17.0001 15.3096 16.9624 15.4004 16.8955 15.4674C16.8285 15.5344 16.7376 15.572 16.6429 15.572C16.5482 15.572 16.4574 15.5344 16.3904 15.4674C16.3234 15.4004 16.2858 15.3096 16.2858 15.2148V14.5006ZM14.8572 14.5006C14.8572 14.4058 14.8948 14.315 14.9618 14.248C15.0288 14.181 15.1196 14.1434 15.2144 14.1434C15.3091 14.1434 15.3999 14.181 15.4669 14.248C15.5339 14.315 15.5715 14.4058 15.5715 14.5006V15.2148C15.5715 15.3096 15.5339 15.4004 15.4669 15.4674C15.3999 15.5344 15.3091 15.572 15.2144 15.572C15.1196 15.572 15.0288 15.5344 14.9618 15.4674C14.8948 15.4004 14.8572 15.3096 14.8572 15.2148V14.5006ZM11.2615 12.0006H22.0001V7.71484H13.4108C13.363 8.53792 13.1476 9.34257 12.7779 10.0795C12.4082 10.8164 11.8927 11.4701 11.2615 12.0006ZM19.1429 9.50056C19.1429 9.40584 19.1806 9.315 19.2475 9.24802C19.3145 9.18104 19.4053 9.14342 19.5001 9.14342C19.5948 9.14342 19.6856 9.18104 19.7526 9.24802C19.8196 9.315 19.8572 9.40584 19.8572 9.50056V10.2148C19.8572 10.3096 19.8196 10.4004 19.7526 10.4674C19.6856 10.5344 19.5948 10.572 19.5001 10.572C19.4053 10.572 19.3145 10.5344 19.2475 10.4674C19.1806 10.4004 19.1429 10.3096 19.1429 10.2148V9.50056ZM17.7144 9.50056C17.7144 9.40584 17.752 9.315 17.819 9.24802C17.8859 9.18104 17.9768 9.14342 18.0715 9.14342C18.1662 9.14342 18.2571 9.18104 18.324 9.24802C18.391 9.315 18.4286 9.40584 18.4286 9.50056V10.2148C18.4286 10.3096 18.391 10.4004 18.324 10.4674C18.2571 10.5344 18.1662 10.572 18.0715 10.572C17.9768 10.572 17.8859 10.5344 17.819 10.4674C17.752 10.4004 17.7144 10.3096 17.7144 10.2148V9.50056ZM16.2858 9.50056C16.2858 9.40584 16.3234 9.315 16.3904 9.24802C16.4574 9.18104 16.5482 9.14342 16.6429 9.14342C16.7376 9.14342 16.8285 9.18104 16.8955 9.24802C16.9624 9.315 17.0001 9.40584 17.0001 9.50056V10.2148C17.0001 10.3096 16.9624 10.4004 16.8955 10.4674C16.8285 10.5344 16.7376 10.572 16.6429 10.572C16.5482 10.572 16.4574 10.5344 16.3904 10.4674C16.3234 10.4004 16.2858 10.3096 16.2858 10.2148V9.50056ZM14.8572 9.50056C14.8572 9.40584 14.8948 9.315 14.9618 9.24802C15.0288 9.18104 15.1196 9.14342 15.2144 9.14342C15.3091 9.14342 15.3999 9.18104 15.4669 9.24802C15.5339 9.315 15.5715 9.40584 15.5715 9.50056V10.2148C15.5715 10.3096 15.5339 10.4004 15.4669 10.4674C15.3999 10.5344 15.3091 10.572 15.2144 10.572C15.1196 10.572 15.0288 10.5344 14.9618 10.4674C14.8948 10.4004 14.8572 10.3096 14.8572 10.2148V9.50056ZM19.8572 2.71484H11.2615C11.8925 3.24534 12.4087 3.89907 12.7782 4.63599C13.1478 5.37292 13.363 6.17754 13.4108 7.00056H22.0001V4.8577C22.0001 3.67627 21.0386 2.71484 19.8572 2.71484ZM15.5715 5.21484C15.5715 5.30956 15.5339 5.4004 15.4669 5.46738C15.3999 5.53436 15.3091 5.57199 15.2144 5.57199C15.1196 5.57199 15.0288 5.53436 14.9618 5.46738C14.8948 5.4004 14.8572 5.30956 14.8572 5.21484V4.50056C14.8572 4.40584 14.8948 4.315 14.9618 4.24802C15.0288 4.18104 15.1196 4.14342 15.2144 4.14342C15.3091 4.14342 15.3999 4.18104 15.4669 4.24802C15.5339 4.315 15.5715 4.40584 15.5715 4.50056V5.21484ZM17.0001 5.21484C17.0001 5.30956 16.9624 5.4004 16.8955 5.46738C16.8285 5.53436 16.7376 5.57199 16.6429 5.57199C16.5482 5.57199 16.4574 5.53436 16.3904 5.46738C16.3234 5.4004 16.2858 5.30956 16.2858 5.21484V4.50056C16.2858 4.40584 16.3234 4.315 16.3904 4.24802C16.4574 4.18104 16.5482 4.14342 16.6429 4.14342C16.7376 4.14342 16.8285 4.18104 16.8955 4.24802C16.9624 4.315 17.0001 4.40584 17.0001 4.50056V5.21484ZM18.4286 5.21484C18.4286 5.30956 18.391 5.4004 18.324 5.46738C18.2571 5.53436 18.1662 5.57199 18.0715 5.57199C17.9768 5.57199 17.8859 5.53436 17.819 5.46738C17.752 5.4004 17.7144 5.30956 17.7144 5.21484V4.50056C17.7144 4.40584 17.752 4.315 17.819 4.24802C17.8859 4.18104 17.9768 4.14342 18.0715 4.14342C18.1662 4.14342 18.2571 4.18104 18.324 4.24802C18.391 4.315 18.4286 4.40584 18.4286 4.50056V5.21484ZM19.8572 5.21484C19.8572 5.30956 19.8196 5.4004 19.7526 5.46738C19.6856 5.53436 19.5948 5.57199 19.5001 5.57199C19.4053 5.57199 19.3145 5.53436 19.2475 5.46738C19.1806 5.4004 19.1429 5.30956 19.1429 5.21484V4.50056C19.1429 4.40584 19.1806 4.315 19.2475 4.24802C19.3145 4.18104 19.4053 4.14342 19.5001 4.14342C19.5948 4.14342 19.6856 4.18104 19.7526 4.24802C19.8196 4.315 19.8572 4.40584 19.8572 4.50056V5.21484Z" fill="currentColor" stroke="currentColor" stroke-width="32" mask="url(#path-1-inside-1_4275_29373)"/>
<path d="M6.89571 9.75286L7.14826 9.50031L7.35714 9.29143L8.32429 8.32429L9.29143 7.35714L9.92335 6.72522C9.97386 6.93033 10 7.14239 10 7.35714C10 7.39183 9.99932 7.42645 9.99796 7.46098C9.97327 8.08964 9.72498 8.68906 9.29791 9.15106C9.27445 9.17644 9.25045 9.2014 9.22592 9.22592C8.79588 9.65597 8.23289 9.92251 7.63355 9.98552C7.54214 9.99512 7.44989 10 7.35714 10C7.2831 10 7.20937 9.99689 7.13614 9.99075L6.89571 9.75286ZM6.89571 9.75286C6.86264 9.78629 6.82326 9.81283 6.77985 9.83094C6.73645 9.84905 6.68989 9.85838 6.64286 9.85838C6.59583 9.85838 6.54926 9.84905 6.50586 9.83094C6.46246 9.81283 6.42308 9.78629 6.39 9.75286M6.89571 9.75286L7.13337 9.99052C7.03047 9.98178 6.92854 9.96704 6.82808 9.94651C6.76574 9.93378 6.70396 9.91881 6.64286 9.90165C6.59329 9.88774 6.54417 9.87238 6.49556 9.85562C6.44464 9.83806 6.39427 9.81895 6.34454 9.79832L6.39 9.75286M6.39 9.75286L6.1374 9.50026L5.67571 9.03857L4.86015 8.22301C4.98984 8.597 5.20314 8.9407 5.48836 9.22592C5.6454 9.38296 5.82016 9.51819 6.00794 9.62967C6.11601 9.69383 6.2284 9.75012 6.3442 9.79818L6.39 9.75286ZM6.64264 8.99479L6.64286 8.995L7.0065 8.63129L7.35714 8.28059L7.81882 7.81882L8.28042 7.35714L6.64264 8.99479ZM6.64264 8.99479L6.27916 8.63117L6.18116 8.53313L5.22512 7.57673L5.00562 7.35714L4.75286 7.10429C4.7474 7.09883 4.74178 7.09356 4.73602 7.0885L4.72872 7.0812C4.72869 7.08153 4.72865 7.08185 4.72862 7.08218L6.64264 8.99479Z" fill="currentColor" stroke="currentColor" stroke-width="16"/>
</g>
<defs>
<clipPath id="clip0_4275_29373">
<rect width="18" height="18" fill="white"/>
</clipPath>
</defs>
</svg>
