<svg width="135" height="55" viewBox="0 0 135 55" fill="none" xmlns="http://www.w3.org/2000/svg">
<path fill-rule="evenodd" clip-rule="evenodd" d="M45.3276 0V39.7453H15.1928V0H45.3276Z" fill="white"/>
<path fill-rule="evenodd" clip-rule="evenodd" d="M15.1927 39.7456V28.2461C17.7312 27.5886 17.9487 26.3651 18.641 22.8876C19.0859 22.8876 19.4595 22.7561 19.7401 22.5397C20.3294 23.2638 20.2116 24.519 20.688 25.3796C21.2376 26.7013 22.3499 26.3002 23.0705 25.3596C23.3975 25.9256 24.1563 25.5045 24.4518 25.1749C25.0926 24.479 25.6621 23.0574 25.8065 22.0719C25.9692 22.0137 26.1402 22.0054 26.3229 21.9537C25.7335 22.861 25.1707 25.2814 26.5653 24.7287C27.1347 24.4591 27.4751 23.8864 27.8934 23.3754C28.3317 24.9268 29.5553 23.5851 29.889 22.9026C30.0202 23.3238 30.3805 23.5135 30.7523 23.4936C31.6688 23.3487 32.2383 22.3699 32.2897 20.9882C32.5969 20.8634 32.9903 20.7452 33.3307 20.5405C33.3307 20.9283 33.4419 21.5209 33.1464 21.744C32.7015 22.027 33.153 21.3495 32.7081 21.2513C32.401 21.218 32.1453 22.1319 32.3279 22.3949C32.4856 22.6646 32.9306 22.8027 33.2776 22.7428C34.3384 22.5464 34.5725 21.2363 34.4032 20.3757L34.8349 20.2175C34.7369 20.9733 34.639 21.6641 34.619 22.3549L35.6533 21.9338C35.6085 21.7823 35.4707 21.441 35.5355 21.2563C36.1248 21.9404 37.551 21.7956 38.074 20.9267C38.4342 21.4127 39.2643 21.4327 39.9982 20.6037C40.2406 20.9 40.5344 20.92 40.7702 20.7885C41.4641 20.4073 42.0668 19.0007 42.3075 17.4675L42.9417 17.3027C42.5499 18.19 42.0917 19.3352 42.4702 19.8413C43.0663 20.4655 44.172 19.8413 44.3878 19.1838C44.4459 18.9923 44.597 18.7892 44.7282 18.8159C45.1665 18.8941 44.7547 19.4734 44.0607 19.9795C43.478 20.4006 42.4238 20.8351 41.6136 21.1564L19.5923 28.6656L18.2641 32.1764L41.5671 22.1235C43.6274 21.183 44.7481 20.4606 45.3242 19.3885V39.7439H15.1894L15.1927 39.7456Z" fill="#231F20"/>
<path fill-rule="evenodd" clip-rule="evenodd" d="M34.6922 53.0011C34.5793 52.9462 34.4929 52.8629 34.4298 52.7514C34.3684 52.6399 34.3369 52.515 34.3369 52.3769C34.3369 52.2254 34.38 52.0672 34.4713 51.9058C34.5593 51.7426 34.6872 51.5828 34.8532 51.428C34.6556 51.2965 34.5046 51.1267 34.4 50.917C34.297 50.7072 34.2439 50.4642 34.2439 50.1895C34.2439 49.75 34.3966 49.3822 34.6988 49.0858C35.0026 48.7895 35.3745 48.6397 35.8145 48.6397C36.1183 48.6397 36.4105 48.7046 36.6911 48.8378C36.9716 48.9693 37.1327 49.0359 37.1709 49.0359C37.2572 49.0359 37.3419 49.0093 37.4282 48.956C37.5112 48.9027 37.581 48.8328 37.6308 48.7496C37.6507 48.7146 37.664 48.6813 37.6772 48.6497C37.6889 48.6197 37.6955 48.5898 37.6988 48.5598L37.7038 48.5498C37.7237 48.4699 37.7569 48.4283 37.8101 48.4283C37.8482 48.4283 37.8798 48.4466 37.9014 48.4816C37.9246 48.5182 37.9362 48.5665 37.9362 48.6264C37.9362 48.8694 37.8914 49.0675 37.8018 49.2223C37.7121 49.3772 37.5727 49.5003 37.3817 49.5919C37.4166 49.6668 37.4415 49.7467 37.4598 49.8283C37.478 49.9099 37.4863 49.9947 37.4863 50.0846C37.4863 50.5524 37.3303 50.9286 37.0215 51.2116C36.7127 51.4946 36.2976 51.6344 35.7796 51.6344C35.6551 51.6344 35.5256 51.6228 35.3878 51.5978C35.25 51.5745 35.1753 51.5628 35.1637 51.5628C35.0574 51.5628 34.9595 51.6194 34.8681 51.7293C34.7785 51.8408 34.732 51.964 34.732 52.0989C34.732 52.282 34.83 52.4102 35.0242 52.4784C35.2184 52.5483 35.7364 52.5816 36.5765 52.5816C36.9999 52.5816 37.302 52.6515 37.4847 52.7897C37.664 52.9295 37.7553 53.1576 37.7553 53.4822C37.7553 53.9233 37.5693 54.2679 37.2024 54.5159C36.8339 54.7656 36.3192 54.8905 35.6617 54.8905C35.152 54.8905 34.7436 54.7989 34.4398 54.6175C34.1376 54.4344 33.9849 54.1913 33.9849 53.8884C33.9849 53.6969 34.0413 53.5305 34.1559 53.389C34.2688 53.2458 34.4481 53.1143 34.6955 52.9994L34.6922 53.0011ZM34.9063 50.0014C34.9063 50.4525 34.9893 50.7971 35.1587 51.0368C35.3264 51.2765 35.5671 51.3947 35.8842 51.3947C36.2013 51.3947 36.4238 51.2965 36.5848 51.1034C36.7475 50.9103 36.8272 50.6306 36.8272 50.2661C36.8272 49.8333 36.7392 49.4903 36.5632 49.2373C36.3872 48.9843 36.1515 48.8578 35.8527 48.8578C35.5538 48.8578 35.328 48.961 35.157 49.1641C34.9893 49.3672 34.903 49.6468 34.903 50.0014H34.9063ZM34.9163 53.121C34.7635 53.1792 34.6506 53.2675 34.5809 53.3873C34.5112 53.5072 34.4763 53.6636 34.4763 53.8601C34.4763 54.1231 34.5759 54.3179 34.7735 54.4477C34.9711 54.5775 35.2699 54.6441 35.6684 54.6441C36.1731 54.6441 36.5699 54.5592 36.8554 54.3928C37.1443 54.2246 37.2871 53.9949 37.2871 53.7036C37.2871 53.5471 37.2456 53.4323 37.1626 53.364C37.0796 53.2974 36.9235 53.2575 36.6977 53.2441C36.5915 53.2408 36.4304 53.2358 36.2129 53.2292C35.6335 53.2159 35.2018 53.1792 34.9146 53.1193L34.9163 53.121ZM29.3197 51.8725V49.7833C29.3197 49.6052 29.2848 49.4787 29.2151 49.4005C29.1453 49.3239 29.0291 49.2856 28.8681 49.2856C28.7734 49.2856 28.7054 49.2756 28.6705 49.2556C28.6323 49.2373 28.6141 49.2074 28.6141 49.1691C28.6141 49.1241 28.6273 49.0925 28.6556 49.0709C28.6838 49.0492 28.7386 49.0359 28.8266 49.0292C28.8365 49.0292 28.8465 49.0276 28.8564 49.0243C28.9195 49.0109 28.966 48.9993 28.9959 48.9926C29.1902 48.9227 29.3844 48.8428 29.5787 48.7463C29.7712 48.6514 29.8791 48.6048 29.9024 48.6048C29.9439 48.6048 29.9721 48.6197 29.9871 48.648C30.0037 48.678 30.012 48.7396 30.012 48.8311V49.4171C30.271 49.1774 30.5183 49.0009 30.7574 48.8844C30.9948 48.7679 31.2273 48.7096 31.4547 48.7096C31.6822 48.7096 31.9013 48.7612 32.1055 48.8644C32.3097 48.966 32.4791 49.1108 32.6102 49.2956C32.7248 49.4521 32.8061 49.6418 32.8543 49.8632C32.9024 50.0846 32.9257 50.4375 32.9257 50.9203V51.8841C32.9257 52.1538 32.9456 52.3386 32.9854 52.4301C33.0253 52.5234 33.0983 52.6033 33.2029 52.6682C33.2428 52.6915 33.2843 52.7081 33.3324 52.7198C33.3822 52.7314 33.4354 52.7364 33.4968 52.7364C33.5732 52.7364 33.6279 52.7481 33.6578 52.7697C33.6894 52.793 33.7043 52.833 33.7043 52.8863C33.7043 52.9212 33.691 52.9495 33.6645 52.9712C33.6379 52.9928 33.6014 53.0028 33.5566 53.0028C33.5366 53.0028 33.4304 52.9945 33.2361 52.9778C33.0419 52.9628 32.8576 52.9545 32.6849 52.9545C32.4326 52.9545 32.1918 52.9695 31.9661 52.9978C31.9328 53.0011 31.9129 53.0028 31.9063 53.0028C31.8781 53.0028 31.8532 52.9928 31.8316 52.9712C31.8083 52.9495 31.7967 52.9245 31.7967 52.8979C31.7967 52.8446 31.8382 52.7897 31.9262 52.7281C32.0125 52.6698 32.0723 52.6199 32.1022 52.5766C32.1537 52.5117 32.1885 52.4335 32.2101 52.3369C32.2317 52.242 32.2417 52.0872 32.2417 51.8741V50.7622C32.2417 50.1612 32.1586 49.7417 31.9893 49.5037C31.8233 49.264 31.541 49.1458 31.1476 49.1458C30.789 49.1458 30.5117 49.2357 30.3125 49.4121C30.1132 49.5902 30.0136 49.8383 30.0136 50.1562V51.8841C30.0136 52.1505 30.0369 52.3319 30.08 52.4301C30.1249 52.53 30.2095 52.6132 30.3341 52.6782C30.3706 52.6981 30.4104 52.7115 30.4602 52.7215C30.5084 52.7314 30.5615 52.7364 30.6229 52.7364C30.7225 52.7431 30.7856 52.7581 30.8155 52.7797C30.8437 52.803 30.857 52.838 30.857 52.8863C30.857 52.9212 30.8421 52.9495 30.8155 52.9712C30.7856 52.9928 30.7491 53.0028 30.6993 53.0028C30.6777 53.0028 30.5632 52.9945 30.3573 52.9778C30.1514 52.9628 29.9572 52.9545 29.7729 52.9545C29.5139 52.9545 29.2649 52.9695 29.0208 52.9978C28.9826 53.0011 28.9594 53.0028 28.9494 53.0028C28.9179 53.0028 28.888 52.9928 28.8631 52.9712C28.8382 52.9495 28.8249 52.9245 28.8249 52.8979C28.8249 52.8646 28.8349 52.8363 28.8548 52.8113C28.873 52.788 28.9096 52.7631 28.9594 52.7364C28.9693 52.7298 28.986 52.7198 29.0075 52.7065C29.0773 52.6549 29.1287 52.6132 29.1569 52.5766C29.22 52.4984 29.2649 52.4135 29.2898 52.3203C29.3147 52.227 29.3263 52.0789 29.3263 51.8741L29.3197 51.8725ZM26.8758 51.8741V50.088C26.8758 49.7517 26.8459 49.537 26.7878 49.4404C26.7297 49.3422 26.6185 49.2956 26.4541 49.2956C26.3611 49.2956 26.2914 49.2856 26.2482 49.2656C26.2034 49.2473 26.1818 49.2174 26.1818 49.1791C26.1818 49.1141 26.2598 49.0609 26.4176 49.0193H26.4259C26.4989 49.0059 26.5736 48.9876 26.645 48.966C26.7164 48.9427 26.7911 48.9127 26.8675 48.8778C26.9605 48.8411 27.0767 48.7829 27.2178 48.7063C27.3589 48.6314 27.4519 48.5931 27.4967 48.5931C27.5382 48.5931 27.5665 48.6031 27.5831 48.6231C27.5997 48.6414 27.6063 48.6863 27.6063 48.7546C27.6063 48.7679 27.6046 48.8178 27.603 48.9044C27.5864 49.3888 27.5781 49.8766 27.5781 50.3743V51.8841C27.5781 52.1438 27.6013 52.3236 27.6461 52.4235C27.6943 52.5267 27.7806 52.6099 27.9085 52.6782C27.9466 52.6981 27.9881 52.7115 28.0363 52.7215C28.0828 52.7314 28.1359 52.7364 28.1973 52.7364C28.2953 52.7431 28.3584 52.7581 28.3883 52.7797C28.4165 52.803 28.4314 52.838 28.4314 52.8863C28.4314 52.9179 28.4148 52.9462 28.3833 52.9695C28.3501 52.9911 28.3119 53.0028 28.2621 53.0028C28.2405 53.0028 28.1243 52.9945 27.9184 52.9778C27.7109 52.9628 27.515 52.9545 27.3324 52.9545C27.0667 52.9545 26.8127 52.9695 26.5653 52.9978C26.5271 53.0011 26.5039 53.0028 26.4939 53.0028C26.4624 53.0028 26.4358 52.9928 26.4143 52.9712C26.391 52.9495 26.3794 52.9245 26.3794 52.8979C26.3794 52.8646 26.3893 52.8363 26.4093 52.8113C26.4275 52.788 26.4624 52.7631 26.5139 52.7364C26.5238 52.7298 26.5404 52.7198 26.562 52.7065C26.6317 52.6549 26.6849 52.6132 26.7164 52.5766C26.7762 52.4984 26.8193 52.4135 26.8442 52.3203C26.8692 52.227 26.8808 52.0789 26.8808 51.8758L26.8758 51.8741ZM26.8277 47.2031C26.8277 47.1099 26.8841 46.9967 26.992 46.8652C27.1016 46.7337 27.1896 46.6671 27.2576 46.6671C27.3191 46.6671 27.4054 46.732 27.515 46.8585C27.6246 46.9867 27.6793 47.0916 27.6793 47.1748C27.6793 47.2581 27.6279 47.3596 27.52 47.4894C27.4154 47.6209 27.3207 47.6859 27.2394 47.6859C27.158 47.6859 27.0667 47.6293 26.9704 47.5177C26.8741 47.4079 26.826 47.3013 26.826 47.2015L26.8277 47.2031ZM21.5465 51.8725V47.1265C21.5465 46.7953 21.5166 46.5805 21.4585 46.4807C21.3987 46.3841 21.2908 46.3342 21.1347 46.3342H21.0584C21.0002 46.3342 20.9554 46.3225 20.9222 46.3009C20.8874 46.2792 20.8724 46.2493 20.8724 46.2143C20.8724 46.1744 20.8873 46.1444 20.9189 46.1211C20.9488 46.0978 21.0235 46.0761 21.1414 46.0528C21.1546 46.0495 21.1762 46.0445 21.2028 46.0379C21.3472 45.9996 21.4618 45.9613 21.5481 45.928C21.6593 45.8814 21.7822 45.8181 21.9134 45.7382C22.0445 45.6567 22.1292 45.6167 22.1674 45.6167C22.2089 45.6167 22.2421 45.635 22.2687 45.67C22.2936 45.7066 22.3068 45.7549 22.3068 45.8148C22.3068 45.8248 22.3035 45.8631 22.2969 45.9297C22.2587 46.3924 22.2388 46.8818 22.2388 47.4012V49.4154C22.4978 49.1757 22.7451 48.9993 22.9842 48.8828C23.2216 48.7662 23.4541 48.708 23.6815 48.708C23.909 48.708 24.1281 48.7596 24.3323 48.8628C24.5365 48.9643 24.7059 49.1091 24.8354 49.2939C24.9533 49.4554 25.0363 49.6485 25.0877 49.8782C25.1375 50.1079 25.1608 50.4542 25.1608 50.9186V51.8825C25.1608 52.1638 25.1807 52.3502 25.2189 52.4385C25.2587 52.53 25.3285 52.6066 25.4297 52.6665C25.4696 52.6898 25.5111 52.7065 25.5576 52.7181C25.6041 52.7298 25.6588 52.7348 25.7236 52.7348C25.8033 52.7348 25.8597 52.7464 25.8913 52.7681C25.9228 52.7914 25.9394 52.8313 25.9394 52.8846C25.9394 52.9195 25.9261 52.9478 25.8979 52.9695C25.8697 52.9911 25.8365 53.0011 25.79 53.0011C25.7701 53.0011 25.6638 52.9928 25.4696 52.9761C25.2753 52.9612 25.0894 52.9528 24.9184 52.9528C24.666 52.9528 24.4253 52.9678 24.1945 52.9961C24.1663 52.9994 24.148 53.0011 24.1431 53.0011C24.1148 53.0011 24.0883 52.9911 24.065 52.9695C24.0401 52.9478 24.0268 52.9229 24.0235 52.8962C24.0235 52.8463 24.0683 52.7914 24.158 52.7298C24.2477 52.6682 24.3091 52.6182 24.339 52.575C24.3871 52.51 24.4203 52.4318 24.4419 52.3353C24.4635 52.2404 24.4734 52.0855 24.4734 51.8725V50.7605C24.4734 50.1629 24.3904 49.745 24.2211 49.5037C24.0534 49.264 23.7712 49.1424 23.376 49.1424C23.0191 49.1424 22.7402 49.2323 22.5409 49.4088C22.3417 49.5869 22.2421 49.8349 22.2421 50.1529V51.8808C22.2421 52.1405 22.2653 52.3186 22.3102 52.4201C22.3583 52.5233 22.4446 52.6066 22.5725 52.6748C22.6073 52.6948 22.6489 52.7081 22.697 52.7181C22.7451 52.7281 22.7999 52.7331 22.8597 52.7331C22.9577 52.7398 23.0224 52.7547 23.0506 52.7764C23.0789 52.7997 23.0938 52.8346 23.0938 52.8829C23.0938 52.9179 23.0789 52.9462 23.0506 52.9678C23.0207 52.9895 22.9842 52.9994 22.9344 52.9994C22.9128 52.9994 22.7966 52.9911 22.5874 52.9745C22.3782 52.9595 22.1823 52.9512 21.9997 52.9512C21.7407 52.9512 21.4917 52.9661 21.2476 52.9944C21.2094 52.9978 21.1862 52.9994 21.1762 52.9994C21.1447 52.9994 21.1181 52.9895 21.0965 52.9678C21.0733 52.9462 21.0617 52.9212 21.0617 52.8946C21.0617 52.8613 21.0716 52.833 21.0916 52.808C21.1098 52.7847 21.1447 52.7597 21.1961 52.7331C21.2094 52.7231 21.2294 52.7081 21.2526 52.6898C21.3124 52.6432 21.3572 52.6049 21.3821 52.5733C21.4435 52.4951 21.4867 52.4102 21.5133 52.3169C21.5382 52.2237 21.5514 52.0756 21.5514 51.8708L21.5465 51.8725ZM20.019 49.7201C20.019 49.7833 20.0141 49.8283 20.0024 49.8532C19.9908 49.8782 19.9742 49.8899 19.9526 49.8899C19.9194 49.8899 19.8663 49.8349 19.7899 49.7267C19.7152 49.6185 19.6438 49.5336 19.5807 49.472C19.4429 49.3405 19.2819 49.2357 19.0976 49.1608C18.9117 49.0842 18.7224 49.0476 18.5315 49.0476C18.1729 49.0476 17.8956 49.1857 17.6931 49.4654C17.4922 49.745 17.3909 50.1312 17.3909 50.6256C17.3909 51.2133 17.5403 51.6844 17.8358 52.0406C18.133 52.3968 18.5282 52.5766 19.0196 52.5766C19.3716 52.5766 19.697 52.4817 19.9991 52.292C20.3013 52.1039 20.459 52.009 20.4723 52.009C20.4839 52.009 20.4939 52.014 20.5005 52.0256C20.5072 52.0373 20.5105 52.0523 20.5105 52.0722C20.5105 52.1205 20.4756 52.1871 20.4059 52.2753C20.3362 52.3635 20.2399 52.4551 20.1187 52.5566C19.8912 52.7464 19.6571 52.8846 19.4164 52.9728C19.174 53.061 18.9067 53.1043 18.6079 53.1043C18.0517 53.1043 17.5918 52.9029 17.2315 52.5034C16.8679 52.1039 16.687 51.5995 16.687 50.9902C16.687 50.3477 16.8945 49.8083 17.3096 49.3688C17.7246 48.931 18.236 48.7113 18.8419 48.7113C19.0395 48.7113 19.2271 48.7279 19.4014 48.7596C19.5741 48.7929 19.7152 48.8345 19.8248 48.8894C19.9012 48.9327 19.9543 48.976 19.9809 49.0193C20.0091 49.0625 20.0224 49.1424 20.0224 49.2573V49.7217L20.019 49.7201ZM14.786 51.8741V50.088C14.786 49.7517 14.7561 49.537 14.698 49.4404C14.6382 49.3422 14.527 49.2956 14.3643 49.2956C14.2713 49.2956 14.2016 49.2856 14.1584 49.2656C14.1136 49.2473 14.0904 49.2174 14.0904 49.1791C14.0904 49.1141 14.1684 49.0609 14.3261 49.0193H14.3344C14.4075 49.0059 14.4822 48.9876 14.5536 48.966C14.625 48.9427 14.6997 48.9127 14.776 48.8778C14.869 48.8411 14.9852 48.7829 15.1263 48.7063C15.2675 48.6314 15.3604 48.5931 15.4036 48.5931C15.4451 48.5931 15.4733 48.6031 15.4899 48.6231C15.5065 48.6414 15.5132 48.6863 15.5132 48.7546C15.5132 48.7679 15.5132 48.8178 15.5099 48.9044C15.4933 49.3888 15.485 49.8766 15.485 50.3743V51.8841C15.485 52.1438 15.5082 52.3236 15.553 52.4235C15.6012 52.5267 15.6875 52.6099 15.8153 52.6782C15.8535 52.6981 15.895 52.7115 15.9432 52.7215C15.9897 52.7314 16.0428 52.7364 16.1042 52.7364C16.2022 52.7431 16.2669 52.7581 16.2952 52.7797C16.3234 52.803 16.3383 52.838 16.3383 52.8863C16.3383 52.9179 16.3217 52.9462 16.2902 52.9695C16.257 52.9911 16.2188 53.0028 16.169 53.0028C16.1474 53.0028 16.0312 52.9945 15.8253 52.9778C15.6178 52.9628 15.4219 52.9545 15.2392 52.9545C14.9753 52.9545 14.7196 52.9695 14.4722 52.9978C14.434 53.0011 14.4108 53.0028 14.4008 53.0028C14.3693 53.0028 14.3427 52.9928 14.3211 52.9712C14.2979 52.9495 14.2863 52.9245 14.2863 52.8979C14.2863 52.8646 14.2962 52.8363 14.3162 52.8113C14.3344 52.788 14.3709 52.7631 14.4208 52.7364C14.4307 52.7298 14.4473 52.7198 14.4689 52.7065C14.5386 52.6549 14.5918 52.6132 14.6233 52.5766C14.6831 52.4984 14.7262 52.4135 14.7511 52.3203C14.776 52.227 14.7877 52.0789 14.7877 51.8758L14.786 51.8741ZM14.7395 47.2031C14.7395 47.1099 14.796 46.9967 14.9039 46.8652C15.0135 46.7337 15.1014 46.6671 15.1695 46.6671C15.2309 46.6671 15.3173 46.732 15.4268 46.8585C15.5364 46.9867 15.5929 47.0916 15.5929 47.1748C15.5929 47.2581 15.5398 47.3596 15.4335 47.4894C15.3289 47.6209 15.2343 47.6859 15.1529 47.6859C15.0716 47.6859 14.9803 47.6293 14.884 47.5177C14.7877 47.4079 14.7395 47.3013 14.7395 47.2015V47.2031ZM11.4805 51.8725V49.7584C11.4805 49.6002 11.4423 49.482 11.3659 49.4038C11.2896 49.3239 11.1717 49.2856 11.0106 49.2856C10.9177 49.2856 10.8529 49.2773 10.8197 49.259C10.7832 49.2407 10.7666 49.2107 10.7666 49.1691C10.7666 49.1308 10.7815 49.1008 10.8081 49.0808C10.8363 49.0592 10.9011 49.0392 11.0023 49.0193C11.0223 49.0126 11.0472 49.0059 11.0787 48.9993C11.2331 48.9627 11.3576 48.921 11.4523 48.8778C11.5486 48.8361 11.6664 48.7779 11.8076 48.703C11.9487 48.6281 12.0367 48.5914 12.0715 48.5914C12.1114 48.5914 12.1379 48.6048 12.1512 48.6331C12.1645 48.6597 12.1728 48.7263 12.1728 48.8278V49.482C12.4318 49.1674 12.6294 48.961 12.7655 48.8595C12.9016 48.7596 13.0345 48.708 13.164 48.708C13.315 48.708 13.4562 48.7612 13.5906 48.8678C13.7251 48.9726 13.7915 49.0775 13.7915 49.1757C13.7915 49.2523 13.75 49.3405 13.667 49.4371C13.584 49.5353 13.5126 49.5819 13.4562 49.5819C13.4263 49.5819 13.3466 49.5436 13.2121 49.4604C13.0776 49.3788 12.9448 49.3389 12.8186 49.3389C12.651 49.3389 12.4982 49.4171 12.3637 49.5736C12.2293 49.7301 12.1628 49.9049 12.1628 50.093V51.7276C12.1628 52.0589 12.1877 52.2787 12.2342 52.3968C12.2824 52.5117 12.372 52.6049 12.5032 52.6715C12.5414 52.6915 12.5829 52.7048 12.6294 52.7148C12.6775 52.7248 12.729 52.7298 12.7904 52.7298C12.8884 52.7364 12.9531 52.7514 12.9813 52.7731C13.0096 52.7964 13.0228 52.8313 13.0228 52.8796C13.0228 52.9112 13.0062 52.9395 12.9747 52.9628C12.9415 52.9845 12.9033 52.9961 12.8535 52.9961C12.8319 52.9961 12.7157 52.9878 12.5098 52.9712C12.3023 52.9562 12.1064 52.9478 11.9238 52.9478C11.6581 52.9478 11.4041 52.9628 11.1567 52.9911C11.1186 52.9945 11.0953 52.9961 11.0854 52.9961C11.0538 52.9961 11.0256 52.9861 11.0057 52.9645C10.9824 52.9428 10.9708 52.9179 10.9708 52.8912C10.9708 52.8646 10.9791 52.8413 10.9957 52.8197C11.0106 52.798 11.0488 52.7681 11.1053 52.7298C11.1634 52.6965 11.2049 52.6698 11.2331 52.6465C11.2613 52.6232 11.2846 52.5983 11.3062 52.57C11.3676 52.4917 11.4108 52.4002 11.439 52.292C11.4672 52.1838 11.4805 52.0423 11.4805 51.8675V51.8725ZM6.14285 51.8725V49.7833C6.14285 49.6052 6.10798 49.4787 6.03825 49.4005C5.96852 49.3239 5.85231 49.2856 5.69127 49.2856C5.59664 49.2856 5.52857 49.2756 5.4937 49.2556C5.45552 49.2373 5.43891 49.2074 5.43891 49.1691C5.43891 49.1241 5.4522 49.0925 5.48042 49.0709C5.50864 49.0492 5.56343 49.0359 5.64977 49.0292C5.65973 49.0292 5.66969 49.0276 5.67965 49.0243C5.74274 49.0109 5.78922 48.9993 5.8191 48.9926C6.01335 48.9227 6.2076 48.8428 6.40184 48.7463C6.59443 48.6514 6.70235 48.6048 6.72559 48.6048C6.7671 48.6048 6.79532 48.6197 6.81026 48.648C6.82687 48.678 6.83516 48.7396 6.83516 48.8311V49.4171C7.09416 49.1774 7.34154 49.0009 7.58061 48.8844C7.81803 48.7679 8.05045 48.7096 8.2779 48.7096C8.50535 48.7096 8.72451 48.7612 8.92872 48.8644C9.13293 48.966 9.30227 49.1108 9.43176 49.2956C9.54632 49.4521 9.62768 49.6418 9.67582 49.8632C9.72397 50.0846 9.74721 50.4375 9.74721 50.9203V51.8841C9.74721 52.1538 9.76713 52.3386 9.80698 52.4301C9.84682 52.5234 9.91987 52.6033 10.0245 52.6682C10.0643 52.6915 10.1058 52.7081 10.154 52.7198C10.2038 52.7314 10.2569 52.7364 10.3167 52.7364C10.393 52.7364 10.4478 52.7481 10.4777 52.7697C10.5092 52.793 10.5242 52.833 10.5242 52.8863C10.5242 52.9212 10.5109 52.9495 10.4827 52.9712C10.4561 52.9928 10.4213 53.0028 10.3748 53.0028C10.3548 53.0028 10.2486 52.9945 10.0543 52.9778C9.8601 52.9628 9.67416 52.9545 9.50315 52.9545C9.2508 52.9545 9.01007 52.9695 8.78428 52.9978C8.75107 53.0011 8.73114 53.0028 8.7245 53.0028C8.69628 53.0028 8.67138 52.9928 8.6498 52.9712C8.62656 52.9495 8.61493 52.9245 8.61493 52.8979C8.61493 52.8446 8.65809 52.7897 8.74443 52.7281C8.83076 52.6698 8.89052 52.6199 8.92041 52.5766C8.97188 52.5117 9.00675 52.4335 9.02833 52.3369C9.04991 52.242 9.05987 52.0872 9.05987 51.8741V50.7622C9.05987 50.1612 8.97686 49.7417 8.80752 49.5037C8.64149 49.264 8.35925 49.1458 7.96744 49.1458C7.60883 49.1458 7.33158 49.2357 7.13235 49.4121C6.93312 49.5902 6.83351 49.8383 6.83351 50.1562V51.8841C6.83351 52.1505 6.85675 52.3319 6.89991 52.4301C6.94474 52.53 7.02942 52.6132 7.15393 52.6782C7.19046 52.6981 7.23031 52.7115 7.28011 52.7215C7.32826 52.7314 7.38138 52.7364 7.44115 52.7364C7.54076 52.7431 7.60551 52.7581 7.63373 52.7797C7.66196 52.803 7.6769 52.838 7.6769 52.8863C7.6769 52.9212 7.66196 52.9495 7.63373 52.9712C7.60385 52.9928 7.56733 53.0028 7.51752 53.0028C7.49594 53.0028 7.38139 52.9945 7.17552 52.9778C6.96965 52.9628 6.7754 52.9545 6.59111 52.9545C6.33212 52.9545 6.08308 52.9695 5.83902 52.9978C5.80084 53.0011 5.7776 53.0028 5.76764 53.0028C5.73609 53.0028 5.70621 52.9928 5.68131 52.9712C5.65641 52.9495 5.64312 52.9245 5.64312 52.8979C5.64312 52.8646 5.65308 52.8363 5.673 52.8113C5.69126 52.788 5.72613 52.7631 5.7776 52.7364C5.78756 52.7298 5.80417 52.7198 5.82575 52.7065C5.89548 52.6549 5.94694 52.6132 5.97516 52.5766C6.03825 52.4984 6.08308 52.4135 6.10798 52.3203C6.13288 52.227 6.14451 52.0789 6.14451 51.8741L6.14285 51.8725ZM0.833438 51.6444V47.3529C0.833438 47.0716 0.811856 46.8752 0.772011 46.7587C0.728845 46.6421 0.657452 46.5423 0.551197 46.4574C0.506371 46.4241 0.458224 46.3974 0.405096 46.3791C0.351969 46.3575 0.283903 46.3392 0.200891 46.3225C0.11788 46.3092 0.0630855 46.2926 0.038182 46.2709C0.0132786 46.2493 0 46.2193 0 46.1827C0.00332046 46.1244 0.0166023 46.0845 0.0415057 46.0678C0.0664092 46.0478 0.112896 46.0362 0.187607 46.0329C0.200889 46.0329 0.245714 46.0362 0.322085 46.0429C0.850038 46.0778 1.40788 46.0961 1.9956 46.0961C2.7095 46.0961 3.41841 46.0695 4.12899 46.0179C4.26015 46.0079 4.33818 46.0029 4.36474 46.0029C4.44443 46.0029 4.4959 46.0179 4.5208 46.0445C4.5457 46.0728 4.55733 46.1261 4.55733 46.2027V46.2659C4.55733 46.2659 4.55733 46.2759 4.55235 46.2859C4.54903 46.2942 4.54737 46.3109 4.54737 46.3342L4.48096 47.1465C4.47432 47.2281 4.46269 47.283 4.44775 47.3097C4.43115 47.338 4.40293 47.3529 4.3664 47.3563C4.3249 47.3563 4.29336 47.3413 4.27012 47.3097C4.24853 47.2797 4.23691 47.2347 4.23691 47.1765C4.23691 47.1632 4.23856 47.1432 4.24188 47.1182C4.2452 47.0916 4.24687 47.0733 4.24687 47.0633C4.24687 46.8219 4.1622 46.6521 3.98954 46.5572C3.81853 46.459 3.50475 46.4124 3.04653 46.4124H2.36085C2.03877 46.4124 1.83123 46.4407 1.74158 46.4956C1.65027 46.5506 1.60379 46.6538 1.60379 46.8086V48.8495C1.60379 49.0276 1.62371 49.1358 1.66355 49.1724C1.7034 49.2107 1.79471 49.229 1.93748 49.229H2.74436C3.04321 49.229 3.26235 49.204 3.40015 49.1574C3.53795 49.1091 3.64586 49.0259 3.72223 48.9111C3.76042 48.8545 3.79695 48.7662 3.83347 48.643C3.87166 48.5182 3.9198 48.4566 3.98123 48.4566C4.01609 48.4566 4.04266 48.4766 4.06424 48.5149C4.08582 48.5548 4.09578 48.6081 4.09578 48.6747C4.09578 48.6913 4.08914 48.7979 4.07586 48.9993C4.06424 49.2007 4.0576 49.3971 4.0576 49.5869C4.0576 49.7767 4.07088 49.9598 4.09578 50.1629C4.10242 50.2178 4.10574 50.2528 4.10574 50.2694C4.10574 50.326 4.09246 50.3759 4.06424 50.4159C4.03767 50.4575 4.00613 50.4775 3.97127 50.4775C3.89157 50.4775 3.84011 50.3976 3.81687 50.2428C3.80026 50.1312 3.78366 50.0497 3.76374 49.9947C3.71061 49.8566 3.61266 49.7584 3.47652 49.7018C3.33872 49.6452 3.11957 49.6169 2.82073 49.6169H1.89433C1.77313 49.6169 1.69343 49.6368 1.65691 49.6751C1.61872 49.7151 1.60046 49.8033 1.60046 49.9415V51.9624C1.60046 52.2104 1.65525 52.3769 1.7615 52.4618C1.86942 52.5467 2.08359 52.5883 2.40567 52.5883C2.80081 52.5883 3.18101 52.545 3.5446 52.4584C3.90819 52.3735 4.20204 52.2587 4.42949 52.1139C4.55733 52.029 4.67687 51.9158 4.78644 51.7726C4.89602 51.6294 4.97072 51.5579 5.00891 51.5579C5.03547 51.5579 5.05705 51.5728 5.07034 51.6045C5.08694 51.6328 5.09524 51.6744 5.09524 51.7276C5.09524 51.8209 5.0637 51.9424 5.00393 52.0955C4.94417 52.247 4.86945 52.3802 4.78478 52.4934C4.6337 52.6798 4.4793 52.8113 4.32158 52.8896C4.1622 52.9678 3.96131 53.0044 3.72058 53.0044C3.65749 53.0044 3.43336 52.9945 3.04653 52.9761C2.66301 52.9562 2.3127 52.9462 1.9956 52.9462C1.42946 52.9462 0.894861 52.9661 0.391812 53.0044C0.318762 53.0111 0.272274 53.0144 0.255672 53.0144C0.234089 53.0144 0.21085 53.0028 0.187607 52.9778C0.162703 52.9528 0.151087 52.9262 0.151087 52.8996C0.151087 52.8579 0.162702 52.823 0.185945 52.7947C0.207528 52.7664 0.255677 52.7348 0.333708 52.7015C0.340349 52.6981 0.346989 52.6948 0.35363 52.6915C0.471506 52.6399 0.557837 52.5849 0.612625 52.5217C0.695637 52.4351 0.755403 52.3352 0.786947 52.2187C0.821812 52.1055 0.836752 51.9158 0.836752 51.6511L0.833438 51.6444Z" fill="#231F20"/>
<path fill-rule="evenodd" clip-rule="evenodd" d="M57.8573 52.5349L57.8473 51.7126C57.8473 51.641 57.8573 51.5877 57.8789 51.5561C57.9005 51.5211 57.932 51.5045 57.9719 51.5045C58.0333 51.5045 58.0765 51.5777 58.103 51.7275C58.1246 51.8424 58.1479 51.9373 58.1694 52.0072C58.2591 52.2685 58.3836 52.465 58.5479 52.5981C58.7107 52.7313 58.9099 52.7996 59.1423 52.7996C59.3897 52.7996 59.5906 52.723 59.7483 52.5699C59.906 52.4167 59.9857 52.2203 59.9857 51.9772C59.9857 51.6843 59.6902 51.3996 59.0992 51.1216C58.9879 51.0683 58.9016 51.0267 58.8418 50.9951C58.5181 50.8436 58.289 50.6821 58.1512 50.5073C58.0134 50.3359 57.9453 50.1245 57.9453 49.8764C57.9453 49.5252 58.0615 49.2455 58.2956 49.0375C58.528 48.8294 58.8451 48.7262 59.2453 48.7262C59.5574 48.7262 59.7998 48.7578 59.9708 48.821C60.1401 48.886 60.2281 48.9759 60.2298 49.0924L60.2397 49.6484C60.2397 49.7116 60.2331 49.7533 60.2198 49.7799C60.2065 49.8049 60.1849 49.8182 60.1517 49.8182C60.1019 49.8182 60.0621 49.7666 60.0322 49.6667C60.0023 49.5652 59.9758 49.4936 59.9459 49.4503C59.8413 49.2988 59.7118 49.179 59.5574 49.0957C59.4046 49.0092 59.2469 48.9659 59.0826 48.9659C58.8784 48.9659 58.714 49.0191 58.5911 49.1257C58.4683 49.2306 58.4068 49.3721 58.4068 49.5468C58.4068 49.8581 58.7837 50.1777 59.5341 50.5057C59.5873 50.5273 59.6288 50.5456 59.6587 50.5589C59.9326 50.6821 60.1351 50.8336 60.2646 51.0134C60.3941 51.1949 60.4589 51.4162 60.4589 51.6826C60.4589 52.0888 60.3261 52.4234 60.0621 52.6897C59.7964 52.9544 59.4611 53.0892 59.0543 53.0892C58.8153 53.0892 58.548 53.0143 58.2491 52.8662C58.1694 52.8279 58.1163 52.8046 58.0897 52.7979C58.0748 52.7946 58.0516 52.7896 58.0217 52.7829C57.9104 52.7613 57.8556 52.6781 57.8556 52.5316L57.8573 52.5349ZM54.1467 50.4641C54.1467 51.1066 54.2911 51.6177 54.5784 52.0022C54.8639 52.3834 55.2524 52.5749 55.7355 52.5749C56.1008 52.5749 56.4727 52.4433 56.8479 52.1837C56.9492 52.1171 57.0139 52.0821 57.0388 52.0821C57.0687 52.0821 57.0869 52.0854 57.0952 52.0938C57.1035 52.1021 57.1069 52.1204 57.1069 52.1504C57.1069 52.187 57.0903 52.2353 57.0554 52.2852C57.0222 52.3368 56.9674 52.3967 56.8894 52.4683C56.6569 52.6847 56.4129 52.8445 56.1572 52.9477C55.9032 53.0509 55.6243 53.1025 55.3238 53.1025C54.8008 53.1025 54.3575 52.8995 53.994 52.4949C53.632 52.0904 53.4511 51.5944 53.4511 51.0084C53.4511 50.3825 53.6337 49.8415 54.0022 49.3904C54.3692 48.9359 54.8041 48.7095 55.3055 48.7095C55.5944 48.7095 55.8567 48.7678 56.0858 48.8826C56.3166 48.9992 56.5192 49.174 56.6935 49.407C56.8097 49.5518 56.896 49.7 56.9575 49.8515C57.0172 50.003 57.0488 50.1461 57.0488 50.2776C57.0488 50.3525 57.0322 50.4025 57.0006 50.4274C56.9674 50.4524 56.8745 50.4657 56.7167 50.4657H54.1434L54.1467 50.4641ZM54.1666 50.2077H55.5131C55.8385 50.2077 56.0427 50.1927 56.124 50.1644C56.2054 50.1345 56.2469 50.0795 56.2469 49.9996C56.2469 49.725 56.1406 49.4836 55.9265 49.2722C55.7123 49.0624 55.4599 48.9592 55.1694 48.9592C54.8954 48.9592 54.6697 49.0691 54.4904 49.2905C54.3144 49.5119 54.2064 49.8182 54.1683 50.206L54.1666 50.2077ZM50.4942 52.8995L49.1627 49.68C49.093 49.5169 49.0249 49.392 48.9635 49.3088C48.9004 49.2239 48.829 49.1606 48.746 49.1157C48.7227 49.1024 48.6845 49.0857 48.6264 49.0658C48.5334 49.0375 48.487 48.9942 48.487 48.9359C48.487 48.901 48.5019 48.8727 48.5285 48.851C48.5584 48.8294 48.5982 48.821 48.6497 48.821C48.6812 48.821 48.7426 48.8277 48.8339 48.8394C48.9253 48.8527 49 48.8593 49.0614 48.8593C49.2573 48.8593 49.4781 48.8527 49.7255 48.8394C49.9729 48.8277 50.1223 48.821 50.1738 48.821C50.2452 48.821 50.29 48.8277 50.3099 48.8427C50.3315 48.8577 50.3414 48.886 50.3414 48.9276C50.3414 48.9975 50.2551 49.0474 50.0775 49.0724C50.0609 49.0757 50.0526 49.0774 50.0492 49.0774C49.9729 49.0941 49.9131 49.1257 49.8699 49.1706C49.8284 49.2156 49.8085 49.2688 49.8085 49.3354C49.8085 49.3571 49.8118 49.3804 49.8168 49.402C49.8218 49.4237 49.8284 49.452 49.8384 49.4836L50.8495 52.0005C50.8628 52.0272 50.8727 52.0405 50.8794 52.0488C50.8843 52.0555 50.8943 52.0605 50.9076 52.0638C50.9176 52.0638 50.9292 52.0588 50.9441 52.0471C50.9591 52.0355 50.9707 52.0205 50.979 52.0005L51.7211 50.3742C51.8041 50.1944 51.8672 50.0279 51.9087 49.8731C51.9502 49.72 51.9701 49.5768 51.9701 49.4453C51.9701 49.3338 51.9469 49.2505 51.9054 49.1989C51.8639 49.1457 51.7776 49.1074 51.653 49.0774C51.6348 49.0741 51.6065 49.0691 51.5717 49.0624C51.4438 49.0474 51.3808 49.0042 51.3808 48.9376C51.3808 48.896 51.3924 48.866 51.4156 48.8477C51.4372 48.8294 51.4737 48.821 51.5252 48.821C51.565 48.821 51.658 48.8277 51.8091 48.8394C51.9585 48.8527 52.0913 48.8593 52.2059 48.8593C52.3088 48.8593 52.4267 48.8527 52.5612 48.8394C52.6957 48.8277 52.7803 48.821 52.8152 48.821C52.8683 48.821 52.9048 48.8327 52.9331 48.8543C52.9613 48.876 52.9729 48.9126 52.9729 48.9609C52.9696 49.0158 52.9331 49.0524 52.8584 49.0658C52.8152 49.0757 52.7836 49.0857 52.7571 49.0957C52.7023 49.1157 52.6558 49.149 52.6126 49.1973C52.5711 49.2455 52.518 49.3388 52.4499 49.4736L50.8495 52.9028C50.8163 52.9744 50.788 53.0193 50.7631 53.0443C50.7382 53.0692 50.7084 53.0809 50.6735 53.0809C50.6021 53.0809 50.5473 53.0326 50.5091 52.9361C50.5058 52.9228 50.5008 52.9094 50.4942 52.8995ZM46.7969 51.874V50.0879C46.7969 49.7516 46.767 49.5369 46.7089 49.4403C46.6508 49.3421 46.5395 49.2955 46.3752 49.2955C46.2822 49.2955 46.2141 49.2855 46.1693 49.2655C46.1245 49.2472 46.1012 49.2172 46.1012 49.179C46.1012 49.114 46.1793 49.0608 46.337 49.0191H46.3453C46.4183 49.0058 46.493 48.9875 46.5644 48.9659C46.6358 48.9426 46.7105 48.9126 46.7869 48.8777C46.8799 48.841 46.9961 48.7828 47.1372 48.7062C47.2783 48.6313 47.3713 48.593 47.4161 48.593C47.456 48.593 47.4859 48.603 47.5025 48.623C47.5191 48.6413 47.5257 48.6862 47.5257 48.7545C47.5257 48.7678 47.5257 48.8177 47.5224 48.9043C47.5058 49.3887 47.4975 49.8764 47.4975 50.3742V51.884C47.4975 52.1437 47.5207 52.3235 47.5656 52.4234C47.6137 52.5266 47.7 52.6098 47.8279 52.6781C47.866 52.698 47.9076 52.7114 47.9557 52.7213C48.0005 52.7313 48.0553 52.7363 48.1151 52.7363C48.213 52.743 48.2778 52.758 48.306 52.7796C48.3342 52.8029 48.3475 52.8379 48.3475 52.8861C48.3475 52.9178 48.3309 52.9461 48.2994 52.9694C48.2662 52.991 48.228 53.0027 48.1782 53.0027C48.1566 53.0027 48.0404 52.9943 47.8345 52.9777C47.627 52.9627 47.4294 52.9544 47.2484 52.9544C46.9828 52.9544 46.7288 52.9694 46.4814 52.9977C46.4432 53.001 46.4183 53.0027 46.41 53.0027C46.3785 53.0027 46.3503 52.9927 46.3303 52.971C46.3071 52.9494 46.2955 52.9244 46.2955 52.8978C46.2955 52.8645 46.3054 52.8362 46.3253 52.8112C46.3436 52.7879 46.3801 52.763 46.4299 52.7363C46.4399 52.7297 46.4565 52.7197 46.4781 52.7064C46.5478 52.6548 46.601 52.6131 46.6308 52.5765C46.6906 52.4983 46.7338 52.4134 46.7587 52.3202C46.7836 52.2269 46.7952 52.0788 46.7952 51.8757L46.7969 51.874ZM46.7487 47.203C46.7487 47.1098 46.8052 46.9966 46.9131 46.8651C47.0226 46.7336 47.1106 46.667 47.1787 46.667C47.2401 46.667 47.3248 46.7319 47.436 46.8584C47.5456 46.9866 47.6004 47.0915 47.6004 47.1747C47.6004 47.2579 47.5473 47.3595 47.441 47.4893C47.3364 47.6208 47.2418 47.6858 47.1604 47.6858C47.0791 47.6858 46.9878 47.6292 46.8915 47.5176C46.7952 47.4078 46.747 47.3012 46.747 47.2013L46.7487 47.203ZM41.6385 51.6443V47.3528C41.6385 47.0549 41.6169 46.8534 41.5738 46.7486C41.5323 46.642 41.4576 46.5455 41.3513 46.4572C41.3032 46.419 41.2517 46.3873 41.1953 46.364C41.1405 46.3424 41.0757 46.3274 41.006 46.3207C41.001 46.3174 40.9927 46.3141 40.9827 46.3108C40.8831 46.2841 40.8333 46.2408 40.8333 46.1809C40.8333 46.121 40.8449 46.0827 40.8698 46.066C40.8947 46.0461 40.9429 46.0344 41.0209 46.0311C41.0541 46.0311 41.172 46.0411 41.3812 46.0627C41.5887 46.0844 41.7796 46.0943 41.9523 46.0943C42.2545 46.0943 42.5599 46.076 42.8621 46.0411C42.9202 46.0344 42.9534 46.0311 42.9634 46.0311C43.0082 46.0311 43.0414 46.0427 43.0663 46.066C43.0912 46.0877 43.1029 46.121 43.1029 46.1609C43.1029 46.2325 43.0331 46.2924 42.897 46.3357L42.887 46.3407C42.8704 46.3474 42.8505 46.3557 42.8256 46.3657C42.7293 46.404 42.6612 46.4423 42.6197 46.4805C42.5367 46.5555 42.4769 46.647 42.4437 46.7619C42.4089 46.8734 42.3923 47.0698 42.3923 47.3512V51.9556C42.3923 52.1986 42.4454 52.3618 42.5516 52.45C42.6562 52.5382 42.8588 52.5815 43.1593 52.5815C43.5661 52.5815 43.9529 52.5382 44.3215 52.4517C44.6917 52.3668 44.9872 52.2552 45.2113 52.1171C45.3408 52.0288 45.4637 51.914 45.5799 51.7692C45.6945 51.6243 45.7708 51.5511 45.809 51.5511C45.8356 51.5511 45.8572 51.5661 45.8721 51.5977C45.8887 51.626 45.897 51.6676 45.897 51.7209C45.897 51.8108 45.8655 51.9356 45.804 52.0954C45.7426 52.2536 45.6613 52.3984 45.5666 52.5232C45.4321 52.6947 45.2811 52.8162 45.1134 52.8928C44.9457 52.9677 44.7315 53.006 44.4742 53.006C44.3945 53.006 44.1521 52.996 43.747 52.976C43.3436 52.9577 42.98 52.9477 42.6612 52.9477C42.1266 52.9477 41.6269 52.966 41.162 53.001C41.1006 53.0043 41.0641 53.006 41.0525 53.006C41.0259 53.006 41.0043 52.9943 40.9827 52.9694C40.9612 52.9444 40.9512 52.9178 40.9512 52.8911C40.9512 52.8478 40.9628 52.8146 40.9877 52.7863C41.0126 52.758 41.0624 52.7247 41.1438 52.688C41.1504 52.6847 41.1587 52.6814 41.1687 52.6781C41.2766 52.6231 41.3546 52.5699 41.4028 52.5133C41.4891 52.4234 41.5522 52.3185 41.5871 52.2003C41.6252 52.0821 41.6418 51.894 41.6418 51.6443H41.6385Z" fill="#231F20"/>
<path fill-rule="evenodd" clip-rule="evenodd" d="M45.3275 18.4495C45.2295 18.0749 44.7448 17.9567 44.1687 18.4495C43.8416 18.7324 43.7304 19.1469 43.4232 18.7258C43.2987 18.4428 43.8416 17.1344 44.3065 16.7798C44.3065 16.7798 44.0458 16.352 43.9395 16.1822L42.8471 16.4519C42.8471 16.3869 42.8405 16.2937 42.8339 16.2421L41.8842 16.4519C41.7016 17.6088 41.406 19.4832 40.9163 19.6413C40.5112 19.7462 41.1969 17.8469 41.3081 16.913L40.1443 17.1427C40.2289 17.3991 40.2289 17.4457 40.1708 17.6021C39.706 17.2676 38.9008 17.3391 38.1885 18.8057C37.9395 19.3117 37.9594 19.8178 37.9129 20.3771C37.1276 21.1795 36.7225 20.7517 36.3158 20.3172C37.0546 19.9027 37.6639 19.2002 37.6572 18.4311C37.6506 17.8585 36.6761 17.8585 36.2245 18.2214C36.5715 17.5905 36.872 16.9529 36.8786 16.3137C36.8786 15.9325 36.9251 14.8871 36.3872 14.8139C35.6998 14.729 34.9876 19.5015 34.9876 19.5015L34.3401 19.8045C34.3069 19.3184 34.5559 18.7125 34.9478 18.5094L33.9533 18.4711C33.5415 18.8124 33.7707 19.9959 32.2648 20.4038C32.1669 20.1474 31.9959 19.8777 31.6821 19.8844C30.7789 20.0359 30.9234 21.1345 31.5974 21.2394C31.6821 21.6672 31.2239 22.2782 30.9366 22.1733C30.4585 21.8121 30.6096 20.6418 31.028 20.214C31.2438 20.0625 31.2504 19.8328 30.9698 19.8727C30.2759 19.9843 29.6998 21.2461 29.7263 22.095C28.9078 23.1138 28.6405 22.438 28.5542 21.9236C28.9211 21.306 29.9355 18.2813 29.3329 17.3808C29.2681 17.2759 29.0705 17.2559 28.9925 17.3608C27.8735 18.7025 27.7623 20.7733 27.7756 22.3514C27.651 22.6743 27.2127 23.2653 26.8458 23.2653C26.4988 23.2653 26.9703 22.0618 27.2459 21.852L26.9122 21.0896L25.9692 21.2943L25.9892 21.1162L24.8768 21.301C24.9615 22.0767 24.5763 24.3973 24.0517 24.3973C23.7711 24.3973 24.0982 23.3385 24.2941 21.6423L22.946 22.0434L23.1485 22.2798L22.9061 24.3507C22.7882 24.6137 22.5658 24.7452 22.2387 24.7851C21.0931 24.9566 20.8972 22.3664 20.3145 22.135C21.2177 21.2544 22.1723 19.7479 23.0173 18.7558C24.9615 16.928 25.9095 17.0195 25.9493 17.7503C25.9825 18.4744 26.9056 17.8086 26.9969 17.5073C27.3705 16.1006 25.8713 15.5679 24.9283 15.9092C21.4136 17.191 21.1596 21.847 18.7124 22.0834L19.3267 18.0466H18.6526C18.2791 18.6126 17.5004 19.2169 16.7284 18.7691L16.2967 20.7483C16.9974 20.7483 17.8026 20.3006 18.2658 19.8078C17.8208 21.6622 17.8208 25.6191 15.6874 25.7706L15.1894 27.67V0.00341797H45.3242V18.4528L45.3275 18.4495ZM23.2548 21.2228L23.3793 20.2423L24.4003 20.0325L24.2625 21.013L23.2548 21.2228ZM35.8443 18.1199C36.1448 15.9175 36.701 16.2787 35.8443 18.1199V18.1199ZM38.9871 19.6131C38.5156 19.4882 39.105 18.2064 39.5167 18.4095C39.701 18.561 39.3656 18.6725 39.6147 18.7774C39.8238 18.8423 39.8969 18.7774 39.9882 18.7041C39.9301 19.0787 39.4719 19.7429 38.9871 19.6114V19.6131ZM36.1265 19.7246C36.1531 19.3167 35.9954 19.5282 35.5504 19.6913C35.6683 19.4999 36.2311 19.0987 36.4005 19.3167C36.4519 19.4283 36.3473 19.7046 36.1249 19.7246H36.1265ZM31.7485 20.6651C31.604 20.6851 31.5841 20.507 31.702 20.4803C31.8398 20.4604 31.8647 20.6385 31.7485 20.6651ZM28.4363 21.0197C28.4363 20.447 28.5808 19.2834 28.7368 19.1586C28.8813 19.0404 28.448 20.9731 28.4363 21.0197Z" fill="#231F20"/>
<path d="M94.7172 29.9654C94.3119 29.9203 93.9515 29.8303 93.5462 29.7402C92.6904 29.56 92.1499 28.7493 92.24 27.8935C92.3301 26.9477 93.1859 26.3171 94.0867 26.4072C94.1768 26.4072 94.3119 26.4522 94.402 26.4973C94.7172 26.5874 95.0776 26.6324 95.3929 26.6774C97.4197 26.9477 99.0862 26.227 99.7618 24.8758C100.167 24.0651 100.212 23.1193 99.8969 22.1284C99.4916 20.6871 98.1854 19.3359 96.4738 18.5252C95.528 18.0748 94.5821 17.7595 93.7263 17.6694C93.4561 17.6244 93.2309 17.6244 92.9606 17.6244C92.8706 17.6244 92.8255 17.5793 92.8255 17.4892C92.8255 17.3992 92.8706 17.3091 92.9156 17.3091C93.9966 16.9037 95.2127 16.8136 96.3838 16.9488C100.573 17.4892 103.365 20.6871 102.915 24.3804C102.419 27.8935 98.7259 30.4608 94.7172 29.9654Z" fill="#006936"/>
<path d="M94.8975 38.0326C90.4835 38.0326 86.9253 34.4293 86.9253 30.0604C86.9253 29.0245 87.1505 27.9886 87.5108 27.0427C87.5559 26.9527 87.6009 26.9076 87.691 26.9527C87.7811 26.9527 87.8261 27.0427 87.8261 27.1328C88.0964 31.4116 91.6996 34.7446 96.0236 34.7446C98.4558 34.7446 100.798 33.6637 102.329 31.772C102.374 31.7269 102.464 31.6819 102.554 31.7269C102.645 31.772 102.69 31.8621 102.645 31.9521C101.789 35.4653 98.5909 38.0326 94.8975 38.0326Z" fill="#B71614"/>
<path d="M84.7635 30.0112C84.7635 27.3087 86.2498 25.0117 88.5019 23.7956C88.8622 23.5704 89.2675 23.4353 89.6729 23.3002L89.763 23.2551H89.808C90.4386 23.075 91.1593 22.9398 91.8349 22.9398C93.3212 22.9398 94.7175 23.3902 95.8435 24.201C96.2489 24.4712 96.6993 24.4262 96.8795 24.3361C97.7352 24.0658 98.2757 23.2101 98.1856 22.2642C98.1406 21.8138 97.9604 21.3634 97.6452 21.0481C95.7985 19.2465 93.1861 18.4358 90.5737 18.7511C88.2316 19.0664 86.2048 20.2825 84.7635 22.2192C83.3672 24.1559 82.7366 26.5881 83.0519 29.0203C83.4122 31.9028 85.1238 34.5152 87.556 35.9565L87.6461 36.0015L87.7812 35.9114C87.8262 35.8213 87.8262 35.7313 87.7362 35.6412C85.8895 34.4251 84.7635 32.3532 84.7635 30.0112Z" fill="#D95E02"/>
<path d="M68.414 38.0267V16.8578H71.3417V26.1361L80.1697 16.8578H84.1333L74.6747 26.3163L85.1692 38.0267H81.0705L71.3417 26.8117V38.0267H68.414Z" fill="black"/>
<path d="M105.078 38.0267V16.8578H112.194C113.636 16.8578 114.762 16.9479 115.482 17.1281C116.473 17.3983 117.284 17.8487 117.96 18.5694C118.995 19.6503 119.491 21.0015 119.491 22.668C119.491 24.2895 118.95 25.6857 117.824 26.8117C116.608 28.0278 114.491 28.6133 111.429 28.6133H108.005V38.0267H105.078ZM108.005 19.245V26.1812H111.474C112.87 26.1812 113.951 26.001 114.626 25.6857C115.798 25.1452 116.383 24.1093 116.383 22.5779C116.383 21.1367 115.843 20.1458 114.807 19.6954C114.221 19.4251 113.32 19.29 112.059 19.29H108.005V19.245Z" fill="black"/>
<path d="M121.697 38.0267V16.8578H124.624V35.4144H134.443V38.0267H121.697Z" fill="black"/>
</svg>
