<svg width="18" height="18" viewBox="0 0 18 18" fill="none" xmlns="http://www.w3.org/2000/svg">
<path d="M12.4375 8.37187C10.1975 8.37187 8.375 10.1944 8.375 12.4344C8.375 14.6744 10.1975 16.4969 12.4375 16.4969C14.6775 16.4969 16.5 14.6744 16.5 12.4344C16.5 10.1944 14.6775 8.37187 12.4375 8.37187ZM14.0575 14.1281C14.0198 14.1768 13.9729 14.2176 13.9194 14.2481C13.866 14.2787 13.807 14.2983 13.7459 14.306C13.6848 14.3137 13.6228 14.3092 13.5634 14.2928C13.5041 14.2764 13.4485 14.2485 13.4 14.2106L11.9938 13.1169C11.9374 13.0731 11.8917 13.017 11.8603 12.9529C11.8289 12.8887 11.8125 12.8183 11.8125 12.7469V10.7156C11.8125 10.5913 11.8619 10.4721 11.9498 10.3842C12.0377 10.2963 12.1569 10.2469 12.2813 10.2469C12.4056 10.2469 12.5248 10.2963 12.6127 10.3842C12.7006 10.4721 12.75 10.5913 12.75 10.7156V12.5175L13.975 13.4706C14.0236 13.5083 14.0644 13.5553 14.0948 13.6088C14.1253 13.6622 14.1449 13.7212 14.1526 13.7823C14.1603 13.8433 14.1558 13.9053 14.1395 13.9647C14.1232 14.024 14.0953 14.0796 14.0575 14.1281ZM9.9 2.49063L4.225 5.35312L1.96875 4.25937L7.54375 1.54688C7.66875 1.48438 7.81875 1.48438 7.95 1.54688L9.9 2.49063ZM13.5313 4.25937L7.75625 7.07813L5.59375 6.02812L5.28125 5.87187L10.9625 3.00937L11.275 3.16562L13.5313 4.25937ZM7.2875 11.1219C7.07182 11.9794 7.07182 12.8769 7.2875 13.7344V13.8219L1.75625 10.9781C1.67945 10.9383 1.61499 10.8782 1.56983 10.8044C1.52467 10.7306 1.50053 10.6459 1.5 10.5594V5.07187L3.84375 6.20937V8.20937C3.84375 8.46562 4.05625 8.67812 4.3125 8.67812C4.56875 8.67812 4.78125 8.46562 4.78125 8.20937V6.67187L5.09375 6.82188L7.29375 7.89062L7.2875 11.1219ZM14.0063 7.35938C13.5125 7.20312 12.9813 7.12187 12.4375 7.12187C10.725 7.12187 9.2 7.93437 8.23125 9.19687V7.88438L14 5.07812C14.0063 5.60312 14.0063 6.62813 14.0063 7.35938Z" fill="currentColor"/>
</svg>
