<svg width="18" height="18" viewBox="0 0 18 18" fill="none" xmlns="http://www.w3.org/2000/svg">
<path d="M7.8145 14.3494C7.8145 14.6046 7.79442 14.8588 7.93244 15.0871C8.12176 15.4003 8.50632 15.5533 8.85871 15.4535C9.21351 15.353 9.44831 15.0275 9.45617 14.6633C9.46089 14.4478 9.36787 14.0456 9.64924 13.9789C10.1496 13.8598 10.6311 13.672 11.0799 13.421L10.4594 12.7201C9.28984 13.0771 8.00732 12.768 7.14808 11.9095C6.25375 11.0158 5.95435 9.65884 6.385 8.45265C6.44778 8.27688 6.67944 8.22462 6.81154 8.3566L8.08208 9.6263C8.41596 9.96029 8.93576 10.028 9.35577 9.79614L9.79114 9.36101C10.023 8.94149 9.95517 8.42253 9.6213 8.08877L8.35076 6.81908C8.21878 6.6871 8.27067 6.45508 8.44681 6.39218C9.65336 5.96189 11.0111 6.26104 11.9054 7.15465C12.7647 8.01341 13.074 9.29508 12.7169 10.4639L13.3665 11.0384C13.6328 10.5144 13.8142 9.95145 13.9039 9.37057C13.9498 9.07177 14.3952 9.16794 14.6049 9.16734C14.8852 9.16661 15.1432 9.0685 15.3159 8.83866C15.7293 8.28874 15.3057 7.53473 14.6441 7.52481C14.4717 7.52227 14.3011 7.53691 14.1295 7.53776C13.9924 7.53836 13.8806 7.49179 13.8502 7.34578C13.6943 6.59991 13.387 5.89394 12.9475 5.27151C12.7504 4.99123 13.2393 4.72316 13.382 4.53723C13.6043 4.24763 13.6352 3.86403 13.4237 3.55798C13.2143 3.25483 12.8208 3.12539 12.4742 3.25544C12.2857 3.3262 12.1485 3.46217 12.0126 3.60564C11.8857 3.73956 11.7035 3.98391 11.4971 3.84347C10.8576 3.409 10.1345 3.11265 9.37404 2.97334C9.09823 2.92229 9.16706 2.57014 9.16633 2.36498C9.16536 2.08832 9.06387 1.83271 8.8379 1.66263C8.29729 1.25581 7.53699 1.66312 7.52441 2.32167C7.52042 2.53083 7.60159 2.92047 7.31671 2.97321C6.53446 3.11685 5.79214 3.42665 5.13986 3.8817C4.87808 4.06388 4.66663 3.67012 4.48046 3.54552C4.13025 3.3112 3.64504 3.38899 3.38302 3.71814C3.15221 4.00811 3.14737 4.43102 3.37153 4.72606C3.5029 4.89893 3.85988 5.09526 3.68738 5.34978C3.22833 6.02445 2.92341 6.79189 2.79426 7.59764C2.74249 7.91712 2.26309 7.78587 2.04885 7.86135C1.71183 7.98014 1.48537 8.31474 1.50074 8.67197C1.51598 9.02774 1.76953 9.34141 2.11381 9.43117C2.33397 9.48863 2.77551 9.35411 2.84011 9.66343C3.00658 10.4648 3.34776 11.2196 3.83932 11.874C4.03577 12.1363 3.6044 12.3787 3.49952 12.584C3.33258 12.9109 3.40794 13.3208 3.67964 13.5671C3.98896 13.8476 4.47138 13.8451 4.78107 13.5671C4.93349 13.4304 5.12087 13.1235 5.36003 13.2738C6.03673 13.7002 6.79756 13.9753 7.59046 14.0804C7.72232 14.0982 7.82006 14.2171 7.8145 14.3494C7.82006 14.2171 7.8145 14.6046 7.8145 14.3494Z" fill="currentColor"/>
<path d="M15.1607 15.5503C15.375 15.5503 15.5488 15.3765 15.5488 15.1621C15.5488 14.9477 15.375 14.7739 15.1607 14.7739C14.9463 14.7739 14.7725 14.9477 14.7725 15.1621C14.7725 15.3765 14.9463 15.5503 15.1607 15.5503Z" fill="currentColor"/>
<path d="M16.0003 14.0577L12.2458 10.738C12.2068 10.7036 12.1791 10.6582 12.1663 10.6078C12.1535 10.5574 12.1562 10.5043 12.174 10.4554C12.5477 9.43118 12.2986 8.27931 11.5397 7.52071C10.8858 6.86735 9.93693 6.59142 9.03111 6.76719L9.98701 7.72249C10.4953 8.23032 10.5916 9.02327 10.2213 9.65086C10.1559 9.76239 9.75693 10.1606 9.64552 10.2264C9.01756 10.5961 8.22437 10.4999 7.71642 9.99224L6.75991 9.03646C6.58402 9.94143 6.86007 10.8897 7.51367 11.5431C8.27288 12.3015 9.42572 12.5504 10.4511 12.1772C10.4999 12.1597 10.5528 12.1571 10.6031 12.1699C10.6533 12.1826 10.6987 12.21 10.7333 12.2487L14.0488 15.9929C14.5614 16.6182 15.5269 16.6771 16.1021 16.1024C16.6719 15.5334 16.6232 14.5671 16.0003 14.0577ZM15.1609 16.0176C14.6885 16.0176 14.3055 15.6346 14.3055 15.1621C14.3055 14.9929 14.3557 14.8276 14.4497 14.6869C14.5437 14.5463 14.6773 14.4367 14.8336 14.3719C14.9899 14.3072 15.1619 14.2903 15.3278 14.3233C15.4937 14.3563 15.6461 14.4378 15.7658 14.5574C15.8854 14.6771 15.9668 14.8295 15.9998 14.9954C16.0328 15.1613 16.0159 15.3333 15.9511 15.4896C15.8864 15.6459 15.7767 15.7795 15.6361 15.8735C15.4954 15.9674 15.3301 16.0176 15.1609 16.0176Z" fill="currentColor"/>
</svg>
