<svg width="18" height="18" viewBox="0 0 18 18" fill="none" xmlns="http://www.w3.org/2000/svg">
<path d="M7.7113 4.88599C6.8146 4.88599 6.23438 5.40027 6.23438 6.14533V10.9981C6.23438 11.7432 6.808 12.3168 7.7113 12.3168H12.9729V4.88599H7.7113ZM11.3904 10.3981H8.49592C8.31131 10.3981 8.16625 10.253 8.16625 10.0684C8.16625 9.88381 8.31131 9.73875 8.49592 9.73875H11.3904C11.5751 9.73875 11.7201 9.88381 11.7201 10.0684C11.7201 10.253 11.5751 10.3981 11.3904 10.3981ZM11.3904 8.94754H8.49592C8.31131 8.94754 8.16625 8.80249 8.16625 8.61787C8.16625 8.43325 8.31131 8.2882 8.49592 8.2882H11.3904C11.5751 8.2882 11.7201 8.43325 11.7201 8.61787C11.7201 8.80249 11.5751 8.94754 11.3904 8.94754ZM11.3904 7.49699H8.49592C8.31131 7.49699 8.16625 7.35193 8.16625 7.16731C8.16625 6.9827 8.31131 6.83764 8.49592 6.83764H11.3904C11.5751 6.83764 11.7201 6.9827 11.7201 7.16731C11.7201 7.35193 11.5751 7.49699 11.3904 7.49699Z" fill="currentColor"/>
<path d="M13.6318 4.88599V12.3168H14.1725C15.0165 12.3168 16.5 11.664 16.5 10.1937V7.16731C16.5 6.0794 15.5703 4.88599 14.2648 4.88599H13.6318Z" fill="currentColor"/>
<path d="M13.1448 13.3052H7.7909C7.51779 13.3052 7.29639 13.5266 7.29639 13.7997C7.29639 14.0728 7.51779 14.2942 7.7909 14.2942H13.1448C13.4179 14.2942 13.6393 14.0728 13.6393 13.7997C13.6393 13.5266 13.4179 13.3052 13.1448 13.3052Z" fill="currentColor"/>
<path d="M12.3598 12.0659H8.5752V13.5428H12.3598V12.0659Z" fill="currentColor"/>
<path d="M5.54826 5.86157H5.08012C4.97816 5.86157 4.89551 5.94423 4.89551 6.04619V11.1561C4.89551 11.2581 4.97816 11.3407 5.08012 11.3407H5.54826C5.65022 11.3407 5.73287 11.2581 5.73287 11.1561V6.04619C5.73287 5.94423 5.65022 5.86157 5.54826 5.86157Z" fill="currentColor"/>
<path d="M3.9723 4.88599H2.87779C2.64838 4.88599 2.4624 5.07196 2.4624 5.30137V11.9014C2.4624 12.1308 2.64838 12.3168 2.87779 12.3168H3.9723C4.20171 12.3168 4.38769 12.1308 4.38769 11.9014V5.30137C4.38769 5.07196 4.20171 4.88599 3.9723 4.88599Z" fill="currentColor"/>
<path d="M2.79891 6.83716H1.82967C1.6476 6.83716 1.5 6.98476 1.5 7.16683C1.5 7.3489 1.6476 7.4965 1.82967 7.4965H2.79891C2.98098 7.4965 3.12858 7.3489 3.12858 7.16683C3.12858 6.98476 2.98098 6.83716 2.79891 6.83716Z" fill="currentColor"/>
<path d="M2.79891 9.67896H1.82967C1.6476 9.67896 1.5 9.82655 1.5 10.0086C1.5 10.1907 1.6476 10.3383 1.82967 10.3383H2.79891C2.98098 10.3383 3.12858 10.1907 3.12858 10.0086C3.12858 9.82655 2.98098 9.67896 2.79891 9.67896Z" fill="currentColor"/>
<path d="M8.56201 5.22848V4.35814L9.49169 3.41528H12.2543V5.49222L8.56201 5.22848Z" fill="currentColor"/>
<path d="M8.56201 5.22848L8.97091 5.22858V4.52968L9.66322 3.82418H11.8391V5.05056L8.58849 4.81979L8.56201 5.22848L8.53574 5.63737L12.2281 5.90111C12.3402 5.9077 12.4522 5.86814 12.538 5.78902C12.6237 5.7099 12.6698 5.60441 12.6698 5.48572V3.40879C12.6698 3.3033 12.6237 3.19121 12.5511 3.11868C12.4786 3.04615 12.3665 3 12.261 3H9.49838C9.38629 3 9.2808 3.04615 9.20168 3.12528L8.272 4.07473C8.19288 4.15385 8.15332 4.25275 8.15332 4.36484V5.23517C8.15332 5.45276 8.31816 5.63078 8.53574 5.64397L8.56211 5.23517L8.56201 5.22848Z" fill="currentColor"/>
</svg>
