<svg width="18" height="18" viewBox="0 0 18 18" fill="none" xmlns="http://www.w3.org/2000/svg">
<path d="M12.1426 1.5H5.85762C3.12762 1.5 1.50012 3.1275 1.50012 5.8575V12.135C1.50012 14.8725 3.12762 16.5 5.85762 16.5H12.1351C14.8651 16.5 16.4926 14.8725 16.4926 12.1425V5.8575C16.5001 3.1275 14.8726 1.5 12.1426 1.5ZM6.83262 12.675C6.83262 12.885 6.66762 13.05 6.45762 13.05H4.36512C4.15512 13.05 3.99012 12.885 3.99012 12.675V9.21C3.99012 8.7375 4.37262 8.355 4.84512 8.355H6.45762C6.66762 8.355 6.83262 8.52 6.83262 8.73V12.675ZM10.4176 12.675C10.4176 12.885 10.2526 13.05 10.0426 13.05H7.95012C7.74012 13.05 7.57512 12.885 7.57512 12.675V5.805C7.57512 5.3325 7.95762 4.95 8.43012 4.95H9.57012C10.0426 4.95 10.4251 5.3325 10.4251 5.805V12.675H10.4176ZM14.0101 12.675C14.0101 12.885 13.8451 13.05 13.6351 13.05H11.5426C11.3326 13.05 11.1676 12.885 11.1676 12.675V10.0125C11.1676 9.8025 11.3326 9.6375 11.5426 9.6375H13.1551C13.6276 9.6375 14.0101 10.02 14.0101 10.4925V12.675Z" fill="currentColor"/>
</svg>
