<svg width="18" height="18" viewBox="0 0 18 18" fill="none" xmlns="http://www.w3.org/2000/svg">
<path d="M15.6756 7.3875L16.1181 14.805C16.1331 15.0075 16.0356 15.1425 15.9831 15.2025C15.9231 15.27 15.7956 15.375 15.5856 15.375H13.5381L15.1581 7.3875H15.6756ZM16.5006 4.5L16.4931 4.515C16.5081 4.695 16.4931 4.8825 16.4481 5.07L10.9206 15.2175C10.7406 15.975 10.0656 16.5 9.28564 16.5H15.5856C16.5531 16.5 17.3181 15.6825 17.2431 14.715L16.5006 4.5Z" fill="currentColor"/>
<path d="M8.58768 1.68102C8.66268 1.38102 8.47518 1.07352 8.17518 0.998523C7.87518 0.931023 7.56768 1.11102 7.49268 1.41102L7.11768 2.96352H8.27268L8.58768 1.68102Z" fill="currentColor"/>
<path d="M13.5381 1.65742C13.6056 1.34992 13.4106 1.05742 13.1031 0.989918C12.8031 0.922418 12.5031 1.11742 12.4356 1.42492L12.0981 2.97742H13.2531L13.5381 1.65742Z" fill="currentColor"/>
<path d="M16.3648 3.99758C16.1173 3.39758 15.5323 2.97008 14.8123 2.97008H13.2523L12.8323 4.91258C12.7723 5.17508 12.5398 5.35508 12.2848 5.35508C12.2473 5.35508 12.2023 5.35508 12.1648 5.34008C11.8648 5.27258 11.6698 4.97258 11.7298 4.67258L12.0973 2.96258H8.27232L7.79982 4.91258C7.73982 5.16758 7.50732 5.34008 7.25232 5.34008C7.20732 5.34008 7.16232 5.33258 7.11732 5.32508C6.81732 5.25008 6.62982 4.95008 6.70482 4.64258L7.10982 2.95508H5.58732C4.85232 2.95508 4.19982 3.43508 3.98232 4.14008L0.824816 14.3026C0.494816 15.3901 1.29732 16.5001 2.42982 16.5001H12.2848C13.0648 16.5001 13.7398 15.9751 13.9198 15.2176L16.4473 5.07008C16.4923 4.88258 16.5073 4.69508 16.4923 4.51508C16.4773 4.33508 16.4398 4.15508 16.3648 3.99758ZM11.0248 12.5626H5.02482C4.71732 12.5626 4.46232 12.3076 4.46232 12.0001C4.46232 11.6926 4.71732 11.4376 5.02482 11.4376H11.0248C11.3323 11.4376 11.5873 11.6926 11.5873 12.0001C11.5873 12.3076 11.3323 12.5626 11.0248 12.5626ZM11.7748 9.56258H5.77482C5.46732 9.56258 5.21232 9.30758 5.21232 9.00008C5.21232 8.69258 5.46732 8.43758 5.77482 8.43758H11.7748C12.0823 8.43758 12.3373 8.69258 12.3373 9.00008C12.3373 9.30758 12.0823 9.56258 11.7748 9.56258Z" fill="currentColor"/>
</svg>
