<svg width="18" height="18" viewBox="0 0 18 18" fill="none" xmlns="http://www.w3.org/2000/svg">
<path d="M8.625 15.75C12.56 15.75 15.75 12.56 15.75 8.625C15.75 4.68997 12.56 1.5 8.625 1.5C4.68997 1.5 1.5 4.68997 1.5 8.625C1.5 12.56 4.68997 15.75 8.625 15.75Z" fill="currentColor"/>
<path d="M15.975 16.4999C15.84 16.4999 15.705 16.4474 15.6075 16.3499L14.2125 14.9549C14.01 14.7524 14.01 14.4224 14.2125 14.2124C14.415 14.0099 14.745 14.0099 14.955 14.2124L16.35 15.6074C16.5525 15.8099 16.5525 16.1399 16.35 16.3499C16.245 16.4474 16.11 16.4999 15.975 16.4999Z" fill="currentColor"/>
</svg>
