<svg width="1em" height="1em" viewBox="0 0 18 19" fill="none" xmlns="http://www.w3.org/2000/svg">
<path d="M4.05029 2.07495H13.9503C14.7753 2.07495 15.4503 2.74995 15.4503 3.57495V5.22494C15.4503 5.82494 15.0753 6.57494 14.7003 6.94994L11.4753 9.79993C11.0253 10.1749 10.7253 10.9249 10.7253 11.5249V14.7499C10.7253 15.1999 10.4253 15.7999 10.0503 16.0249L9.00028 16.6999C8.02528 17.2999 6.67528 16.6249 6.67528 15.4249V11.4499C6.67528 10.9249 6.37528 10.2499 6.07528 9.87493L3.22529 6.87494C2.85029 6.49994 2.55029 5.82494 2.55029 5.37494V3.64995C2.55029 2.74995 3.22529 2.07495 4.05029 2.07495Z" stroke="currentColor" stroke-width="1.5" stroke-miterlimit="10" stroke-linecap="round" stroke-linejoin="round"/>
<path d="M8.19749 2.07495L4.5 7.99994" stroke="currentColor" stroke-width="1.5" stroke-miterlimit="10" stroke-linecap="round" stroke-linejoin="round"/>
</svg>
