<svg width="1em" height="1em" viewBox="0 0 54 54" fill="none" xmlns="http://www.w3.org/2000/svg">
<path d="M47.4068 11.7675C43.7843 11.4075 40.1618 11.1375 36.5168 10.935V10.9125L36.0218 7.9875C35.6843 5.9175 35.1893 2.8125 29.9243 2.8125H24.0293C18.7868 2.8125 18.2918 5.7825 17.9318 7.965L17.4593 10.845C15.3668 10.98 13.2743 11.115 11.1818 11.3175L6.59176 11.7675C5.64676 11.8575 4.97176 12.69 5.06176 13.6125C5.15176 14.535 5.96176 15.21 6.90676 15.12L11.4968 14.67C23.2868 13.5 35.1668 13.95 47.0918 15.1425C47.1593 15.1425 47.2043 15.1425 47.2718 15.1425C48.1268 15.1425 48.8693 14.49 48.9593 13.6125C49.0268 12.69 48.3518 11.8575 47.4068 11.7675Z" fill="currentColor"/>
<path d="M43.2674 18.315C42.7274 17.7525 41.9849 17.4375 41.2199 17.4375H12.7799C12.0149 17.4375 11.2499 17.7525 10.7324 18.315C10.2149 18.8775 9.92242 19.6425 9.96742 20.43L11.3624 43.515C11.6099 46.935 11.9249 51.21 19.7774 51.21H34.2224C42.0749 51.21 42.3899 46.9575 42.6374 43.515L44.0324 20.4525C44.0774 19.6425 43.7849 18.8775 43.2674 18.315ZM30.7349 39.9375H23.2424C22.3199 39.9375 21.5549 39.1725 21.5549 38.25C21.5549 37.3275 22.3199 36.5625 23.2424 36.5625H30.7349C31.6574 36.5625 32.4224 37.3275 32.4224 38.25C32.4224 39.1725 31.6574 39.9375 30.7349 39.9375ZM32.6249 30.9375H21.3749C20.4524 30.9375 19.6874 30.1725 19.6874 29.25C19.6874 28.3275 20.4524 27.5625 21.3749 27.5625H32.6249C33.5474 27.5625 34.3124 28.3275 34.3124 29.25C34.3124 30.1725 33.5474 30.9375 32.6249 30.9375Z" fill="currentColor"/>
</svg>
