<svg width="1em" height="1em" viewBox="0 0 26 26" fill="none" xmlns="http://www.w3.org/2000/svg">
<mask id="path-1-inside-1_4570_21512" fill="white">
<path d="M7.64294 22.8214C7.64294 24.2982 8.84473 25.5 10.3215 25.5H22.8215C24.2983 25.5 25.5001 24.2982 25.5001 22.8214V20.1428H7.64294V22.8214ZM21.9287 22.375C21.9287 22.2566 21.9757 22.143 22.0594 22.0593C22.1431 21.9756 22.2567 21.9285 22.3751 21.9285C22.4935 21.9285 22.607 21.9756 22.6908 22.0593C22.7745 22.143 22.8215 22.2566 22.8215 22.375V23.2678C22.8215 23.3862 22.7745 23.4998 22.6908 23.5835C22.607 23.6672 22.4935 23.7143 22.3751 23.7143C22.2567 23.7143 22.1431 23.6672 22.0594 23.5835C21.9757 23.4998 21.9287 23.3862 21.9287 23.2678V22.375ZM20.1429 22.375C20.1429 22.2566 20.19 22.143 20.2737 22.0593C20.3574 21.9756 20.471 21.9285 20.5894 21.9285C20.7078 21.9285 20.8213 21.9756 20.905 22.0593C20.9888 22.143 21.0358 22.2566 21.0358 22.375V23.2678C21.0358 23.3862 20.9888 23.4998 20.905 23.5835C20.8213 23.6672 20.7078 23.7143 20.5894 23.7143C20.471 23.7143 20.3574 23.6672 20.2737 23.5835C20.19 23.4998 20.1429 23.3862 20.1429 23.2678V22.375ZM18.3572 22.375C18.3572 22.2566 18.4043 22.143 18.488 22.0593C18.5717 21.9756 18.6853 21.9285 18.8037 21.9285C18.9221 21.9285 19.0356 21.9756 19.1193 22.0593C19.2031 22.143 19.2501 22.2566 19.2501 22.375V23.2678C19.2501 23.3862 19.2031 23.4998 19.1193 23.5835C19.0356 23.6672 18.9221 23.7143 18.8037 23.7143C18.6853 23.7143 18.5717 23.6672 18.488 23.5835C18.4043 23.4998 18.3572 23.3862 18.3572 23.2678V22.375ZM16.5715 22.375C16.5715 22.2566 16.6186 22.143 16.7023 22.0593C16.786 21.9756 16.8995 21.9285 17.0179 21.9285C17.1363 21.9285 17.2499 21.9756 17.3336 22.0593C17.4173 22.143 17.4644 22.2566 17.4644 22.375V23.2678C17.4644 23.3862 17.4173 23.4998 17.3336 23.5835C17.2499 23.6672 17.1363 23.7143 17.0179 23.7143C16.8995 23.7143 16.786 23.6672 16.7023 23.5835C16.6186 23.4998 16.5715 23.3862 16.5715 23.2678V22.375ZM7.64294 14.7634V19.25H25.5001V13.8928H10.7599C9.79627 14.4054 8.73274 14.7024 7.64294 14.7634ZM21.9287 16.125C21.9287 16.0066 21.9757 15.893 22.0594 15.8093C22.1431 15.7256 22.2567 15.6785 22.3751 15.6785C22.4935 15.6785 22.607 15.7256 22.6908 15.8093C22.7745 15.893 22.8215 16.0066 22.8215 16.125V17.0178C22.8215 17.1362 22.7745 17.2498 22.6908 17.3335C22.607 17.4172 22.4935 17.4643 22.3751 17.4643C22.2567 17.4643 22.1431 17.4172 22.0594 17.3335C21.9757 17.2498 21.9287 17.1362 21.9287 17.0178V16.125ZM20.1429 16.125C20.1429 16.0066 20.19 15.893 20.2737 15.8093C20.3574 15.7256 20.471 15.6785 20.5894 15.6785C20.7078 15.6785 20.8213 15.7256 20.905 15.8093C20.9888 15.893 21.0358 16.0066 21.0358 16.125V17.0178C21.0358 17.1362 20.9888 17.2498 20.905 17.3335C20.8213 17.4172 20.7078 17.4643 20.5894 17.4643C20.471 17.4643 20.3574 17.4172 20.2737 17.3335C20.19 17.2498 20.1429 17.1362 20.1429 17.0178V16.125ZM18.3572 16.125C18.3572 16.0066 18.4043 15.893 18.488 15.8093C18.5717 15.7256 18.6853 15.6785 18.8037 15.6785C18.9221 15.6785 19.0356 15.7256 19.1193 15.8093C19.2031 15.893 19.2501 16.0066 19.2501 16.125V17.0178C19.2501 17.1362 19.2031 17.2498 19.1193 17.3335C19.0356 17.4172 18.9221 17.4643 18.8037 17.4643C18.6853 17.4643 18.5717 17.4172 18.488 17.3335C18.4043 17.2498 18.3572 17.1362 18.3572 17.0178V16.125ZM16.5715 16.125C16.5715 16.0066 16.6186 15.893 16.7023 15.8093C16.786 15.7256 16.8995 15.6785 17.0179 15.6785C17.1363 15.6785 17.2499 15.7256 17.3336 15.8093C17.4173 15.893 17.4644 16.0066 17.4644 16.125V17.0178C17.4644 17.1362 17.4173 17.2498 17.3336 17.3335C17.2499 17.4172 17.1363 17.4643 17.0179 17.4643C16.8995 17.4643 16.786 17.4172 16.7023 17.3335C16.6186 17.2498 16.5715 17.1362 16.5715 17.0178V16.125ZM12.0769 13H25.5001V7.64282H14.7635C14.7037 8.67167 14.4345 9.67747 13.9724 10.5986C13.5103 11.5198 12.8658 12.3369 12.0769 13ZM21.9287 9.87496C21.9287 9.75657 21.9757 9.64301 22.0594 9.55929C22.1431 9.47557 22.2567 9.42854 22.3751 9.42854C22.4935 9.42854 22.607 9.47557 22.6908 9.55929C22.7745 9.64301 22.8215 9.75657 22.8215 9.87496V10.7678C22.8215 10.8862 22.7745 10.9998 22.6908 11.0835C22.607 11.1672 22.4935 11.2143 22.3751 11.2143C22.2567 11.2143 22.1431 11.1672 22.0594 11.0835C21.9757 10.9998 21.9287 10.8862 21.9287 10.7678V9.87496ZM20.1429 9.87496C20.1429 9.75657 20.19 9.64301 20.2737 9.55929C20.3574 9.47557 20.471 9.42854 20.5894 9.42854C20.7078 9.42854 20.8213 9.47557 20.905 9.55929C20.9888 9.64301 21.0358 9.75657 21.0358 9.87496V10.7678C21.0358 10.8862 20.9888 10.9998 20.905 11.0835C20.8213 11.1672 20.7078 11.2143 20.5894 11.2143C20.471 11.2143 20.3574 11.1672 20.2737 11.0835C20.19 10.9998 20.1429 10.8862 20.1429 10.7678V9.87496ZM18.3572 9.87496C18.3572 9.75657 18.4043 9.64301 18.488 9.55929C18.5717 9.47557 18.6853 9.42854 18.8037 9.42854C18.9221 9.42854 19.0356 9.47557 19.1193 9.55929C19.2031 9.64301 19.2501 9.75657 19.2501 9.87496V10.7678C19.2501 10.8862 19.2031 10.9998 19.1193 11.0835C19.0356 11.1672 18.9221 11.2143 18.8037 11.2143C18.6853 11.2143 18.5717 11.1672 18.488 11.0835C18.4043 10.9998 18.3572 10.8862 18.3572 10.7678V9.87496ZM16.5715 9.87496C16.5715 9.75657 16.6186 9.64301 16.7023 9.55929C16.786 9.47557 16.8995 9.42854 17.0179 9.42854C17.1363 9.42854 17.2499 9.47557 17.3336 9.55929C17.4173 9.64301 17.4644 9.75657 17.4644 9.87496V10.7678C17.4644 10.8862 17.4173 10.9998 17.3336 11.0835C17.2499 11.1672 17.1363 11.2143 17.0179 11.2143C16.8995 11.2143 16.786 11.1672 16.7023 11.0835C16.6186 10.9998 16.5715 10.8862 16.5715 10.7678V9.87496ZM22.8215 1.39282H12.0769C12.8657 2.05594 13.5108 2.8731 13.9728 3.79426C14.4347 4.71542 14.7038 5.72119 14.7635 6.74997H25.5001V4.07139C25.5001 2.59461 24.2983 1.39282 22.8215 1.39282ZM17.4644 4.51782C17.4644 4.63622 17.4173 4.74977 17.3336 4.83349C17.2499 4.91722 17.1363 4.96425 17.0179 4.96425C16.8995 4.96425 16.786 4.91722 16.7023 4.83349C16.6186 4.74977 16.5715 4.63622 16.5715 4.51782V3.62497C16.5715 3.50656 16.6186 3.39301 16.7023 3.30929C16.786 3.22557 16.8995 3.17854 17.0179 3.17854C17.1363 3.17854 17.2499 3.22557 17.3336 3.30929C17.4173 3.39301 17.4644 3.50656 17.4644 3.62497V4.51782ZM19.2501 4.51782C19.2501 4.63622 19.2031 4.74977 19.1193 4.83349C19.0356 4.91722 18.9221 4.96425 18.8037 4.96425C18.6853 4.96425 18.5717 4.91722 18.488 4.83349C18.4043 4.74977 18.3572 4.63622 18.3572 4.51782V3.62497C18.3572 3.50656 18.4043 3.39301 18.488 3.30929C18.5717 3.22557 18.6853 3.17854 18.8037 3.17854C18.9221 3.17854 19.0356 3.22557 19.1193 3.30929C19.2031 3.39301 19.2501 3.50656 19.2501 3.62497V4.51782ZM21.0358 4.51782C21.0358 4.63622 20.9888 4.74977 20.905 4.83349C20.8213 4.91722 20.7078 4.96425 20.5894 4.96425C20.471 4.96425 20.3574 4.91722 20.2737 4.83349C20.19 4.74977 20.1429 4.63622 20.1429 4.51782V3.62497C20.1429 3.50656 20.19 3.39301 20.2737 3.30929C20.3574 3.22557 20.471 3.17854 20.5894 3.17854C20.7078 3.17854 20.8213 3.22557 20.905 3.30929C20.9888 3.39301 21.0358 3.50656 21.0358 3.62497V4.51782ZM22.8215 4.51782C22.8215 4.63622 22.7745 4.74977 22.6908 4.83349C22.607 4.91722 22.4935 4.96425 22.3751 4.96425C22.2567 4.96425 22.1431 4.91722 22.0594 4.83349C21.9757 4.74977 21.9287 4.63622 21.9287 4.51782V3.62497C21.9287 3.50656 21.9757 3.39301 22.0594 3.30929C22.1431 3.22557 22.2567 3.17854 22.3751 3.17854C22.4935 3.17854 22.607 3.22557 22.6908 3.30929C22.7745 3.39301 22.8215 3.50656 22.8215 3.62497V4.51782Z"/>
</mask>
<path d="M7.64294 22.8214C7.64294 24.2982 8.84473 25.5 10.3215 25.5H22.8215C24.2983 25.5 25.5001 24.2982 25.5001 22.8214V20.1428H7.64294V22.8214ZM21.9287 22.375C21.9287 22.2566 21.9757 22.143 22.0594 22.0593C22.1431 21.9756 22.2567 21.9285 22.3751 21.9285C22.4935 21.9285 22.607 21.9756 22.6908 22.0593C22.7745 22.143 22.8215 22.2566 22.8215 22.375V23.2678C22.8215 23.3862 22.7745 23.4998 22.6908 23.5835C22.607 23.6672 22.4935 23.7143 22.3751 23.7143C22.2567 23.7143 22.1431 23.6672 22.0594 23.5835C21.9757 23.4998 21.9287 23.3862 21.9287 23.2678V22.375ZM20.1429 22.375C20.1429 22.2566 20.19 22.143 20.2737 22.0593C20.3574 21.9756 20.471 21.9285 20.5894 21.9285C20.7078 21.9285 20.8213 21.9756 20.905 22.0593C20.9888 22.143 21.0358 22.2566 21.0358 22.375V23.2678C21.0358 23.3862 20.9888 23.4998 20.905 23.5835C20.8213 23.6672 20.7078 23.7143 20.5894 23.7143C20.471 23.7143 20.3574 23.6672 20.2737 23.5835C20.19 23.4998 20.1429 23.3862 20.1429 23.2678V22.375ZM18.3572 22.375C18.3572 22.2566 18.4043 22.143 18.488 22.0593C18.5717 21.9756 18.6853 21.9285 18.8037 21.9285C18.9221 21.9285 19.0356 21.9756 19.1193 22.0593C19.2031 22.143 19.2501 22.2566 19.2501 22.375V23.2678C19.2501 23.3862 19.2031 23.4998 19.1193 23.5835C19.0356 23.6672 18.9221 23.7143 18.8037 23.7143C18.6853 23.7143 18.5717 23.6672 18.488 23.5835C18.4043 23.4998 18.3572 23.3862 18.3572 23.2678V22.375ZM16.5715 22.375C16.5715 22.2566 16.6186 22.143 16.7023 22.0593C16.786 21.9756 16.8995 21.9285 17.0179 21.9285C17.1363 21.9285 17.2499 21.9756 17.3336 22.0593C17.4173 22.143 17.4644 22.2566 17.4644 22.375V23.2678C17.4644 23.3862 17.4173 23.4998 17.3336 23.5835C17.2499 23.6672 17.1363 23.7143 17.0179 23.7143C16.8995 23.7143 16.786 23.6672 16.7023 23.5835C16.6186 23.4998 16.5715 23.3862 16.5715 23.2678V22.375ZM7.64294 14.7634V19.25H25.5001V13.8928H10.7599C9.79627 14.4054 8.73274 14.7024 7.64294 14.7634ZM21.9287 16.125C21.9287 16.0066 21.9757 15.893 22.0594 15.8093C22.1431 15.7256 22.2567 15.6785 22.3751 15.6785C22.4935 15.6785 22.607 15.7256 22.6908 15.8093C22.7745 15.893 22.8215 16.0066 22.8215 16.125V17.0178C22.8215 17.1362 22.7745 17.2498 22.6908 17.3335C22.607 17.4172 22.4935 17.4643 22.3751 17.4643C22.2567 17.4643 22.1431 17.4172 22.0594 17.3335C21.9757 17.2498 21.9287 17.1362 21.9287 17.0178V16.125ZM20.1429 16.125C20.1429 16.0066 20.19 15.893 20.2737 15.8093C20.3574 15.7256 20.471 15.6785 20.5894 15.6785C20.7078 15.6785 20.8213 15.7256 20.905 15.8093C20.9888 15.893 21.0358 16.0066 21.0358 16.125V17.0178C21.0358 17.1362 20.9888 17.2498 20.905 17.3335C20.8213 17.4172 20.7078 17.4643 20.5894 17.4643C20.471 17.4643 20.3574 17.4172 20.2737 17.3335C20.19 17.2498 20.1429 17.1362 20.1429 17.0178V16.125ZM18.3572 16.125C18.3572 16.0066 18.4043 15.893 18.488 15.8093C18.5717 15.7256 18.6853 15.6785 18.8037 15.6785C18.9221 15.6785 19.0356 15.7256 19.1193 15.8093C19.2031 15.893 19.2501 16.0066 19.2501 16.125V17.0178C19.2501 17.1362 19.2031 17.2498 19.1193 17.3335C19.0356 17.4172 18.9221 17.4643 18.8037 17.4643C18.6853 17.4643 18.5717 17.4172 18.488 17.3335C18.4043 17.2498 18.3572 17.1362 18.3572 17.0178V16.125ZM16.5715 16.125C16.5715 16.0066 16.6186 15.893 16.7023 15.8093C16.786 15.7256 16.8995 15.6785 17.0179 15.6785C17.1363 15.6785 17.2499 15.7256 17.3336 15.8093C17.4173 15.893 17.4644 16.0066 17.4644 16.125V17.0178C17.4644 17.1362 17.4173 17.2498 17.3336 17.3335C17.2499 17.4172 17.1363 17.4643 17.0179 17.4643C16.8995 17.4643 16.786 17.4172 16.7023 17.3335C16.6186 17.2498 16.5715 17.1362 16.5715 17.0178V16.125ZM12.0769 13H25.5001V7.64282H14.7635C14.7037 8.67167 14.4345 9.67747 13.9724 10.5986C13.5103 11.5198 12.8658 12.3369 12.0769 13ZM21.9287 9.87496C21.9287 9.75657 21.9757 9.64301 22.0594 9.55929C22.1431 9.47557 22.2567 9.42854 22.3751 9.42854C22.4935 9.42854 22.607 9.47557 22.6908 9.55929C22.7745 9.64301 22.8215 9.75657 22.8215 9.87496V10.7678C22.8215 10.8862 22.7745 10.9998 22.6908 11.0835C22.607 11.1672 22.4935 11.2143 22.3751 11.2143C22.2567 11.2143 22.1431 11.1672 22.0594 11.0835C21.9757 10.9998 21.9287 10.8862 21.9287 10.7678V9.87496ZM20.1429 9.87496C20.1429 9.75657 20.19 9.64301 20.2737 9.55929C20.3574 9.47557 20.471 9.42854 20.5894 9.42854C20.7078 9.42854 20.8213 9.47557 20.905 9.55929C20.9888 9.64301 21.0358 9.75657 21.0358 9.87496V10.7678C21.0358 10.8862 20.9888 10.9998 20.905 11.0835C20.8213 11.1672 20.7078 11.2143 20.5894 11.2143C20.471 11.2143 20.3574 11.1672 20.2737 11.0835C20.19 10.9998 20.1429 10.8862 20.1429 10.7678V9.87496ZM18.3572 9.87496C18.3572 9.75657 18.4043 9.64301 18.488 9.55929C18.5717 9.47557 18.6853 9.42854 18.8037 9.42854C18.9221 9.42854 19.0356 9.47557 19.1193 9.55929C19.2031 9.64301 19.2501 9.75657 19.2501 9.87496V10.7678C19.2501 10.8862 19.2031 10.9998 19.1193 11.0835C19.0356 11.1672 18.9221 11.2143 18.8037 11.2143C18.6853 11.2143 18.5717 11.1672 18.488 11.0835C18.4043 10.9998 18.3572 10.8862 18.3572 10.7678V9.87496ZM16.5715 9.87496C16.5715 9.75657 16.6186 9.64301 16.7023 9.55929C16.786 9.47557 16.8995 9.42854 17.0179 9.42854C17.1363 9.42854 17.2499 9.47557 17.3336 9.55929C17.4173 9.64301 17.4644 9.75657 17.4644 9.87496V10.7678C17.4644 10.8862 17.4173 10.9998 17.3336 11.0835C17.2499 11.1672 17.1363 11.2143 17.0179 11.2143C16.8995 11.2143 16.786 11.1672 16.7023 11.0835C16.6186 10.9998 16.5715 10.8862 16.5715 10.7678V9.87496ZM22.8215 1.39282H12.0769C12.8657 2.05594 13.5108 2.8731 13.9728 3.79426C14.4347 4.71542 14.7038 5.72119 14.7635 6.74997H25.5001V4.07139C25.5001 2.59461 24.2983 1.39282 22.8215 1.39282ZM17.4644 4.51782C17.4644 4.63622 17.4173 4.74977 17.3336 4.83349C17.2499 4.91722 17.1363 4.96425 17.0179 4.96425C16.8995 4.96425 16.786 4.91722 16.7023 4.83349C16.6186 4.74977 16.5715 4.63622 16.5715 4.51782V3.62497C16.5715 3.50656 16.6186 3.39301 16.7023 3.30929C16.786 3.22557 16.8995 3.17854 17.0179 3.17854C17.1363 3.17854 17.2499 3.22557 17.3336 3.30929C17.4173 3.39301 17.4644 3.50656 17.4644 3.62497V4.51782ZM19.2501 4.51782C19.2501 4.63622 19.2031 4.74977 19.1193 4.83349C19.0356 4.91722 18.9221 4.96425 18.8037 4.96425C18.6853 4.96425 18.5717 4.91722 18.488 4.83349C18.4043 4.74977 18.3572 4.63622 18.3572 4.51782V3.62497C18.3572 3.50656 18.4043 3.39301 18.488 3.30929C18.5717 3.22557 18.6853 3.17854 18.8037 3.17854C18.9221 3.17854 19.0356 3.22557 19.1193 3.30929C19.2031 3.39301 19.2501 3.50656 19.2501 3.62497V4.51782ZM21.0358 4.51782C21.0358 4.63622 20.9888 4.74977 20.905 4.83349C20.8213 4.91722 20.7078 4.96425 20.5894 4.96425C20.471 4.96425 20.3574 4.91722 20.2737 4.83349C20.19 4.74977 20.1429 4.63622 20.1429 4.51782V3.62497C20.1429 3.50656 20.19 3.39301 20.2737 3.30929C20.3574 3.22557 20.471 3.17854 20.5894 3.17854C20.7078 3.17854 20.8213 3.22557 20.905 3.30929C20.9888 3.39301 21.0358 3.50656 21.0358 3.62497V4.51782ZM22.8215 4.51782C22.8215 4.63622 22.7745 4.74977 22.6908 4.83349C22.607 4.91722 22.4935 4.96425 22.3751 4.96425C22.2567 4.96425 22.1431 4.91722 22.0594 4.83349C21.9757 4.74977 21.9287 4.63622 21.9287 4.51782V3.62497C21.9287 3.50656 21.9757 3.39301 22.0594 3.30929C22.1431 3.22557 22.2567 3.17854 22.3751 3.17854C22.4935 3.17854 22.607 3.22557 22.6908 3.30929C22.7745 3.39301 22.8215 3.50656 22.8215 3.62497V4.51782Z" fill="currentColor" stroke="currentColor" stroke-width="32" mask="url(#path-1-inside-1_4570_21512)"/>
<mask id="path-2-inside-2_4570_21512" fill="white">
<path d="M13.8929 7.19643C13.8929 5.42043 13.1873 3.71716 11.9315 2.46134C10.6757 1.20551 8.97243 0.5 7.19643 0.5C5.42043 0.5 3.71716 1.20551 2.46134 2.46134C1.20551 3.71716 0.5 5.42043 0.5 7.19643C0.5 8.97243 1.20551 10.6757 2.46134 11.9315C3.71716 13.1873 5.42043 13.8929 7.19643 13.8929C8.97243 13.8929 10.6757 13.1873 11.9315 11.9315C13.1873 10.6757 13.8929 8.97243 13.8929 7.19643ZM6.61964 10.1911C6.57829 10.2329 6.52907 10.266 6.47482 10.2887C6.42056 10.3113 6.36236 10.323 6.30357 10.323C6.24478 10.323 6.18658 10.3113 6.13233 10.2887C6.07807 10.266 6.02885 10.2329 5.9875 10.1911L3.30893 7.5125C3.2251 7.42867 3.17801 7.31498 3.17801 7.19643C3.17801 7.07788 3.2251 6.96418 3.30893 6.88036C3.39276 6.79653 3.50645 6.74944 3.625 6.74944C3.74355 6.74944 3.85724 6.79653 3.94107 6.88036L6.30357 9.24375L11.3446 4.20179C11.3862 4.16028 11.4354 4.12735 11.4897 4.10489C11.5439 4.08243 11.602 4.07086 11.6607 4.07086C11.7194 4.07086 11.7775 4.08243 11.8318 4.10489C11.886 4.12735 11.9353 4.16028 11.9768 4.20179C12.0183 4.24329 12.0512 4.29257 12.0737 4.3468C12.0961 4.40103 12.1077 4.45916 12.1077 4.51786C12.1077 4.57656 12.0961 4.63468 12.0737 4.68891C12.0512 4.74315 12.0183 4.79242 11.9768 4.83393L6.61964 10.1911Z"/>
</mask>
<path d="M13.8929 7.19643C13.8929 5.42043 13.1873 3.71716 11.9315 2.46134C10.6757 1.20551 8.97243 0.5 7.19643 0.5C5.42043 0.5 3.71716 1.20551 2.46134 2.46134C1.20551 3.71716 0.5 5.42043 0.5 7.19643C0.5 8.97243 1.20551 10.6757 2.46134 11.9315C3.71716 13.1873 5.42043 13.8929 7.19643 13.8929C8.97243 13.8929 10.6757 13.1873 11.9315 11.9315C13.1873 10.6757 13.8929 8.97243 13.8929 7.19643ZM6.61964 10.1911C6.57829 10.2329 6.52907 10.266 6.47482 10.2887C6.42056 10.3113 6.36236 10.323 6.30357 10.323C6.24478 10.323 6.18658 10.3113 6.13233 10.2887C6.07807 10.266 6.02885 10.2329 5.9875 10.1911L3.30893 7.5125C3.2251 7.42867 3.17801 7.31498 3.17801 7.19643C3.17801 7.07788 3.2251 6.96418 3.30893 6.88036C3.39276 6.79653 3.50645 6.74944 3.625 6.74944C3.74355 6.74944 3.85724 6.79653 3.94107 6.88036L6.30357 9.24375L11.3446 4.20179C11.3862 4.16028 11.4354 4.12735 11.4897 4.10489C11.5439 4.08243 11.602 4.07086 11.6607 4.07086C11.7194 4.07086 11.7775 4.08243 11.8318 4.10489C11.886 4.12735 11.9353 4.16028 11.9768 4.20179C12.0183 4.24329 12.0512 4.29257 12.0737 4.3468C12.0961 4.40103 12.1077 4.45916 12.1077 4.51786C12.1077 4.57656 12.0961 4.63468 12.0737 4.68891C12.0512 4.74315 12.0183 4.79242 11.9768 4.83393L6.61964 10.1911Z" fill="currentColor"/>
<path d="M7.19643 0.5V-15.5V0.5ZM0.5 7.19643H-15.5H0.5ZM6.61964 10.1911L-4.69407 -1.12264L-4.72404 -1.09266L-4.75385 -1.06253L6.61964 10.1911ZM6.30357 10.323V26.323V10.323ZM5.9875 10.1911L17.361 -1.06253L17.3312 -1.09266L17.3012 -1.12264L5.9875 10.1911ZM3.625 6.74944V-9.25056V6.74944ZM3.94107 6.88036L15.2569 -4.43121L15.2548 -4.43335L3.94107 6.88036ZM6.30357 9.24375L-5.01227 20.5553L6.30244 31.8743L17.6183 20.5565L6.30357 9.24375ZM11.3446 4.20179L0.0309348 -7.11192L0.0299327 -7.11092L11.3446 4.20179ZM11.6607 4.07086V-11.9291V4.07086ZM29.8929 7.19643C29.8929 1.17696 27.5016 -4.59596 23.2452 -8.85237L0.617811 13.775C-1.12695 12.0303 -2.10714 9.66389 -2.10714 7.19643H29.8929ZM23.2452 -8.85237C18.9888 -13.1088 13.2159 -15.5 7.19643 -15.5V16.5C4.72897 16.5 2.36257 15.5198 0.617811 13.775L23.2452 -8.85237ZM7.19643 -15.5C1.17696 -15.5 -4.59596 -13.1088 -8.85237 -8.85237L13.775 13.775C12.0303 15.5198 9.66389 16.5 7.19643 16.5V-15.5ZM-8.85237 -8.85237C-13.1088 -4.59596 -15.5 1.17696 -15.5 7.19643H16.5C16.5 9.66389 15.5198 12.0303 13.775 13.775L-8.85237 -8.85237ZM-15.5 7.19643C-15.5 13.2159 -13.1088 18.9888 -8.85237 23.2452L13.775 0.617811C15.5198 2.36257 16.5 4.72897 16.5 7.19643H-15.5ZM-8.85237 23.2452C-4.59596 27.5016 1.17696 29.8929 7.19643 29.8929V-2.10714C9.66389 -2.10714 12.0303 -1.12695 13.775 0.617811L-8.85237 23.2452ZM7.19643 29.8929C13.2159 29.8929 18.9888 27.5016 23.2452 23.2452L0.617811 0.617811C2.36257 -1.12695 4.72897 -2.10714 7.19643 -2.10714V29.8929ZM23.2452 23.2452C27.5016 18.9888 29.8929 13.2159 29.8929 7.19643H-2.10714C-2.10714 4.72897 -1.12695 2.36257 0.617811 0.617811L23.2452 23.2452ZM-4.75385 -1.06253C-3.30728 -2.52451 -1.58519 -3.68508 0.312743 -4.47712L12.6369 25.0545C14.6433 24.2171 16.4639 22.9902 17.9931 21.4447L-4.75385 -1.06253ZM0.312743 -4.47712C2.21065 -5.26916 4.24686 -5.67702 6.30357 -5.67702V26.323C8.47786 26.323 10.6305 25.8918 12.6369 25.0545L0.312743 -4.47712ZM6.30357 -5.67702C8.36028 -5.67702 10.3965 -5.26916 12.2944 -4.47712L-0.0297472 25.0545C1.97667 25.8918 4.12928 26.323 6.30357 26.323V-5.67702ZM12.2944 -4.47712C14.1923 -3.68508 15.9144 -2.52451 17.361 -1.06253L-5.38599 21.4447C-3.85673 22.9902 -2.03619 24.2171 -0.0297472 25.0545L12.2944 -4.47712ZM17.3012 -1.12264L14.6226 -3.80121L-8.00478 18.8262L-5.32621 21.5048L17.3012 -1.12264ZM14.6226 -3.80121C17.5394 -0.884458 19.178 3.07151 19.178 7.19643H-12.822C-12.822 11.5584 -11.0892 15.7418 -8.00478 18.8262L14.6226 -3.80121ZM19.178 7.19643C19.178 11.3213 17.5394 15.2773 14.6226 18.1941L-8.00478 -4.43335C-11.0892 -1.34895 -12.822 2.83441 -12.822 7.19643H19.178ZM14.6226 18.1941C11.7059 21.1108 7.74988 22.7494 3.625 22.7494V-9.25056C-0.736981 -9.25056 -4.92035 -7.51778 -8.00478 -4.43335L14.6226 18.1941ZM3.625 22.7494C-0.499881 22.7494 -4.45586 21.1108 -7.37264 18.1941L15.2548 -4.43335C12.1703 -7.51778 7.98698 -9.25056 3.625 -9.25056V22.7494ZM-7.37477 18.1919L-5.01227 20.5553L17.6194 -2.06782L15.2569 -4.43121L-7.37477 18.1919ZM17.6183 20.5565L22.6594 15.5145L0.0299327 -7.11092L-5.01114 -2.06896L17.6183 20.5565ZM22.6584 15.5155C21.2141 16.9597 19.4996 18.1053 17.6126 18.887L5.36672 -10.6772C3.37126 -9.85064 1.55816 -8.63915 0.0309349 -7.11192L22.6584 15.5155ZM17.6126 18.887C15.7256 19.6686 13.7032 20.0709 11.6607 20.0709V-11.9291C9.50087 -11.9291 7.36216 -11.5037 5.36672 -10.6772L17.6126 18.887ZM11.6607 20.0709C9.61827 20.0709 7.59582 19.6686 5.70884 18.887L17.9547 -10.6772C15.9593 -11.5037 13.8206 -11.9291 11.6607 -11.9291V20.0709ZM5.70884 18.887C3.82184 18.1053 2.10729 16.9597 0.663078 15.5155L23.2905 -7.11192C21.7633 -8.63915 19.9502 -9.85064 17.9547 -10.6772L5.70884 18.887ZM0.663078 15.5155C-0.781137 14.0713 -1.92677 12.3567 -2.70839 10.4697L26.8558 -1.77613C26.0292 -3.7716 24.8177 -5.58469 23.2905 -7.11192L0.663078 15.5155ZM-2.70839 10.4697C-3.49003 8.58269 -3.89229 6.56023 -3.89229 4.51786L28.1077 4.51786C28.1077 2.35809 27.6823 0.219379 26.8558 -1.77613L-2.70839 10.4697ZM-3.89229 4.51786C-3.89229 2.47549 -3.49003 0.45303 -2.70839 -1.43402L26.8558 10.8118C27.6823 8.81634 28.1077 6.67763 28.1077 4.51786L-3.89229 4.51786ZM-2.70839 -1.43402C-1.92677 -3.32102 -0.781137 -5.03556 0.663078 -6.47978L23.2905 16.1476C24.8177 14.6204 26.0292 12.8073 26.8558 10.8118L-2.70839 -1.43402ZM0.663078 -6.47978L-4.69407 -1.12264L17.9334 21.5048L23.2905 16.1476L0.663078 -6.47978Z" fill="currentColor" mask="url(#path-2-inside-2_4570_21512)"/>
</svg>
