<svg width="1em" height="1em" viewBox="0 0 25 24" fill="none" xmlns="http://www.w3.org/2000/svg">
<path d="M11 14.4147C11.1624 14.472 11.3318 14.5 11.5 14.5C11.8782 14.5 12.2623 14.3584 12.5603 14.0603C13.1432 13.4774 13.1432 12.5226 12.5603 11.9397L10.6037 9.98305C10.5652 9.93697 10.5267 9.9019 10.4961 9.87719C10.3906 9.77986 10.2395 9.66755 10.0533 9.59775L9.926 9.55H9.88692C9.7839 9.52168 9.66319 9.5 9.53 9.5H9.52982H9.52965H9.52947H9.5293H9.52912H9.52895H9.52877H9.5286H9.52843H9.52825H9.52808H9.52791H9.52773H9.52756H9.52739H9.52722H9.52704H9.52687H9.5267H9.52653H9.52636H9.52619H9.52602H9.52585H9.52567H9.5255H9.52533H9.52516H9.52499H9.52483H9.52466H9.52449H9.52432H9.52415H9.52398H9.52381H9.52364H9.52348H9.52331H9.52314H9.52297H9.52281H9.52264H9.52247H9.52231H9.52214H9.52198H9.52181H9.52164H9.52148H9.52131H9.52115H9.52098H9.52082H9.52065H9.52049H9.52032H9.52016H9.52H9.51983H9.51967H9.51951H9.51934H9.51918H9.51902H9.51885H9.51869H9.51853H9.51837H9.5182H9.51804H9.51788H9.51772H9.51756H9.5174H9.51724H9.51708H9.51691H9.51675H9.51659H9.51643H9.51627H9.51611H9.51595H9.51579H9.51563H9.51547H9.51532H9.51516H9.515H9.51484H9.51468H9.51452H9.51436H9.51421H9.51405H9.51389H9.51373H9.51357H9.51342H9.51326H9.5131H9.51295H9.51279H9.51263H9.51248H9.51232H9.51216H9.51201H9.51185H9.51169H9.51154H9.51138H9.51123H9.51107H9.51092H9.51076H9.51061H9.51045H9.5103H9.51014H9.50999H9.50983H9.50968H9.50952H9.50937H9.50922H9.50906H9.50891H9.50875H9.5086H9.50845H9.50829H9.50814H9.50799H9.50784H9.50768H9.50753H9.50738H9.50722H9.50707H9.50692H9.50677H9.50662H9.50646H9.50631H9.50616H9.50601H9.50586H9.5057H9.50555H9.5054H9.50525H9.5051H9.50495H9.5048H9.50465H9.5045H9.50434H9.50419H9.50404H9.50389H9.50374H9.50359H9.50344H9.50329H9.50314H9.50299H9.50284H9.50269H9.50254H9.50239H9.50224H9.50209H9.50194H9.50179H9.50165H9.5015H9.50135H9.5012H9.50105H9.5009H9.50075H9.5006H9.50045H9.5003H9.50016H9.50001H9.49986H9.49971H9.49956H9.49941H9.49927H9.49912H9.49897H9.49882H9.49867H9.49852H9.49838H9.49823H9.49808H9.49793H9.49779H9.49764H9.49749H9.49734H9.49719H9.49705H9.4969H9.49675H9.4966H9.49646H9.49631H9.49616H9.49602H9.49587H9.49572H9.49557H9.49543H9.49528H9.49513H9.49499H9.49484H9.49469H9.49454H9.4944H9.49425H9.4941H9.49396H9.49381H9.49366H9.49352H9.49337H9.49322H9.49308H9.49293H9.49278H9.49264H9.49249H9.49234H9.4922H9.49205H9.4919H9.49176H9.49161H9.49146H9.49132H9.49117H9.49102H9.49088H9.49073H9.49059H9.49044H9.49029H9.49015H9.49H9.48985H9.48971H9.48956H9.48941H9.48927H9.48912H9.48897H9.48883H9.48868H9.48853H9.48839H9.48824H9.4881H9.48795H9.4878H9.48766H9.48751H9.48736H9.48722H9.48707H9.48692H9.48678H9.48663H9.48648H9.48634H9.48619H9.48604H9.4859H9.48575H9.4856H9.48545H9.48531H9.48516H9.48501H9.48487H9.48472H9.48457H9.48443H9.48428H9.48413H9.48398H9.48384H9.48369H9.48354H9.48339H9.48325H9.4831H9.48295H9.4828H9.48266H9.48251H9.48236H9.48221H9.48207H9.48192H9.48177H9.48162H9.48147H9.48133H9.48118H9.48103H9.48088H9.48073H9.48059H9.48044H9.48029H9.48014H9.47999H9.47984H9.47969H9.47955H9.4794H9.47925H9.4791H9.47895H9.4788H9.47865H9.4785H9.47835H9.4782H9.47806H9.47791H9.47776H9.47761H9.47746H9.47731H9.47716H9.47701H9.47686H9.47671H9.47656H9.47641H9.47626H9.47611H9.47596H9.47581H9.47566H9.4755H9.47535H9.4752H9.47505H9.4749H9.47475H9.4746H9.47445H9.4743H9.47414H9.47399H9.47384H9.47369H9.47354H9.47338H9.47323H9.47308H9.47293H9.47277H9.47262H9.47247H9.47232H9.47216H9.47201H9.47186H9.4717H9.47155H9.4714H9.47124H9.47109H9.47094H9.47078H9.47063H9.47048H9.47032H9.47017H9.47001H9.46986H9.4697H9.46955H9.46939H9.46924H9.46908H9.46893H9.46877H9.46862H9.46846H9.46831H9.46815H9.46799H9.46784H9.46768H9.46752H9.46737H9.46721H9.46705H9.4669H9.46674H9.46658H9.46642H9.46627H9.46611H9.46595H9.46579H9.46564H9.46548H9.46532H9.46516H9.465H9.46484H9.46468H9.46452H9.46437H9.46421H9.46405H9.46389H9.46373H9.46357H9.46341H9.46325H9.46309H9.46292H9.46276H9.4626H9.46244H9.46228H9.46212H9.46196H9.46179H9.46163H9.46147H9.46131H9.46115H9.46098H9.46082H9.46066H9.46049H9.46033H9.46017H9.46H9.45984H9.45968H9.45951H9.45935H9.45918H9.45902H9.45885H9.45869H9.45852H9.45836H9.45819H9.45802H9.45786H9.45769H9.45753H9.45736H9.45719H9.45702H9.45686H9.45669H9.45652H9.45635H9.45619H9.45602H9.45585H9.45568H9.45551H9.45534H9.45517H9.455H9.45484H9.45467H9.4545H9.45433H9.45415H9.45398H9.45381H9.45364H9.45347H9.4533H9.45313H9.45296H9.45278H9.45261H9.45244H9.45227H9.45209H9.45192H9.45175H9.45157H9.4514H9.45122H9.45105H9.45088H9.4507H9.45053H9.45035H9.45018H9.45H9.3967L9.34393 9.50754C9.27014 9.51808 9.15204 9.53542 9.02282 9.57849L8.97226 9.59535L8.94249 9.61023C8.93626 9.61273 8.92608 9.61683 8.91552 9.62127L11 14.4147ZM11 14.4147V17C11 17.8242 10.3242 18.5 9.5 18.5C8.67579 18.5 8 17.8242 8 17V14.4127C7.47223 14.5976 6.85947 14.4801 6.43967 14.0603C5.85678 13.4774 5.85678 12.5226 6.43967 11.9397L8.43967 9.93967L8.46004 9.9193L8.48191 9.90056C8.58402 9.81303 8.705 9.72397 8.85458 9.64918L11 14.4147ZM18.11 10.94H21C21.1358 10.94 21.25 11.0542 21.25 11.19V16.43C21.25 18.031 20.6971 19.2176 19.8565 20.0071C19.0086 20.8035 17.8093 21.25 16.43 21.25H8.57C7.19067 21.25 5.99139 20.8035 5.14345 20.0071C4.30293 19.2176 3.75 18.031 3.75 16.43V7.57C3.75 5.96898 4.30293 4.78236 5.14345 3.99294C5.99139 3.19655 7.19067 2.75 8.57 2.75H12.81C12.9458 2.75 13.06 2.86421 13.06 3V5.89C13.06 8.67421 15.3258 10.94 18.11 10.94Z" fill="currentColor" stroke="currentColor" stroke-width="1.5"/>
<path d="M17.9376 8.06052L17.9376 8.06048H17.9297C16.814 8.06048 15.9297 7.16664 15.9297 6.14048V2.90125C16.9234 3.89623 18.3339 5.31968 19.5774 6.57451C20.1197 7.12174 20.6302 7.6369 21.0605 8.07048C19.9943 8.07042 18.8087 8.06969 17.9376 8.06052Z" fill="currentColor" stroke="currentColor" stroke-width="1.5"/>
</svg>
