<svg width="18" height="18" viewBox="0 0 18 18" fill="none" xmlns="http://www.w3.org/2000/svg">
<path d="M9 1.5C4.86 1.5 1.5 4.86 1.5 9C1.5 13.14 4.86 16.5 9 16.5C13.14 16.5 16.5 13.14 16.5 9C16.5 4.86 13.14 1.5 9 1.5ZM12.8925 11.955C12.8625 12.0225 12.825 12.0825 12.7725 12.135L11.505 13.4025C11.3925 13.515 11.25 13.5675 11.1075 13.5675C10.965 13.5675 10.8225 13.515 10.71 13.4025C10.4925 13.185 10.4925 12.825 10.71 12.6075L11.0175 12.3H6.825C5.85 12.3 5.0625 11.505 5.0625 10.5375V9.21C5.0625 8.9025 5.3175 8.6475 5.625 8.6475C5.9325 8.6475 6.1875 8.9025 6.1875 9.21V10.5375C6.1875 10.89 6.4725 11.175 6.825 11.175H11.0175L10.71 10.8675C10.4925 10.65 10.4925 10.29 10.71 10.0725C10.9275 9.855 11.2875 9.855 11.505 10.0725L12.7725 11.34C12.825 11.3925 12.8625 11.4525 12.8925 11.52C12.9525 11.6625 12.9525 11.82 12.8925 11.955ZM12.9375 8.79C12.9375 9.0975 12.6825 9.3525 12.375 9.3525C12.0675 9.3525 11.8125 9.0975 11.8125 8.79V7.4625C11.8125 7.11 11.5275 6.825 11.175 6.825H6.9825L7.29 7.125C7.5075 7.3425 7.5075 7.7025 7.29 7.92C7.1775 8.0325 7.035 8.085 6.8925 8.085C6.75 8.085 6.6075 8.0325 6.495 7.92L5.2275 6.6525C5.175 6.6 5.1375 6.54 5.1075 6.4725C5.0475 6.3375 5.0475 6.18 5.1075 6.045C5.1375 5.9775 5.175 5.91 5.2275 5.8575L6.495 4.59C6.7125 4.3725 7.0725 4.3725 7.29 4.59C7.5075 4.8075 7.5075 5.1675 7.29 5.385L6.9825 5.6925H11.175C12.15 5.6925 12.9375 6.4875 12.9375 7.455V8.79Z" fill="currentColor"/>
</svg>
