<svg width="18" height="18" viewBox="0 0 18 18" fill="none" xmlns="http://www.w3.org/2000/svg">
<g clip-path="url(#clip0_4275_29347)">
<mask id="path-1-inside-1_4275_29347" fill="white">
<path d="M16.5833 11.1625C13.5967 11.1625 11.1667 13.5925 11.1667 16.5792C11.1667 19.5658 13.5967 21.9958 16.5833 21.9958C19.57 21.9958 22 19.5658 22 16.5792C22 13.5925 19.57 11.1625 16.5833 11.1625ZM18.7433 18.8375C18.6931 18.9024 18.6306 18.9568 18.5593 18.9975C18.488 19.0382 18.4093 19.0644 18.3279 19.0747C18.2464 19.0849 18.1637 19.0789 18.0846 19.0571C18.0054 19.0353 17.9314 18.998 17.8667 18.9475L15.9917 17.4892C15.9165 17.4308 15.8556 17.356 15.8137 17.2705C15.7718 17.185 15.75 17.091 15.75 16.9958V14.2875C15.75 14.1217 15.8158 13.9628 15.9331 13.8456C16.0503 13.7283 16.2092 13.6625 16.375 13.6625C16.5408 13.6625 16.6997 13.7283 16.8169 13.8456C16.9342 13.9628 17 14.1217 17 14.2875V16.69L18.6333 17.9608C18.6982 18.0111 18.7525 18.0737 18.7931 18.145C18.8337 18.2163 18.8599 18.2949 18.8701 18.3764C18.8804 18.4578 18.8744 18.5404 18.8527 18.6196C18.8309 18.6987 18.7937 18.7727 18.7433 18.8375ZM13.2 3.32083L5.63333 7.1375L2.625 5.67917L10.0583 2.0625C10.225 1.97917 10.425 1.97917 10.6 2.0625L13.2 3.32083ZM18.0417 5.67917L10.3417 9.4375L7.45833 8.0375L7.04167 7.82917L14.6167 4.0125L15.0333 4.22083L18.0417 5.67917ZM9.71667 14.8292C9.42909 15.9725 9.42909 17.1692 9.71667 18.3125V18.4292L2.34167 14.6375C2.23927 14.5844 2.15332 14.5043 2.09311 14.4059C2.0329 14.3075 2.0007 14.1945 2 14.0792V6.7625L5.125 8.27917V10.9458C5.125 11.2875 5.40833 11.5708 5.75 11.5708C6.09167 11.5708 6.375 11.2875 6.375 10.9458V8.89583L6.79167 9.09583L9.725 10.5208L9.71667 14.8292ZM18.675 9.8125C18.0167 9.60417 17.3083 9.49583 16.5833 9.49583C14.3 9.49583 12.2667 10.5792 10.975 12.2625V10.5125L18.6667 6.77083C18.675 7.47083 18.675 8.8375 18.675 9.8125Z"/>
</mask>
<path d="M16.5833 11.1625C13.5967 11.1625 11.1667 13.5925 11.1667 16.5792C11.1667 19.5658 13.5967 21.9958 16.5833 21.9958C19.57 21.9958 22 19.5658 22 16.5792C22 13.5925 19.57 11.1625 16.5833 11.1625ZM18.7433 18.8375C18.6931 18.9024 18.6306 18.9568 18.5593 18.9975C18.488 19.0382 18.4093 19.0644 18.3279 19.0747C18.2464 19.0849 18.1637 19.0789 18.0846 19.0571C18.0054 19.0353 17.9314 18.998 17.8667 18.9475L15.9917 17.4892C15.9165 17.4308 15.8556 17.356 15.8137 17.2705C15.7718 17.185 15.75 17.091 15.75 16.9958V14.2875C15.75 14.1217 15.8158 13.9628 15.9331 13.8456C16.0503 13.7283 16.2092 13.6625 16.375 13.6625C16.5408 13.6625 16.6997 13.7283 16.8169 13.8456C16.9342 13.9628 17 14.1217 17 14.2875V16.69L18.6333 17.9608C18.6982 18.0111 18.7525 18.0737 18.7931 18.145C18.8337 18.2163 18.8599 18.2949 18.8701 18.3764C18.8804 18.4578 18.8744 18.5404 18.8527 18.6196C18.8309 18.6987 18.7937 18.7727 18.7433 18.8375ZM13.2 3.32083L5.63333 7.1375L2.625 5.67917L10.0583 2.0625C10.225 1.97917 10.425 1.97917 10.6 2.0625L13.2 3.32083ZM18.0417 5.67917L10.3417 9.4375L7.45833 8.0375L7.04167 7.82917L14.6167 4.0125L15.0333 4.22083L18.0417 5.67917ZM9.71667 14.8292C9.42909 15.9725 9.42909 17.1692 9.71667 18.3125V18.4292L2.34167 14.6375C2.23927 14.5844 2.15332 14.5043 2.09311 14.4059C2.0329 14.3075 2.0007 14.1945 2 14.0792V6.7625L5.125 8.27917V10.9458C5.125 11.2875 5.40833 11.5708 5.75 11.5708C6.09167 11.5708 6.375 11.2875 6.375 10.9458V8.89583L6.79167 9.09583L9.725 10.5208L9.71667 14.8292ZM18.675 9.8125C18.0167 9.60417 17.3083 9.49583 16.5833 9.49583C14.3 9.49583 12.2667 10.5792 10.975 12.2625V10.5125L18.6667 6.77083C18.675 7.47083 18.675 8.8375 18.675 9.8125Z" fill="currentColor"/>
<path d="M18.7433 18.8375L1.9101 5.73203L1.8889 5.75926L1.86779 5.78656L18.7433 18.8375ZM17.8667 18.9475L30.9947 2.13185L30.9794 2.1199L30.9641 2.10799L17.8667 18.9475ZM15.9917 17.4892L29.0891 0.649653L29.0826 0.644616L29.0761 0.639583L15.9917 17.4892ZM15.75 16.9958L-5.58334 16.9958L-5.58333 17.0063L15.75 16.9958ZM17 16.69H-4.33333V27.1214L3.89961 33.5272L17 16.69ZM18.6333 17.9608L5.53295 34.798L5.54635 34.8085L5.55978 34.8189L18.6333 17.9608ZM13.2 3.32083L22.8076 22.3683L61.3536 2.92547L22.4936 -15.8818L13.2 3.32083ZM5.63333 7.1375L-3.67253 26.3342L5.82112 30.9364L15.241 26.1849L5.63333 7.1375ZM2.625 5.67917L-6.70854 -13.5041L-46.2082 5.71438L-6.68086 24.8758L2.625 5.67917ZM10.0583 2.0625L19.3919 21.2457L19.4957 21.1952L19.5989 21.1436L10.0583 2.0625ZM10.6 2.0625L19.8936 -17.1401L19.8328 -17.1695L19.7719 -17.1985L10.6 2.0625ZM18.0417 5.67917L27.3992 24.8507L66.812 5.61349L27.3475 -13.5175L18.0417 5.67917ZM10.3417 9.4375L1.02361 28.6283L10.3661 33.1645L19.6992 28.609L10.3417 9.4375ZM7.45833 8.0375L-2.08222 27.1186L-1.97129 27.1741L-1.85972 27.2283L7.45833 8.0375ZM7.04167 7.82917L-2.55753 -11.2225L-40.5149 7.9023L-2.49889 26.9103L7.04167 7.82917ZM14.6167 4.0125L24.1572 -15.0686L14.58 -19.8572L5.01747 -15.0392L14.6167 4.0125ZM15.0333 4.22083L5.49278 23.3019L5.60977 23.3604L5.72747 23.4175L15.0333 4.22083ZM9.71667 14.8292L30.4056 20.033L31.0449 17.4913L31.05 14.8704L9.71667 14.8292ZM9.71667 18.3125H31.05V15.6707L30.4056 13.1086L9.71667 18.3125ZM9.71667 18.4292L-0.0376698 37.4019L31.05 53.3848L31.05 18.4292H9.71667ZM2.34167 14.6375L-7.4825 33.5742L-7.44762 33.5923L-7.41267 33.6102L2.34167 14.6375ZM2 14.0792H-19.3333V14.144L-19.3329 14.2088L2 14.0792ZM2 6.7625L11.3147 -12.4299L-19.3333 -27.3044V6.7625H2ZM5.125 8.27917H26.4583V-5.08017L14.4397 -10.9132L5.125 8.27917ZM6.375 8.89583L15.6066 -10.3366L-14.9583 -25.0079V8.89583H6.375ZM6.79167 9.09583L16.1135 -10.0931L16.0685 -10.115L16.0233 -10.1366L6.79167 9.09583ZM9.725 10.5208L31.0583 10.5621L31.0842 -2.8204L19.0469 -8.66806L9.725 10.5208ZM18.675 9.8125L12.2385 30.1517L40.0083 38.9396V9.8125H18.675ZM10.975 12.2625H-10.3583V75.1085L27.8999 25.2494L10.975 12.2625ZM10.975 10.5125L1.64285 -8.6714L-10.3583 -2.83334V10.5125H10.975ZM18.6667 6.77083L39.9985 6.51688L39.5979 -27.1349L9.33452 -12.4131L18.6667 6.77083ZM16.5833 -10.1708C1.81459 -10.1708 -10.1667 1.81043 -10.1667 16.5792H32.5C32.5 25.3746 25.3787 32.4958 16.5833 32.4958V-10.1708ZM-10.1667 16.5792C-10.1667 31.3479 1.81459 43.3292 16.5833 43.3292V0.662501C25.3787 0.662501 32.5 7.78376 32.5 16.5792H-10.1667ZM16.5833 43.3292C31.3521 43.3292 43.3333 31.3479 43.3333 16.5792H0.666666C0.666666 7.78376 7.78792 0.662501 16.5833 0.662501V43.3292ZM43.3333 16.5792C43.3333 1.81043 31.3521 -10.1708 16.5833 -10.1708V32.4958C7.78792 32.4958 0.666666 25.3746 0.666666 16.5792H43.3333ZM1.86779 5.78656C3.53634 3.62903 5.61476 1.82218 7.98385 0.469921L29.1347 37.5251C31.6463 36.0915 33.8499 34.1759 35.6189 31.8884L1.86779 5.78656ZM7.98385 0.469921C10.3528 -0.88228 12.9655 -1.75312 15.6719 -2.0927L20.9838 40.242C23.8531 39.882 26.6231 38.9587 29.1347 37.5251L7.98385 0.469921ZM15.6719 -2.0927C18.3782 -2.43228 21.1251 -2.23393 23.7547 -1.50893L12.4145 39.6231C15.2024 40.3917 18.1146 40.602 20.9838 40.242L15.6719 -2.0927ZM23.7547 -1.50893C26.3845 -0.783894 28.8449 0.453465 30.9947 2.13185L4.73864 35.7632C7.01791 37.5426 9.6264 38.8544 12.4145 39.6231L23.7547 -1.50893ZM30.9641 2.10799L29.0891 0.649653L2.89427 34.3287L4.76927 35.787L30.9641 2.10799ZM29.0761 0.639583C31.5674 2.57419 33.5841 5.05251 34.9719 7.88557L-3.34442 26.6554C-1.87284 29.6594 0.265523 32.2874 2.90722 34.3388L29.0761 0.639583ZM34.9719 7.88557C36.3596 10.7184 37.0818 13.8309 37.0833 16.9854L-5.58333 17.0063C-5.58169 20.3512 -4.81591 23.6515 -3.34442 26.6554L34.9719 7.88557ZM37.0833 16.9958V14.2875H-5.58333V16.9958H37.0833ZM37.0833 14.2875C37.0833 19.7797 34.9016 25.0469 31.018 28.9305L0.848112 -1.23939C-3.2699 2.87862 -5.58333 8.46382 -5.58333 14.2875H37.0833ZM31.018 28.9305C27.1344 32.8141 21.8672 34.9958 16.375 34.9958V-7.67083C10.5513 -7.67083 4.96609 -5.35736 0.848112 -1.23939L31.018 28.9305ZM16.375 34.9958C10.8828 34.9958 5.61555 32.8141 1.732 28.9305L31.9019 -1.23939C27.7839 -5.35736 22.1987 -7.67083 16.375 -7.67083V34.9958ZM1.732 28.9305C-2.15159 25.0469 -4.33333 19.7797 -4.33333 14.2875H38.3333C38.3333 8.46382 36.0199 2.87862 31.9019 -1.23939L1.732 28.9305ZM-4.33333 14.2875V16.69H38.3333V14.2875H-4.33333ZM3.89961 33.5272L5.53295 34.798L31.7337 1.12364L30.1004 -0.147191L3.89961 33.5272ZM5.55978 34.8189C3.40832 33.1504 1.60676 31.0739 0.258429 28.708L37.3278 7.58203C35.8982 5.07354 33.988 2.87186 31.7069 1.1028L5.55978 34.8189ZM0.258429 28.708C-1.08975 26.3424 -1.95821 23.7341 -2.29721 21.0323L40.0375 15.7204C39.6781 12.8558 38.7572 10.0903 37.3278 7.58203L0.258429 28.708ZM-2.29721 21.0323C-2.63623 18.3304 -2.43904 15.5884 -1.71715 12.9632L39.4225 24.2759C40.1879 21.4924 40.3969 18.5851 40.0375 15.7204L-2.29721 21.0323ZM-1.71715 12.9632C-0.995176 10.3377 0.237465 7.88043 1.9101 5.73203L35.5766 31.943C37.35 29.6651 38.657 27.0597 39.4225 24.2759L-1.71715 12.9632ZM3.59237 -15.7266L-3.97429 -11.9099L15.241 26.1849L22.8076 22.3683L3.59237 -15.7266ZM14.9392 -12.0592L11.9309 -13.5175L-6.68086 24.8758L-3.67253 26.3342L14.9392 -12.0592ZM11.9585 24.8624L19.3919 21.2457L0.724791 -17.1207L-6.70854 -13.5041L11.9585 24.8624ZM19.5989 21.1436C13.6191 24.1335 6.908 23.933 1.42808 21.3235L19.7719 -17.1985C13.942 -19.9747 6.83088 -20.1752 0.517776 -17.0186L19.5989 21.1436ZM1.30642 21.2651L3.90642 22.5235L22.4936 -15.8818L19.8936 -17.1401L1.30642 21.2651ZM8.68413 -13.4924L0.984131 -9.73403L19.6992 28.609L27.3992 24.8507L8.68413 -13.4924ZM19.6597 -9.75325L16.7764 -11.1533L-1.85972 27.2283L1.02361 28.6283L19.6597 -9.75325ZM16.9989 -11.0436L16.5822 -11.2519L-2.49889 26.9103L-2.08222 27.1186L16.9989 -11.0436ZM16.6409 26.8808L24.2159 23.0642L5.01747 -15.0392L-2.55753 -11.2225L16.6409 26.8808ZM5.07611 23.0936L5.49278 23.3019L24.5739 -14.8603L24.1572 -15.0686L5.07611 23.0936ZM5.72747 23.4175L8.7358 24.8758L27.3475 -13.5175L24.3392 -14.9758L5.72747 23.4175ZM-10.9722 9.62531C-12.119 14.1847 -12.119 18.957 -10.9722 23.5164L30.4056 13.1086C30.9772 15.3814 30.9772 17.7603 30.4056 20.033L-10.9722 9.62531ZM-11.6167 18.3125V18.4292H31.05V18.3125H-11.6167ZM19.471 -0.543551L12.096 -4.33522L-7.41267 33.6102L-0.0376698 37.4019L19.471 -0.543551ZM12.1658 -4.29915C15.5127 -2.56283 18.3217 0.0546359 20.2897 3.27065L-16.1035 25.5411C-14.0151 28.954 -11.0342 31.7316 -7.4825 33.5742L12.1658 -4.29915ZM20.2897 3.27065C22.2578 6.48668 23.31 10.1792 23.3329 13.9495L-19.3329 14.2088C-19.3086 18.2099 -18.192 22.1283 -16.1035 25.5411L20.2897 3.27065ZM23.3333 14.0792V6.7625H-19.3333V14.0792H23.3333ZM-7.3147 25.9549L-4.1897 27.4715L14.4397 -10.9132L11.3147 -12.4299L-7.3147 25.9549ZM-16.2083 8.27917V10.9458H26.4583V8.27917H-16.2083ZM-16.2083 10.9458C-16.2083 23.0696 -6.37374 32.9042 5.75 32.9042V-9.7625C17.1904 -9.7625 26.4583 -0.494573 26.4583 10.9458H-16.2083ZM5.75 32.9042C17.8737 32.9042 27.7083 23.0696 27.7083 10.9458H-14.9583C-14.9583 -0.494573 -5.69041 -9.7625 5.75 -9.7625V32.9042ZM27.7083 10.9458V8.89583H-14.9583V10.9458H27.7083ZM-2.85662 28.1283L-2.43995 28.3283L16.0233 -10.1366L15.6066 -10.3366L-2.85662 28.1283ZM-2.53021 28.2847L0.403126 29.7097L19.0469 -8.66806L16.1135 -10.0931L-2.53021 28.2847ZM-11.6083 10.4796L-11.6166 14.7879L31.05 14.8704L31.0583 10.5621L-11.6083 10.4796ZM25.1115 -10.5267C22.3002 -11.4163 19.4164 -11.8375 16.5833 -11.8375V30.8292C15.2003 30.8292 13.7331 30.6247 12.2385 30.1517L25.1115 -10.5267ZM16.5833 -11.8375C7.39896 -11.8375 -0.787162 -7.45259 -5.94987 -0.724407L27.8999 25.2494C25.3205 28.6109 21.201 30.8292 16.5833 30.8292V-11.8375ZM32.3083 12.2625V10.5125H-10.3583V12.2625H32.3083ZM20.3071 29.6964L27.9988 25.9547L9.33452 -12.4131L1.64285 -8.6714L20.3071 29.6964ZM-2.66516 7.02478C-2.65874 7.56403 -2.65833 8.7672 -2.65833 9.8125H40.0083C40.0083 8.9078 40.0087 7.37764 39.9985 6.51688L-2.66516 7.02478Z" fill="currentColor" mask="url(#path-1-inside-1_4275_29347)"/>
</g>
<defs>
<clipPath id="clip0_4275_29347">
<rect width="18" height="18" fill="white"/>
</clipPath>
</defs>
</svg>
