<svg width="97" height="31" viewBox="0 0 97 31" fill="none" xmlns="http://www.w3.org/2000/svg">
<path d="M38.826 19.1936C38.2324 19.1277 37.7048 18.9957 37.1112 18.8638C35.858 18.6 35.0665 17.4128 35.1984 16.1596C35.3303 14.7745 36.5835 13.8511 37.9026 13.983C38.0346 13.983 38.2324 14.0489 38.3643 14.1149C38.8261 14.2468 39.3537 14.3128 39.8154 14.3787C42.7835 14.7745 45.2239 13.7191 46.2133 11.7404C46.8069 10.5532 46.8729 9.16808 46.4112 7.71702C45.8175 5.60638 43.9048 3.62766 41.3984 2.44042C40.0133 1.78085 38.6282 1.31914 37.375 1.18723C36.9792 1.12127 36.6495 1.12127 36.2537 1.12127C36.1218 1.12127 36.0558 1.05531 36.0558 0.923399C36.0558 0.791484 36.1218 0.65957 36.1878 0.65957C37.7707 0.0659529 39.5516 -0.0659622 41.2665 0.13191C47.4005 0.9234 51.4899 5.60638 50.8303 11.0149C50.1048 16.1596 44.6963 19.9191 38.826 19.1936Z" fill="#006936"/>
<path d="M39.0895 30.9999C32.6257 30.9999 27.415 25.7233 27.415 19.3255C27.415 17.8085 27.7448 16.2914 28.2725 14.9063C28.3384 14.7744 28.4044 14.7085 28.5363 14.7744C28.6682 14.7744 28.7342 14.9063 28.7342 15.0382C29.1299 21.3042 34.4065 26.185 40.7384 26.185C44.3001 26.185 47.7299 24.6021 49.9725 21.8319C50.0384 21.7659 50.1704 21.6999 50.3023 21.7659C50.4342 21.8319 50.5001 21.9638 50.4342 22.0957C49.181 27.2404 44.498 30.9999 39.0895 30.9999Z" fill="#B71614"/>
<path d="M24.2495 19.2596C24.2495 15.3022 26.4261 11.9383 29.724 10.1575C30.2517 9.82768 30.8453 9.62981 31.4389 9.43194L31.5708 9.36598H31.6368C32.5602 9.10215 33.6155 8.90428 34.6048 8.90428C36.7814 8.90428 38.8261 9.56385 40.4751 10.7511C41.0687 11.1468 41.7282 11.0809 41.9921 10.949C43.2453 10.5532 44.0368 9.30002 43.9048 7.91492C43.8389 7.25534 43.5751 6.59577 43.1134 6.13407C40.4091 3.49577 36.5836 2.30853 32.758 2.77024C29.3282 3.23194 26.3602 5.01279 24.2495 7.84896C22.2048 10.6851 21.2814 14.2468 21.7431 17.8085C22.2708 22.0298 24.7772 25.8553 28.3389 27.966L28.4708 28.0319L28.6687 27.9C28.7346 27.7681 28.7346 27.6362 28.6027 27.5043C25.8985 25.7234 24.2495 22.6894 24.2495 19.2596Z" fill="#D95E02"/>
<path d="M0.306641 31V0H4.59387V13.5872L17.5215 0H23.3258L9.47473 13.8511L24.8428 31H18.8407L4.59387 14.5766V31H0.306641Z" fill="black"/>
<path d="M53.9961 31V0H64.4174C66.528 0 68.1769 0.131915 69.2323 0.395745C70.6833 0.79149 71.8706 1.45106 72.8599 2.50638C74.3769 4.08936 75.1025 6.06808 75.1025 8.50851C75.1025 10.883 74.311 12.9277 72.6621 14.5766C70.8812 16.3574 67.7812 17.2149 63.2961 17.2149H58.2833V31H53.9961ZM58.2833 3.49574V13.6532H63.3621C65.4067 13.6532 66.9897 13.3894 67.9791 12.9277C69.694 12.1362 70.5514 10.6191 70.5514 8.3766C70.5514 6.26596 69.7599 4.81489 68.2429 4.15532C67.3855 3.75957 66.0663 3.5617 64.2195 3.5617H58.2833V3.49574Z" fill="black"/>
<path d="M78.334 31V0H82.6212V27.1745H96.9999V31H78.334Z" fill="black"/>
</svg>
