<svg width="14" height="14" viewBox="0 0 14 14" fill="none" xmlns="http://www.w3.org/2000/svg">
<path d="M2.91667 5.8335C2.275 5.8335 1.75 6.3585 1.75 7.00016C1.75 7.64183 2.275 8.16683 2.91667 8.16683C3.55833 8.16683 4.08333 7.64183 4.08333 7.00016C4.08333 6.3585 3.55833 5.8335 2.91667 5.8335Z" stroke="currentColor" stroke-width="1.5"/>
<path d="M11.0833 5.8335C10.4417 5.8335 9.91666 6.3585 9.91666 7.00016C9.91666 7.64183 10.4417 8.16683 11.0833 8.16683C11.725 8.16683 12.25 7.64183 12.25 7.00016C12.25 6.3585 11.725 5.8335 11.0833 5.8335Z" stroke="currentColor" stroke-width="1.5"/>
<path d="M7.00001 5.8335C6.35834 5.8335 5.83334 6.3585 5.83334 7.00016C5.83334 7.64183 6.35834 8.16683 7.00001 8.16683C7.64168 8.16683 8.16668 7.64183 8.16668 7.00016C8.16668 6.3585 7.64168 5.8335 7.00001 5.8335Z" stroke="currentColor" stroke-width="1.5"/>
</svg>
